ISO-10303-21;
HEADER;
FILE_DESCRIPTION(('CATIA V5 STEP Exchange'),'2;1');

FILE_NAME('C:\\Users\\laurc\\OneDrive\\Desktop\\robot puma nou\\brat3.stp','2024-06-06T10:05:43+00:00',('none'),('none'),'CATIA Version 5 Release 21 GA (IN-10)','CATIA V5 STEP AP203','none');

FILE_SCHEMA(('CONFIG_CONTROL_DESIGN'));

ENDSEC;
/* file written by CATIA V5R21 */
DATA;
#5=PRODUCT('Part1','','',(#2)) ;
#1=APPLICATION_CONTEXT('configuration controlled 3D design of mechanical parts and assemblies') ;
#14=PRODUCT_DEFINITION('',' ',#6,#3) ;
#16=SECURITY_CLASSIFICATION(' ',' ',#15) ;
#15=SECURITY_CLASSIFICATION_LEVEL('unclassified') ;
#47=CARTESIAN_POINT(' ',(0.,0.,0.)) ;
#52=CARTESIAN_POINT('Axis2P3D Location',(5.29913298571E-015,75.,29.5)) ;
#57=CARTESIAN_POINT('Line Origine',(2.5,75.,29.5)) ;
#61=CARTESIAN_POINT('Vertex',(5.29913298571E-015,75.,29.5)) ;
#63=CARTESIAN_POINT('Vertex',(5.,75.,29.5)) ;
#66=CARTESIAN_POINT('Line Origine',(0.,169.75,29.5)) ;
#70=CARTESIAN_POINT('Vertex',(-5.41888311566E-015,264.5,29.5)) ;
#73=CARTESIAN_POINT('Line Origine',(2.5,264.5,29.5)) ;
#77=CARTESIAN_POINT('Vertex',(5.,264.5,29.5)) ;
#80=CARTESIAN_POINT('Line Origine',(5.,169.75,29.5)) ;
#92=CARTESIAN_POINT('Axis2P3D Location',(-29.5,264.5,0.)) ;
#97=CARTESIAN_POINT('Line Origine',(0.,264.5,30.)) ;
#101=CARTESIAN_POINT('Vertex',(5.23790266802E-015,264.5,30.5)) ;
#104=CARTESIAN_POINT('Line Origine',(2.5,264.5,30.5)) ;
#108=CARTESIAN_POINT('Vertex',(5.,264.5,30.5)) ;
#111=CARTESIAN_POINT('Line Origine',(5.,264.5,30.)) ;
#123=CARTESIAN_POINT('Axis2P3D Location',(0.,264.5,30.5)) ;
#128=CARTESIAN_POINT('Line Origine',(0.,169.75,30.5)) ;
#132=CARTESIAN_POINT('Vertex',(5.23790266802E-015,75.,30.5)) ;
#135=CARTESIAN_POINT('Line Origine',(2.5,75.,30.5)) ;
#139=CARTESIAN_POINT('Vertex',(5.,75.,30.5)) ;
#142=CARTESIAN_POINT('Line Origine',(5.,169.75,30.5)) ;
#154=CARTESIAN_POINT('Axis2P3D Location',(0.,75.,0.)) ;
#159=CARTESIAN_POINT('Line Origine',(0.,75.,30.)) ;
#164=CARTESIAN_POINT('Line Origine',(5.,75.,30.)) ;
#176=CARTESIAN_POINT('Axis2P3D Location',(7.1054273576E-015,0.,0.)) ;
#188=CARTESIAN_POINT('Axis2P3D Location',(5.,0.,3.06151588456E-016)) ;
#204=CARTESIAN_POINT('Axis2P3D Location',(-29.5,75.,0.)) ;
#209=CARTESIAN_POINT('Line Origine',(-29.5,75.,2.5)) ;
#213=CARTESIAN_POINT('Vertex',(-29.5,75.,3.43296354885E-015)) ;
#215=CARTESIAN_POINT('Vertex',(-29.5,75.,5.)) ;
#218=CARTESIAN_POINT('Line Origine',(-44.5,55.,0.)) ;
#222=CARTESIAN_POINT('Vertex',(-59.5,35.,0.)) ;
#225=CARTESIAN_POINT('Line Origine',(-59.5,35.,2.5)) ;
#229=CARTESIAN_POINT('Vertex',(-59.5,35.,5.)) ;
#232=CARTESIAN_POINT('Line Origine',(-44.5,55.,5.)) ;
#244=CARTESIAN_POINT('Axis2P3D Location',(-29.5,75.,0.)) ;
#249=CARTESIAN_POINT('Line Origine',(-29.5,35.,2.5)) ;
#253=CARTESIAN_POINT('Vertex',(-29.5,35.,-1.08377662313E-014)) ;
#255=CARTESIAN_POINT('Vertex',(-29.5,35.,5.)) ;
#258=CARTESIAN_POINT('Line Origine',(-29.5,55.,0.)) ;
#263=CARTESIAN_POINT('Line Origine',(-29.5,55.,5.)) ;
#275=CARTESIAN_POINT('Axis2P3D Location',(0.,0.,0.)) ;
#280=CARTESIAN_POINT('Line Origine',(-44.5,35.,0.)) ;
#291=CARTESIAN_POINT('Axis2P3D Location',(0.,0.,5.)) ;
#296=CARTESIAN_POINT('Line Origine',(-44.5,35.,5.)) ;
#307=CARTESIAN_POINT('Axis2P3D Location',(0.,95.,-50.)) ;
#312=CARTESIAN_POINT('Line Origine',(-14.1421356237,95.,-50.)) ;
#316=CARTESIAN_POINT('Vertex',(-14.1421356237,75.,-50.)) ;
#318=CARTESIAN_POINT('Vertex',(-14.1421356237,115.,-50.)) ;
#321=CARTESIAN_POINT('Axis2P3D Location',(0.,75.,-50.)) ;
#325=CARTESIAN_POINT('Vertex',(14.1421356237,75.,-50.)) ;
#328=CARTESIAN_POINT('Line Origine',(14.1421356237,95.,-50.)) ;
#332=CARTESIAN_POINT('Vertex',(14.1421356237,115.,-50.)) ;
#335=CARTESIAN_POINT('Axis2P3D Location',(0.,115.,-50.)) ;
#347=CARTESIAN_POINT('Axis2P3D Location',(0.,75.,-50.)) ;
#352=CARTESIAN_POINT('Axis2P3D Location',(0.,115.,-50.)) ;
#364=CARTESIAN_POINT('Line Origine',(15.,75.,-30.)) ;
#368=CARTESIAN_POINT('Vertex',(1.42108547152E-014,75.,-30.)) ;
#370=CARTESIAN_POINT('Vertex',(30.,75.,-30.)) ;
#373=CARTESIAN_POINT('Line Origine',(30.,75.,-50.)) ;
#377=CARTESIAN_POINT('Vertex',(30.,75.,-70.)) ;
#380=CARTESIAN_POINT('Line Origine',(0.,75.,-70.)) ;
#384=CARTESIAN_POINT('Vertex',(-30.,75.,-70.)) ;
#387=CARTESIAN_POINT('Line Origine',(-30.,75.,-50.)) ;
#391=CARTESIAN_POINT('Vertex',(-30.,75.,-30.)) ;
#394=CARTESIAN_POINT('Line Origine',(-17.5,75.,-30.)) ;
#398=CARTESIAN_POINT('Vertex',(-5.,75.,-30.)) ;
#401=CARTESIAN_POINT('Line Origine',(-5.,75.,-30.25)) ;
#405=CARTESIAN_POINT('Vertex',(-5.,75.,-30.5)) ;
#408=CARTESIAN_POINT('Line Origine',(-2.5,75.,-30.5)) ;
#412=CARTESIAN_POINT('Vertex',(8.97295204718E-015,75.,-30.5)) ;
#415=CARTESIAN_POINT('Line Origine',(0.,75.,-30.25)) ;
#435=CARTESIAN_POINT('Axis2P3D Location',(0.,115.,0.)) ;
#445=CARTESIAN_POINT('Axis2P3D Location',(30.,35.,-70.)) ;
#450=CARTESIAN_POINT('Line Origine',(30.,55.,-30.)) ;
#454=CARTESIAN_POINT('Vertex',(30.,35.,-30.)) ;
#457=CARTESIAN_POINT('Line Origine',(30.,35.,-50.)) ;
#461=CARTESIAN_POINT('Vertex',(30.,35.,-70.)) ;
#464=CARTESIAN_POINT('Line Origine',(30.,55.,-70.)) ;
#476=CARTESIAN_POINT('Axis2P3D Location',(-30.,35.,-70.)) ;
#481=CARTESIAN_POINT('Line Origine',(0.,35.,-70.)) ;
#485=CARTESIAN_POINT('Vertex',(-30.,35.,-70.)) ;
#488=CARTESIAN_POINT('Line Origine',(-30.,55.,-70.)) ;
#500=CARTESIAN_POINT('Axis2P3D Location',(-30.,35.,-30.)) ;
#505=CARTESIAN_POINT('Line Origine',(-30.,35.,-50.)) ;
#509=CARTESIAN_POINT('Vertex',(-30.,35.,-30.)) ;
#512=CARTESIAN_POINT('Line Origine',(-30.,55.,-30.)) ;
#524=CARTESIAN_POINT('Axis2P3D Location',(30.,35.,-30.)) ;
#529=CARTESIAN_POINT('Line Origine',(0.,35.,-30.)) ;
#534=CARTESIAN_POINT('Line Origine',(-2.5,75.,-30.)) ;
#548=CARTESIAN_POINT('Axis2P3D Location',(-85.,35.,0.)) ;
#553=CARTESIAN_POINT('Axis2P3D Location',(0.,35.,0.)) ;
#557=CARTESIAN_POINT('Vertex',(74.5945177607,35.,-40.7511707814)) ;
#559=CARTESIAN_POINT('Vertex',(-74.5945177607,35.,40.7511707814)) ;
#562=CARTESIAN_POINT('Axis2P3D Location',(0.,35.,0.)) ;
#577=CARTESIAN_POINT('Axis2P3D Location',(-0.748878657818,35.,70.)) ;
#581=CARTESIAN_POINT('Vertex',(-5.13679146727,35.,67.602872307)) ;
#583=CARTESIAN_POINT('Vertex',(3.63903415163,35.,72.397127693)) ;
#586=CARTESIAN_POINT('Axis2P3D Location',(-0.748878657818,35.,70.)) ;
#595=CARTESIAN_POINT('Line Origine',(29.5,35.,-2.5)) ;
#599=CARTESIAN_POINT('Vertex',(29.5,35.,0.)) ;
#601=CARTESIAN_POINT('Vertex',(29.5,35.,-5.)) ;
#604=CARTESIAN_POINT('Line Origine',(44.5,35.,-5.)) ;
#608=CARTESIAN_POINT('Vertex',(59.5,35.,-5.)) ;
#611=CARTESIAN_POINT('Line Origine',(59.5,35.,-2.5)) ;
#615=CARTESIAN_POINT('Vertex',(59.5,35.,0.)) ;
#618=CARTESIAN_POINT('Line Origine',(44.5,35.,0.)) ;
#629=CARTESIAN_POINT('Axis2P3D Location',(0.,35.,0.)) ;
#633=CARTESIAN_POINT('Vertex',(5.29913298571E-015,35.,29.5)) ;
#636=CARTESIAN_POINT('Axis2P3D Location',(0.,35.,0.)) ;
#640=CARTESIAN_POINT('Vertex',(-25.8886855758,35.,14.1430533888)) ;
#643=CARTESIAN_POINT('Axis2P3D Location',(0.,35.,0.)) ;
#648=CARTESIAN_POINT('Axis2P3D Location',(0.,35.,0.)) ;
#652=CARTESIAN_POINT('Vertex',(25.8886855758,35.,-14.1430533888)) ;
#655=CARTESIAN_POINT('Axis2P3D Location',(0.,35.,0.)) ;
#667=CARTESIAN_POINT('Line Origine',(2.5,35.,29.5)) ;
#671=CARTESIAN_POINT('Vertex',(5.,35.,29.5)) ;
#674=CARTESIAN_POINT('Line Origine',(5.,35.,44.5)) ;
#678=CARTESIAN_POINT('Vertex',(5.,35.,59.5)) ;
#681=CARTESIAN_POINT('Line Origine',(2.5,35.,59.5)) ;
#685=CARTESIAN_POINT('Vertex',(3.46222345498E-015,35.,59.5)) ;
#688=CARTESIAN_POINT('Line Origine',(0.,35.,44.5)) ;
#705=CARTESIAN_POINT('Axis2P3D Location',(60.9962175938,35.,-34.351452058)) ;
#709=CARTESIAN_POINT('Vertex',(60.8782346674,35.,-39.3500598671)) ;
#711=CARTESIAN_POINT('Vertex',(61.1142005203,35.,-29.3528442489)) ;
#714=CARTESIAN_POINT('Axis2P3D Location',(60.9962175938,35.,-34.351452058)) ;
#723=CARTESIAN_POINT('Axis2P3D Location',(-60.247338936,35.,-35.648547942)) ;
#727=CARTESIAN_POINT('Vertex',(-64.517268819,35.,-33.047067826)) ;
#729=CARTESIAN_POINT('Vertex',(-55.977409053,35.,-38.2500280581)) ;
#732=CARTESIAN_POINT('Axis2P3D Location',(-60.247338936,35.,-35.648547942)) ;
#742=CARTESIAN_POINT('Axis2P3D Location',(0.,132.25,0.)) ;
#747=CARTESIAN_POINT('Line Origine',(74.5945177607,17.5,-40.7511707814)) ;
#751=CARTESIAN_POINT('Vertex',(74.5945177607,-2.84217094304E-014,-40.7511707814)) ;
#754=CARTESIAN_POINT('Axis2P3D Location',(0.,-2.84217094304E-014,0.)) ;
#758=CARTESIAN_POINT('Vertex',(-74.5945177607,-2.84217094304E-014,40.7511707814)) ;
#761=CARTESIAN_POINT('Line Origine',(-74.5945177607,17.5,40.7511707814)) ;
#773=CARTESIAN_POINT('Axis2P3D Location',(0.,-2.84217094304E-014,0.)) ;
#785=CARTESIAN_POINT('Axis2P3D Location',(-0.748878657818,34.9,70.)) ;
#790=CARTESIAN_POINT('Line Origine',(3.63903415163,132.250000001,72.397127693)) ;
#794=CARTESIAN_POINT('Vertex',(3.63903415163,1.42108547152E-014,72.397127693)) ;
#797=CARTESIAN_POINT('Axis2P3D Location',(-0.748878657818,0.,70.)) ;
#801=CARTESIAN_POINT('Vertex',(-5.13679146727,1.42108547152E-014,67.602872307)) ;
#804=CARTESIAN_POINT('Line Origine',(-5.13679146727,132.250000001,67.602872307)) ;
#816=CARTESIAN_POINT('Axis2P3D Location',(-0.748878657818,0.,70.)) ;
#828=CARTESIAN_POINT('Axis2P3D Location',(0.,132.25,0.)) ;
#833=CARTESIAN_POINT('Axis2P3D Location',(0.,264.5,0.)) ;
#837=CARTESIAN_POINT('Vertex',(25.8886855758,264.5,-14.1430533888)) ;
#839=CARTESIAN_POINT('Vertex',(-25.8886855758,264.5,14.1430533888)) ;
#842=CARTESIAN_POINT('Line Origine',(25.8886855758,149.75,-14.1430533888)) ;
#847=CARTESIAN_POINT('Line Origine',(-25.8886855758,149.75,14.1430533888)) ;
#860=CARTESIAN_POINT('Axis2P3D Location',(60.9962175938,34.9,-34.351452058)) ;
#865=CARTESIAN_POINT('Line Origine',(61.1142005203,132.250000001,-29.3528442489)) ;
#869=CARTESIAN_POINT('Vertex',(61.1142005203,0.,-29.3528442489)) ;
#872=CARTESIAN_POINT('Axis2P3D Location',(60.9962175938,-1.42108547152E-014,-34.351452058)) ;
#876=CARTESIAN_POINT('Vertex',(60.8782346674,0.,-39.3500598671)) ;
#879=CARTESIAN_POINT('Line Origine',(60.8782346674,132.250000001,-39.3500598671)) ;
#891=CARTESIAN_POINT('Axis2P3D Location',(60.9962175938,-1.42108547152E-014,-34.351452058)) ;
#903=CARTESIAN_POINT('Axis2P3D Location',(-60.247338936,34.9,-35.648547942)) ;
#908=CARTESIAN_POINT('Line Origine',(-55.977409053,132.250000001,-38.2500280581)) ;
#912=CARTESIAN_POINT('Vertex',(-55.977409053,0.,-38.2500280581)) ;
#915=CARTESIAN_POINT('Axis2P3D Location',(-60.247338936,0.,-35.648547942)) ;
#919=CARTESIAN_POINT('Vertex',(-64.517268819,0.,-33.047067826)) ;
#922=CARTESIAN_POINT('Line Origine',(-64.517268819,132.250000001,-33.047067826)) ;
#934=CARTESIAN_POINT('Axis2P3D Location',(-60.247338936,0.,-35.648547942)) ;
#946=CARTESIAN_POINT('Axis2P3D Location',(0.,0.,0.)) ;
#968=CARTESIAN_POINT('Axis2P3D Location',(0.,264.4,0.)) ;
#973=CARTESIAN_POINT('Axis2P3D Location',(0.,264.5,0.)) ;
#977=CARTESIAN_POINT('Vertex',(-8.7758256189,264.5,-4.79425538604)) ;
#979=CARTESIAN_POINT('Vertex',(8.7758256189,264.5,4.79425538604)) ;
#982=CARTESIAN_POINT('Line Origine',(8.7758256189,249.655000001,4.79425538604)) ;
#986=CARTESIAN_POINT('Vertex',(8.7758256189,234.5,4.79425538604)) ;
#989=CARTESIAN_POINT('Axis2P3D Location',(0.,234.5,0.)) ;
#993=CARTESIAN_POINT('Vertex',(-8.7758256189,234.5,-4.79425538604)) ;
#996=CARTESIAN_POINT('Line Origine',(-8.7758256189,249.655000001,-4.79425538604)) ;
#1008=CARTESIAN_POINT('Axis2P3D Location',(0.,264.5,0.)) ;
#1013=CARTESIAN_POINT('Axis2P3D Location',(0.,234.5,0.)) ;
#1025=CARTESIAN_POINT('Axis2P3D Location',(0.,234.5,0.)) ;
#1035=CARTESIAN_POINT('Axis2P3D Location',(29.5,75.,4.50076716348E-015)) ;
#1040=CARTESIAN_POINT('Line Origine',(29.5,75.,-2.5)) ;
#1044=CARTESIAN_POINT('Vertex',(29.5,75.,-3.49283861382E-015)) ;
#1046=CARTESIAN_POINT('Vertex',(29.5,75.,-5.)) ;
#1049=CARTESIAN_POINT('Line Origine',(44.5,55.,6.33767669421E-015)) ;
#1054=CARTESIAN_POINT('Line Origine',(44.5,55.,-5.)) ;
#1066=CARTESIAN_POINT('Axis2P3D Location',(29.5,75.,4.50076716348E-015)) ;
#1071=CARTESIAN_POINT('Line Origine',(29.5,55.,4.50076716348E-015)) ;
#1076=CARTESIAN_POINT('Line Origine',(29.5,55.,-5.)) ;
#1094=CARTESIAN_POINT('Axis2P3D Location',(6.12303176911E-016,0.,-5.)) ;
#1105=CARTESIAN_POINT('Axis2P3D Location',(0.,264.5,0.)) ;
#1110=CARTESIAN_POINT('Axis2P3D Location',(0.,264.5,0.)) ;
#1114=CARTESIAN_POINT('Vertex',(29.5,264.5,7.22517748755E-015)) ;
#1117=CARTESIAN_POINT('Axis2P3D Location',(0.,264.5,0.)) ;
#1144=CARTESIAN_POINT('Axis2P3D Location',(-1.68654424194E-015,75.,-29.5)) ;
#1149=CARTESIAN_POINT('Line Origine',(-2.5,75.,-29.5)) ;
#1153=CARTESIAN_POINT('Vertex',(-1.68654424194E-015,75.,-29.5)) ;
#1155=CARTESIAN_POINT('Vertex',(-5.,75.,-29.5)) ;
#1158=CARTESIAN_POINT('Line Origine',(3.61258874378E-015,169.75,-29.5)) ;
#1162=CARTESIAN_POINT('Vertex',(3.61258874378E-015,264.5,-29.5)) ;
#1165=CARTESIAN_POINT('Line Origine',(-2.5,264.5,-29.5)) ;
#1169=CARTESIAN_POINT('Vertex',(-5.,264.5,-29.5)) ;
#1172=CARTESIAN_POINT('Line Origine',(-5.,169.75,-29.5)) ;
#1184=CARTESIAN_POINT('Line Origine',(0.,264.5,-30.)) ;
#1188=CARTESIAN_POINT('Vertex',(8.97295204718E-015,264.5,-30.5)) ;
#1191=CARTESIAN_POINT('Line Origine',(-2.5,264.5,-30.5)) ;
#1195=CARTESIAN_POINT('Vertex',(-5.,264.5,-30.5)) ;
#1198=CARTESIAN_POINT('Line Origine',(-5.,264.5,-30.)) ;
#1210=CARTESIAN_POINT('Axis2P3D Location',(-5.,0.,-8.02388212297E-015)) ;
#1215=CARTESIAN_POINT('Line Origine',(-5.,169.75,-30.5)) ;
#1220=CARTESIAN_POINT('Line Origine',(-5.,75.,-29.75)) ;
#1233=CARTESIAN_POINT('Line Origine',(8.92702930891E-015,75.,-29.75)) ;
#1238=CARTESIAN_POINT('Line Origine',(8.97295204718E-015,169.75,-30.5)) ;
#1251=CARTESIAN_POINT('Axis2P3D Location',(3.73504937916E-015,264.5,-30.5)) ;
#1270=CARTESIAN_POINT('Line Origine',(5.29913298571E-015,55.,29.5)) ;
#1274=CARTESIAN_POINT('Vertex',(5.29913298571E-015,75.,29.5)) ;
#1277=CARTESIAN_POINT('Line Origine',(4.38067822035E-015,55.,44.5)) ;
#1288=CARTESIAN_POINT('Axis2P3D Location',(5.29913298571E-015,75.,29.5)) ;
#1293=CARTESIAN_POINT('Line Origine',(2.5,75.,29.5)) ;
#1297=CARTESIAN_POINT('Vertex',(5.,75.,29.5)) ;
#1300=CARTESIAN_POINT('Line Origine',(5.,55.,44.5)) ;
#1312=CARTESIAN_POINT('Line Origine',(5.,55.,29.5)) ;
#1332=CARTESIAN_POINT('Line Origine',(29.5,264.5,-2.5)) ;
#1336=CARTESIAN_POINT('Vertex',(29.5,264.5,1.80629437189E-015)) ;
#1338=CARTESIAN_POINT('Vertex',(29.5,264.5,-5.)) ;
#1341=CARTESIAN_POINT('Line Origine',(30.,264.5,3.5527136788E-015)) ;
#1345=CARTESIAN_POINT('Vertex',(30.5,264.5,-3.37037797844E-015)) ;
#1348=CARTESIAN_POINT('Line Origine',(30.5,264.5,-2.5)) ;
#1352=CARTESIAN_POINT('Vertex',(30.5,264.5,-5.)) ;
#1355=CARTESIAN_POINT('Line Origine',(30.,264.5,-5.)) ;
#1367=CARTESIAN_POINT('Axis2P3D Location',(30.5,264.5,1.86752468958E-015)) ;
#1372=CARTESIAN_POINT('Line Origine',(30.5,169.75,1.86752468958E-015)) ;
#1376=CARTESIAN_POINT('Vertex',(30.5,75.,-3.37037797844E-015)) ;
#1379=CARTESIAN_POINT('Line Origine',(30.5,75.,-2.5)) ;
#1383=CARTESIAN_POINT('Vertex',(30.5,75.,-5.)) ;
#1386=CARTESIAN_POINT('Line Origine',(30.5,169.75,-5.)) ;
#1398=CARTESIAN_POINT('Axis2P3D Location',(1.06581410364E-014,0.,-7.1054273576E-015)) ;
#1403=CARTESIAN_POINT('Line Origine',(30.,75.,-3.43160829613E-015)) ;
#1407=CARTESIAN_POINT('Vertex',(29.5,75.,-3.49283861382E-015)) ;
#1410=CARTESIAN_POINT('Line Origine',(29.5,169.75,-3.49283861382E-015)) ;
#1422=CARTESIAN_POINT('Axis2P3D Location',(29.5,75.,-3.49283861382E-015)) ;
#1427=CARTESIAN_POINT('Line Origine',(29.5,75.,-2.5)) ;
#1431=CARTESIAN_POINT('Vertex',(29.5,75.,-5.)) ;
#1434=CARTESIAN_POINT('Line Origine',(29.5,169.75,-5.)) ;
#1446=CARTESIAN_POINT('Line Origine',(30.,75.,-5.)) ;
#1458=CARTESIAN_POINT('Axis2P3D Location',(1.12704442133E-014,0.,-5.)) ;
#1472=CARTESIAN_POINT('Line Origine',(-29.5,264.5,2.5)) ;
#1476=CARTESIAN_POINT('Vertex',(-29.5,264.5,-1.86616943686E-015)) ;
#1478=CARTESIAN_POINT('Vertex',(-29.5,264.5,5.)) ;
#1481=CARTESIAN_POINT('Line Origine',(-30.,264.5,-3.5527136788E-015)) ;
#1485=CARTESIAN_POINT('Vertex',(-30.5,264.5,3.18804227809E-015)) ;
#1488=CARTESIAN_POINT('Line Origine',(-30.5,264.5,2.5)) ;
#1492=CARTESIAN_POINT('Vertex',(-30.5,264.5,5.)) ;
#1495=CARTESIAN_POINT('Line Origine',(-30.,264.5,5.)) ;
#1507=CARTESIAN_POINT('Axis2P3D Location',(-30.5,264.5,-2.04986038994E-015)) ;
#1512=CARTESIAN_POINT('Line Origine',(-30.5,169.75,-2.04986038994E-015)) ;
#1516=CARTESIAN_POINT('Vertex',(-30.5,75.,3.18804227809E-015)) ;
#1519=CARTESIAN_POINT('Line Origine',(-30.5,75.,2.5)) ;
#1523=CARTESIAN_POINT('Vertex',(-30.5,75.,5.)) ;
#1526=CARTESIAN_POINT('Line Origine',(-30.5,169.75,5.)) ;
#1538=CARTESIAN_POINT('Axis2P3D Location',(-1.42108547152E-014,0.,1.06581410364E-014)) ;
#1543=CARTESIAN_POINT('Line Origine',(-30.,75.,3.31050291347E-015)) ;
#1547=CARTESIAN_POINT('Vertex',(-29.5,75.,3.43296354885E-015)) ;
#1550=CARTESIAN_POINT('Line Origine',(-29.5,169.75,3.43296354885E-015)) ;
#1562=CARTESIAN_POINT('Axis2P3D Location',(-29.5,75.,3.43296354885E-015)) ;
#1567=CARTESIAN_POINT('Line Origine',(-29.5,75.,2.5)) ;
#1571=CARTESIAN_POINT('Vertex',(-29.5,75.,5.)) ;
#1574=CARTESIAN_POINT('Line Origine',(-29.5,169.75,5.)) ;
#1586=CARTESIAN_POINT('Line Origine',(-30.,75.,5.)) ;
#1598=CARTESIAN_POINT('Axis2P3D Location',(-1.5435461069E-014,0.,5.)) ;
#1611=CARTESIAN_POINT('Line Origine',(-14.75,264.5,0.)) ;
#1615=CARTESIAN_POINT('Limit',(0.,264.5,0.)) ;
#1616=CARTESIAN_POINT('Limit',(-29.5,264.5,0.)) ;
#1619=CARTESIAN_POINT('Line Origine',(-29.5,149.75,0.)) ;
#1623=CARTESIAN_POINT('Limit',(-29.5,264.5,0.)) ;
#1624=CARTESIAN_POINT('Limit',(-29.5,35.,0.)) ;
#1627=CARTESIAN_POINT('Line Origine',(-57.25,35.,0.)) ;
#1631=CARTESIAN_POINT('Limit',(-29.5,35.,0.)) ;
#1632=CARTESIAN_POINT('Limit',(-85.,35.,0.)) ;
#1635=CARTESIAN_POINT('Line Origine',(-85.,17.5,0.)) ;
#1639=CARTESIAN_POINT('Limit',(-85.,35.,0.)) ;
#1640=CARTESIAN_POINT('Limit',(-85.,-2.01884433811E-014,0.)) ;
#1643=CARTESIAN_POINT('Line Origine',(-42.5,0.,0.)) ;
#1647=CARTESIAN_POINT('Limit',(-85.,-2.01884433811E-014,0.)) ;
#1648=CARTESIAN_POINT('Limit',(0.,0.,0.)) ;
#1655=CARTESIAN_POINT('Sketch.5',(0.,264.5,0.)) ;
#1656=CARTESIAN_POINT('Axis2P3D Location',(0.,75.,-50.)) ;
#1660=CARTESIAN_POINT('Limit',(-14.1421356237,75.,-50.)) ;
#1661=CARTESIAN_POINT('Limit',(14.1421356237,75.,-50.)) ;
#1664=CARTESIAN_POINT('Axis2P3D Location',(0.,75.,-50.)) ;
#1668=CARTESIAN_POINT('Limit',(14.1421356237,75.,-50.)) ;
#1669=CARTESIAN_POINT('Limit',(-14.1421356237,75.,-50.)) ;
#1673=CARTESIAN_POINT('Line Origine',(-44.5,55.,0.)) ;
#1677=CARTESIAN_POINT('Limit',(-29.5,75.,0.)) ;
#1678=CARTESIAN_POINT('Limit',(-59.5,35.,0.)) ;
#1681=CARTESIAN_POINT('Line Origine',(-44.5,35.,0.)) ;
#1685=CARTESIAN_POINT('Limit',(-59.5,35.,0.)) ;
#1686=CARTESIAN_POINT('Limit',(-29.5,35.,0.)) ;
#1689=CARTESIAN_POINT('Line Origine',(-29.5,55.,0.)) ;
#1693=CARTESIAN_POINT('Limit',(-29.5,35.,0.)) ;
#1694=CARTESIAN_POINT('Limit',(-29.5,75.,0.)) ;
#1698=CARTESIAN_POINT('Line Origine',(0.,169.75,29.5)) ;
#1702=CARTESIAN_POINT('Limit',(0.,75.,29.5)) ;
#1703=CARTESIAN_POINT('Limit',(0.,264.5,29.5)) ;
#1706=CARTESIAN_POINT('Line Origine',(0.,264.5,30.)) ;
#1710=CARTESIAN_POINT('Limit',(0.,264.5,29.5)) ;
#1711=CARTESIAN_POINT('Limit',(0.,264.5,30.5)) ;
#1714=CARTESIAN_POINT('Line Origine',(0.,169.75,30.5)) ;
#1718=CARTESIAN_POINT('Limit',(0.,264.5,30.5)) ;
#1719=CARTESIAN_POINT('Limit',(0.,75.,30.5)) ;
#1722=CARTESIAN_POINT('Line Origine',(0.,75.,30.)) ;
#1726=CARTESIAN_POINT('Limit',(0.,75.,30.5)) ;
#1727=CARTESIAN_POINT('Limit',(0.,75.,29.5)) ;
#53=DIRECTION('Axis2P3D Direction',(-6.12303176911E-017,0.,1.)) ;
#54=DIRECTION('Axis2P3D XDirection',(0.,-1.,0.)) ;
#58=DIRECTION('Vector Direction',(1.,0.,0.)) ;
#67=DIRECTION('Vector Direction',(0.,-1.,0.)) ;
#74=DIRECTION('Vector Direction',(1.,0.,0.)) ;
#81=DIRECTION('Vector Direction',(0.,1.,0.)) ;
#93=DIRECTION('Axis2P3D Direction',(0.,1.,0.)) ;
#94=DIRECTION('Axis2P3D XDirection',(1.,-0.,0.)) ;
#98=DIRECTION('Vector Direction',(0.,0.,1.)) ;
#105=DIRECTION('Vector Direction',(1.,0.,0.)) ;
#112=DIRECTION('Vector Direction',(0.,0.,1.)) ;
#124=DIRECTION('Axis2P3D Direction',(-0.,0.,1.)) ;
#125=DIRECTION('Axis2P3D XDirection',(0.,-1.,0.)) ;
#129=DIRECTION('Vector Direction',(0.,-1.,0.)) ;
#136=DIRECTION('Vector Direction',(1.,0.,0.)) ;
#143=DIRECTION('Vector Direction',(0.,-1.,0.)) ;
#155=DIRECTION('Axis2P3D Direction',(0.,1.,0.)) ;
#156=DIRECTION('Axis2P3D XDirection',(-1.,0.,-0.)) ;
#160=DIRECTION('Vector Direction',(0.,0.,-1.)) ;
#165=DIRECTION('Vector Direction',(0.,0.,-1.)) ;
#177=DIRECTION('Axis2P3D Direction',(1.,-0.,6.12303176911E-017)) ;
#178=DIRECTION('Axis2P3D XDirection',(6.12303176911E-017,0.,-1.)) ;
#189=DIRECTION('Axis2P3D Direction',(1.,-0.,6.12303176911E-017)) ;
#190=DIRECTION('Axis2P3D XDirection',(6.12303176911E-017,0.,-1.)) ;
#205=DIRECTION('Axis2P3D Direction',(-0.8,0.6,0.)) ;
#206=DIRECTION('Axis2P3D XDirection',(-0.6,-0.8,-0.)) ;
#210=DIRECTION('Vector Direction',(0.,0.,1.)) ;
#219=DIRECTION('Vector Direction',(-0.6,-0.8,0.)) ;
#226=DIRECTION('Vector Direction',(0.,0.,1.)) ;
#233=DIRECTION('Vector Direction',(-0.6,-0.8,0.)) ;
#245=DIRECTION('Axis2P3D Direction',(-1.,0.,0.)) ;
#246=DIRECTION('Axis2P3D XDirection',(0.,-1.,0.)) ;
#250=DIRECTION('Vector Direction',(0.,0.,1.)) ;
#259=DIRECTION('Vector Direction',(0.,-1.,0.)) ;
#264=DIRECTION('Vector Direction',(0.,-1.,0.)) ;
#276=DIRECTION('Axis2P3D Direction',(0.,0.,1.)) ;
#277=DIRECTION('Axis2P3D XDirection',(1.,0.,0.)) ;
#281=DIRECTION('Vector Direction',(-1.,0.,0.)) ;
#292=DIRECTION('Axis2P3D Direction',(0.,0.,1.)) ;
#293=DIRECTION('Axis2P3D XDirection',(1.,0.,0.)) ;
#297=DIRECTION('Vector Direction',(-1.,0.,0.)) ;
#308=DIRECTION('Axis2P3D Direction',(0.,1.,0.)) ;
#309=DIRECTION('Axis2P3D XDirection',(-1.,0.,0.)) ;
#313=DIRECTION('Vector Direction',(0.,1.,0.)) ;
#322=DIRECTION('Axis2P3D Direction',(0.,1.,0.)) ;
#329=DIRECTION('Vector Direction',(0.,1.,0.)) ;
#336=DIRECTION('Axis2P3D Direction',(0.,1.,0.)) ;
#348=DIRECTION('Axis2P3D Direction',(0.,1.,0.)) ;
#353=DIRECTION('Axis2P3D Direction',(0.,1.,0.)) ;
#365=DIRECTION('Vector Direction',(-1.,0.,0.)) ;
#374=DIRECTION('Vector Direction',(0.,0.,1.)) ;
#381=DIRECTION('Vector Direction',(1.,0.,0.)) ;
#388=DIRECTION('Vector Direction',(0.,0.,-1.)) ;
#395=DIRECTION('Vector Direction',(-1.,0.,0.)) ;
#402=DIRECTION('Vector Direction',(0.,0.,1.)) ;
#409=DIRECTION('Vector Direction',(-1.,0.,0.)) ;
#416=DIRECTION('Vector Direction',(0.,0.,-1.)) ;
#436=DIRECTION('Axis2P3D Direction',(0.,1.,0.)) ;
#437=DIRECTION('Axis2P3D XDirection',(-1.,0.,0.)) ;
#446=DIRECTION('Axis2P3D Direction',(-1.,0.,-0.)) ;
#447=DIRECTION('Axis2P3D XDirection',(-0.,0.,1.)) ;
#451=DIRECTION('Vector Direction',(0.,1.,0.)) ;
#458=DIRECTION('Vector Direction',(0.,0.,1.)) ;
#465=DIRECTION('Vector Direction',(0.,1.,0.)) ;
#477=DIRECTION('Axis2P3D Direction',(0.,0.,1.)) ;
#478=DIRECTION('Axis2P3D XDirection',(1.,0.,0.)) ;
#482=DIRECTION('Vector Direction',(1.,0.,0.)) ;
#489=DIRECTION('Vector Direction',(0.,1.,0.)) ;
#501=DIRECTION('Axis2P3D Direction',(1.,-0.,0.)) ;
#502=DIRECTION('Axis2P3D XDirection',(0.,0.,-1.)) ;
#506=DIRECTION('Vector Direction',(0.,0.,-1.)) ;
#513=DIRECTION('Vector Direction',(0.,1.,0.)) ;
#525=DIRECTION('Axis2P3D Direction',(0.,0.,-1.)) ;
#526=DIRECTION('Axis2P3D XDirection',(-1.,0.,0.)) ;
#530=DIRECTION('Vector Direction',(-1.,0.,0.)) ;
#535=DIRECTION('Vector Direction',(-1.,0.,0.)) ;
#549=DIRECTION('Axis2P3D Direction',(0.,1.,0.)) ;
#550=DIRECTION('Axis2P3D XDirection',(1.,-0.,0.)) ;
#554=DIRECTION('Axis2P3D Direction',(0.,1.,0.)) ;
#563=DIRECTION('Axis2P3D Direction',(0.,1.,0.)) ;
#578=DIRECTION('Axis2P3D Direction',(0.,1.,0.)) ;
#587=DIRECTION('Axis2P3D Direction',(0.,1.,0.)) ;
#596=DIRECTION('Vector Direction',(0.,0.,-1.)) ;
#605=DIRECTION('Vector Direction',(1.,0.,1.18423789293E-016)) ;
#612=DIRECTION('Vector Direction',(0.,0.,-1.)) ;
#619=DIRECTION('Vector Direction',(-1.,0.,0.)) ;
#630=DIRECTION('Axis2P3D Direction',(0.,1.,0.)) ;
#637=DIRECTION('Axis2P3D Direction',(0.,1.,0.)) ;
#644=DIRECTION('Axis2P3D Direction',(0.,1.,0.)) ;
#649=DIRECTION('Axis2P3D Direction',(0.,1.,0.)) ;
#656=DIRECTION('Axis2P3D Direction',(0.,1.,0.)) ;
#668=DIRECTION('Vector Direction',(1.,0.,0.)) ;
#675=DIRECTION('Vector Direction',(0.,0.,1.)) ;
#682=DIRECTION('Vector Direction',(1.,0.,0.)) ;
#689=DIRECTION('Vector Direction',(0.,0.,1.)) ;
#706=DIRECTION('Axis2P3D Direction',(0.,1.,0.)) ;
#715=DIRECTION('Axis2P3D Direction',(0.,1.,0.)) ;
#724=DIRECTION('Axis2P3D Direction',(0.,1.,0.)) ;
#733=DIRECTION('Axis2P3D Direction',(0.,1.,0.)) ;
#743=DIRECTION('Axis2P3D Direction',(0.,1.,0.)) ;
#744=DIRECTION('Axis2P3D XDirection',(-0.87758256189,0.,0.479425538604)) ;
#748=DIRECTION('Vector Direction',(0.,1.,0.)) ;
#755=DIRECTION('Axis2P3D Direction',(0.,1.,0.)) ;
#762=DIRECTION('Vector Direction',(0.,1.,0.)) ;
#774=DIRECTION('Axis2P3D Direction',(0.,1.,0.)) ;
#786=DIRECTION('Axis2P3D Direction',(0.,-1.,-0.)) ;
#787=DIRECTION('Axis2P3D XDirection',(0.87758256189,0.,0.479425538604)) ;
#791=DIRECTION('Vector Direction',(0.,-1.,0.)) ;
#798=DIRECTION('Axis2P3D Direction',(0.,-1.,-0.)) ;
#805=DIRECTION('Vector Direction',(0.,-1.,0.)) ;
#817=DIRECTION('Axis2P3D Direction',(0.,-1.,-0.)) ;
#829=DIRECTION('Axis2P3D Direction',(0.,1.,0.)) ;
#830=DIRECTION('Axis2P3D XDirection',(-0.87758256189,0.,0.479425538604)) ;
#834=DIRECTION('Axis2P3D Direction',(0.,1.,0.)) ;
#843=DIRECTION('Vector Direction',(0.,1.,0.)) ;
#848=DIRECTION('Vector Direction',(0.,1.,0.)) ;
#861=DIRECTION('Axis2P3D Direction',(0.,-1.,-0.)) ;
#862=DIRECTION('Axis2P3D XDirection',(-0.0235965852909,0.,-0.999721561817)) ;
#866=DIRECTION('Vector Direction',(0.,-1.,0.)) ;
#873=DIRECTION('Axis2P3D Direction',(0.,-1.,-0.)) ;
#880=DIRECTION('Vector Direction',(0.,-1.,0.)) ;
#892=DIRECTION('Axis2P3D Direction',(0.,-1.,-0.)) ;
#904=DIRECTION('Axis2P3D Direction',(-0.,-1.,0.)) ;
#905=DIRECTION('Axis2P3D XDirection',(-0.853985976599,0.,0.520296023213)) ;
#909=DIRECTION('Vector Direction',(0.,-1.,0.)) ;
#916=DIRECTION('Axis2P3D Direction',(-0.,-1.,0.)) ;
#923=DIRECTION('Vector Direction',(0.,-1.,0.)) ;
#935=DIRECTION('Axis2P3D Direction',(-0.,-1.,0.)) ;
#947=DIRECTION('Axis2P3D Direction',(0.,1.,0.)) ;
#948=DIRECTION('Axis2P3D XDirection',(1.,-0.,0.)) ;
#969=DIRECTION('Axis2P3D Direction',(0.,-1.,-0.)) ;
#970=DIRECTION('Axis2P3D XDirection',(0.87758256189,0.,0.479425538604)) ;
#974=DIRECTION('Axis2P3D Direction',(0.,-1.,-0.)) ;
#983=DIRECTION('Vector Direction',(0.,-1.,0.)) ;
#990=DIRECTION('Axis2P3D Direction',(0.,-1.,-0.)) ;
#997=DIRECTION('Vector Direction',(0.,-1.,0.)) ;
#1009=DIRECTION('Axis2P3D Direction',(0.,-1.,-0.)) ;
#1014=DIRECTION('Axis2P3D Direction',(0.,-1.,-0.)) ;
#1026=DIRECTION('Axis2P3D Direction',(0.,-1.,-0.)) ;
#1027=DIRECTION('Axis2P3D XDirection',(1.,0.,0.)) ;
#1036=DIRECTION('Axis2P3D Direction',(0.8,0.6,9.79685083058E-017)) ;
#1037=DIRECTION('Axis2P3D XDirection',(0.6,-0.8,7.34763812293E-017)) ;
#1041=DIRECTION('Vector Direction',(0.,0.,-1.)) ;
#1050=DIRECTION('Vector Direction',(0.6,-0.8,7.34763812293E-017)) ;
#1055=DIRECTION('Vector Direction',(0.6,-0.8,7.1054273576E-017)) ;
#1067=DIRECTION('Axis2P3D Direction',(1.,0.,1.22460635382E-016)) ;
#1068=DIRECTION('Axis2P3D XDirection',(0.,-1.,-0.)) ;
#1072=DIRECTION('Vector Direction',(0.,-1.,0.)) ;
#1077=DIRECTION('Vector Direction',(0.,-1.,0.)) ;
#1095=DIRECTION('Axis2P3D Direction',(1.22460635382E-016,0.,-1.)) ;
#1096=DIRECTION('Axis2P3D XDirection',(-1.,0.,-1.22460635382E-016)) ;
#1106=DIRECTION('Axis2P3D Direction',(0.,1.,0.)) ;
#1111=DIRECTION('Axis2P3D Direction',(0.,1.,0.)) ;
#1118=DIRECTION('Axis2P3D Direction',(0.,1.,0.)) ;
#1145=DIRECTION('Axis2P3D Direction',(1.83690953073E-016,0.,-1.)) ;
#1146=DIRECTION('Axis2P3D XDirection',(0.,-1.,-0.)) ;
#1150=DIRECTION('Vector Direction',(-1.,0.,0.)) ;
#1159=DIRECTION('Vector Direction',(0.,-1.,0.)) ;
#1166=DIRECTION('Vector Direction',(-1.,0.,0.)) ;
#1173=DIRECTION('Vector Direction',(0.,1.,0.)) ;
#1185=DIRECTION('Vector Direction',(0.,0.,1.)) ;
#1192=DIRECTION('Vector Direction',(-1.,0.,0.)) ;
#1199=DIRECTION('Vector Direction',(0.,0.,-1.)) ;
#1211=DIRECTION('Axis2P3D Direction',(-1.,0.,-1.83690953073E-016)) ;
#1212=DIRECTION('Axis2P3D XDirection',(-1.83690953073E-016,0.,1.)) ;
#1216=DIRECTION('Vector Direction',(0.,-1.,0.)) ;
#1221=DIRECTION('Vector Direction',(0.,0.,1.)) ;
#1234=DIRECTION('Vector Direction',(6.12303176911E-017,0.,-1.)) ;
#1239=DIRECTION('Vector Direction',(0.,-1.,0.)) ;
#1252=DIRECTION('Axis2P3D Direction',(1.22460635382E-016,0.,-1.)) ;
#1253=DIRECTION('Axis2P3D XDirection',(0.,-1.,-0.)) ;
#1271=DIRECTION('Vector Direction',(0.,-1.,0.)) ;
#1278=DIRECTION('Vector Direction',(-3.67381906147E-017,-0.8,0.6)) ;
#1289=DIRECTION('Axis2P3D Direction',(-4.89842541529E-017,0.6,0.8)) ;
#1290=DIRECTION('Axis2P3D XDirection',(-3.67381906147E-017,-0.8,0.6)) ;
#1294=DIRECTION('Vector Direction',(1.,0.,0.)) ;
#1301=DIRECTION('Vector Direction',(-3.5527136788E-017,-0.8,0.6)) ;
#1313=DIRECTION('Vector Direction',(0.,-1.,0.)) ;
#1333=DIRECTION('Vector Direction',(0.,0.,-1.)) ;
#1342=DIRECTION('Vector Direction',(1.,0.,6.12303176911E-017)) ;
#1349=DIRECTION('Vector Direction',(0.,0.,-1.)) ;
#1356=DIRECTION('Vector Direction',(1.,0.,0.)) ;
#1368=DIRECTION('Axis2P3D Direction',(1.,0.,6.12303176911E-017)) ;
#1369=DIRECTION('Axis2P3D XDirection',(0.,-1.,0.)) ;
#1373=DIRECTION('Vector Direction',(0.,-1.,0.)) ;
#1380=DIRECTION('Vector Direction',(0.,0.,-1.)) ;
#1387=DIRECTION('Vector Direction',(0.,-1.,0.)) ;
#1399=DIRECTION('Axis2P3D Direction',(1.22460635382E-016,0.,-1.)) ;
#1400=DIRECTION('Axis2P3D XDirection',(-1.,0.,-1.22460635382E-016)) ;
#1404=DIRECTION('Vector Direction',(-1.,0.,-1.22460635382E-016)) ;
#1411=DIRECTION('Vector Direction',(0.,1.,0.)) ;
#1423=DIRECTION('Axis2P3D Direction',(1.,0.,1.22460635382E-016)) ;
#1424=DIRECTION('Axis2P3D XDirection',(0.,-1.,0.)) ;
#1428=DIRECTION('Vector Direction',(0.,0.,-1.)) ;
#1435=DIRECTION('Vector Direction',(0.,1.,0.)) ;
#1447=DIRECTION('Vector Direction',(-1.,0.,0.)) ;
#1459=DIRECTION('Axis2P3D Direction',(1.22460635382E-016,0.,-1.)) ;
#1460=DIRECTION('Axis2P3D XDirection',(-1.,0.,-1.22460635382E-016)) ;
#1473=DIRECTION('Vector Direction',(0.,0.,1.)) ;
#1482=DIRECTION('Vector Direction',(-1.,0.,-1.83690953073E-016)) ;
#1489=DIRECTION('Vector Direction',(0.,0.,1.)) ;
#1496=DIRECTION('Vector Direction',(-1.,0.,0.)) ;
#1508=DIRECTION('Axis2P3D Direction',(-1.,0.,-1.83690953073E-016)) ;
#1509=DIRECTION('Axis2P3D XDirection',(-0.,-1.,0.)) ;
#1513=DIRECTION('Vector Direction',(0.,-1.,0.)) ;
#1520=DIRECTION('Vector Direction',(0.,0.,1.)) ;
#1527=DIRECTION('Vector Direction',(0.,-1.,0.)) ;
#1539=DIRECTION('Axis2P3D Direction',(-2.44921270764E-016,0.,1.)) ;
#1540=DIRECTION('Axis2P3D XDirection',(1.,0.,2.44921270764E-016)) ;
#1544=DIRECTION('Vector Direction',(1.,0.,2.44921270764E-016)) ;
#1551=DIRECTION('Vector Direction',(0.,1.,0.)) ;
#1563=DIRECTION('Axis2P3D Direction',(-1.,0.,-2.44921270764E-016)) ;
#1564=DIRECTION('Axis2P3D XDirection',(-0.,-1.,0.)) ;
#1568=DIRECTION('Vector Direction',(0.,0.,1.)) ;
#1575=DIRECTION('Vector Direction',(0.,1.,0.)) ;
#1587=DIRECTION('Vector Direction',(1.,0.,0.)) ;
#1599=DIRECTION('Axis2P3D Direction',(-2.44921270764E-016,0.,1.)) ;
#1600=DIRECTION('Axis2P3D XDirection',(1.,0.,2.44921270764E-016)) ;
#1612=DIRECTION('Vector Direction',(1.,0.,0.)) ;
#1620=DIRECTION('Vector Direction',(0.,1.,0.)) ;
#1628=DIRECTION('Vector Direction',(1.,0.,0.)) ;
#1636=DIRECTION('Vector Direction',(0.,1.,0.)) ;
#1644=DIRECTION('Vector Direction',(-1.,0.,0.)) ;
#1657=DIRECTION('Axis2P3D Direction',(0.,1.,0.)) ;
#1665=DIRECTION('Axis2P3D Direction',(0.,1.,0.)) ;
#1674=DIRECTION('Vector Direction',(-0.6,-0.8,0.)) ;
#1682=DIRECTION('Vector Direction',(-1.,0.,0.)) ;
#1690=DIRECTION('Vector Direction',(0.,-1.,0.)) ;
#1699=DIRECTION('Vector Direction',(0.,1.,0.)) ;
#1707=DIRECTION('Vector Direction',(0.,0.,1.)) ;
#1715=DIRECTION('Vector Direction',(0.,-1.,0.)) ;
#1723=DIRECTION('Vector Direction',(0.,0.,-1.)) ;
#48=AXIS2_PLACEMENT_3D(' ',#47,$,$) ;
#55=AXIS2_PLACEMENT_3D('Plane Axis2P3D',#52,#53,#54) ;
#95=AXIS2_PLACEMENT_3D('Plane Axis2P3D',#92,#93,#94) ;
#126=AXIS2_PLACEMENT_3D('Plane Axis2P3D',#123,#124,#125) ;
#157=AXIS2_PLACEMENT_3D('Plane Axis2P3D',#154,#155,#156) ;
#179=AXIS2_PLACEMENT_3D('Plane Axis2P3D',#176,#177,#178) ;
#191=AXIS2_PLACEMENT_3D('Plane Axis2P3D',#188,#189,#190) ;
#207=AXIS2_PLACEMENT_3D('Plane Axis2P3D',#204,#205,#206) ;
#247=AXIS2_PLACEMENT_3D('Plane Axis2P3D',#244,#245,#246) ;
#278=AXIS2_PLACEMENT_3D('Plane Axis2P3D',#275,#276,#277) ;
#294=AXIS2_PLACEMENT_3D('Plane Axis2P3D',#291,#292,#293) ;
#310=AXIS2_PLACEMENT_3D('Cylinder Axis2P3D',#307,#308,#309) ;
#323=AXIS2_PLACEMENT_3D('Circle Axis2P3D',#321,#322,$) ;
#337=AXIS2_PLACEMENT_3D('Circle Axis2P3D',#335,#336,$) ;
#349=AXIS2_PLACEMENT_3D('Circle Axis2P3D',#347,#348,$) ;
#354=AXIS2_PLACEMENT_3D('Circle Axis2P3D',#352,#353,$) ;
#438=AXIS2_PLACEMENT_3D('Plane Axis2P3D',#435,#436,#437) ;
#448=AXIS2_PLACEMENT_3D('Plane Axis2P3D',#445,#446,#447) ;
#479=AXIS2_PLACEMENT_3D('Plane Axis2P3D',#476,#477,#478) ;
#503=AXIS2_PLACEMENT_3D('Plane Axis2P3D',#500,#501,#502) ;
#527=AXIS2_PLACEMENT_3D('Plane Axis2P3D',#524,#525,#526) ;
#551=AXIS2_PLACEMENT_3D('Plane Axis2P3D',#548,#549,#550) ;
#555=AXIS2_PLACEMENT_3D('Circle Axis2P3D',#553,#554,$) ;
#564=AXIS2_PLACEMENT_3D('Circle Axis2P3D',#562,#563,$) ;
#579=AXIS2_PLACEMENT_3D('Circle Axis2P3D',#577,#578,$) ;
#588=AXIS2_PLACEMENT_3D('Circle Axis2P3D',#586,#587,$) ;
#631=AXIS2_PLACEMENT_3D('Circle Axis2P3D',#629,#630,$) ;
#638=AXIS2_PLACEMENT_3D('Circle Axis2P3D',#636,#637,$) ;
#645=AXIS2_PLACEMENT_3D('Circle Axis2P3D',#643,#644,$) ;
#650=AXIS2_PLACEMENT_3D('Circle Axis2P3D',#648,#649,$) ;
#657=AXIS2_PLACEMENT_3D('Circle Axis2P3D',#655,#656,$) ;
#707=AXIS2_PLACEMENT_3D('Circle Axis2P3D',#705,#706,$) ;
#716=AXIS2_PLACEMENT_3D('Circle Axis2P3D',#714,#715,$) ;
#725=AXIS2_PLACEMENT_3D('Circle Axis2P3D',#723,#724,$) ;
#734=AXIS2_PLACEMENT_3D('Circle Axis2P3D',#732,#733,$) ;
#745=AXIS2_PLACEMENT_3D('Cylinder Axis2P3D',#742,#743,#744) ;
#756=AXIS2_PLACEMENT_3D('Circle Axis2P3D',#754,#755,$) ;
#775=AXIS2_PLACEMENT_3D('Circle Axis2P3D',#773,#774,$) ;
#788=AXIS2_PLACEMENT_3D('Cylinder Axis2P3D',#785,#786,#787) ;
#799=AXIS2_PLACEMENT_3D('Circle Axis2P3D',#797,#798,$) ;
#818=AXIS2_PLACEMENT_3D('Circle Axis2P3D',#816,#817,$) ;
#831=AXIS2_PLACEMENT_3D('Cylinder Axis2P3D',#828,#829,#830) ;
#835=AXIS2_PLACEMENT_3D('Circle Axis2P3D',#833,#834,$) ;
#863=AXIS2_PLACEMENT_3D('Cylinder Axis2P3D',#860,#861,#862) ;
#874=AXIS2_PLACEMENT_3D('Circle Axis2P3D',#872,#873,$) ;
#893=AXIS2_PLACEMENT_3D('Circle Axis2P3D',#891,#892,$) ;
#906=AXIS2_PLACEMENT_3D('Cylinder Axis2P3D',#903,#904,#905) ;
#917=AXIS2_PLACEMENT_3D('Circle Axis2P3D',#915,#916,$) ;
#936=AXIS2_PLACEMENT_3D('Circle Axis2P3D',#934,#935,$) ;
#949=AXIS2_PLACEMENT_3D('Plane Axis2P3D',#946,#947,#948) ;
#971=AXIS2_PLACEMENT_3D('Cylinder Axis2P3D',#968,#969,#970) ;
#975=AXIS2_PLACEMENT_3D('Circle Axis2P3D',#973,#974,$) ;
#991=AXIS2_PLACEMENT_3D('Circle Axis2P3D',#989,#990,$) ;
#1010=AXIS2_PLACEMENT_3D('Circle Axis2P3D',#1008,#1009,$) ;
#1015=AXIS2_PLACEMENT_3D('Circle Axis2P3D',#1013,#1014,$) ;
#1028=AXIS2_PLACEMENT_3D('Plane Axis2P3D',#1025,#1026,#1027) ;
#1038=AXIS2_PLACEMENT_3D('Plane Axis2P3D',#1035,#1036,#1037) ;
#1069=AXIS2_PLACEMENT_3D('Plane Axis2P3D',#1066,#1067,#1068) ;
#1097=AXIS2_PLACEMENT_3D('Plane Axis2P3D',#1094,#1095,#1096) ;
#1107=AXIS2_PLACEMENT_3D('Circle Axis2P3D',#1105,#1106,$) ;
#1112=AXIS2_PLACEMENT_3D('Circle Axis2P3D',#1110,#1111,$) ;
#1119=AXIS2_PLACEMENT_3D('Circle Axis2P3D',#1117,#1118,$) ;
#1147=AXIS2_PLACEMENT_3D('Plane Axis2P3D',#1144,#1145,#1146) ;
#1213=AXIS2_PLACEMENT_3D('Plane Axis2P3D',#1210,#1211,#1212) ;
#1254=AXIS2_PLACEMENT_3D('Plane Axis2P3D',#1251,#1252,#1253) ;
#1291=AXIS2_PLACEMENT_3D('Plane Axis2P3D',#1288,#1289,#1290) ;
#1370=AXIS2_PLACEMENT_3D('Plane Axis2P3D',#1367,#1368,#1369) ;
#1401=AXIS2_PLACEMENT_3D('Plane Axis2P3D',#1398,#1399,#1400) ;
#1425=AXIS2_PLACEMENT_3D('Plane Axis2P3D',#1422,#1423,#1424) ;
#1461=AXIS2_PLACEMENT_3D('Plane Axis2P3D',#1458,#1459,#1460) ;
#1510=AXIS2_PLACEMENT_3D('Plane Axis2P3D',#1507,#1508,#1509) ;
#1541=AXIS2_PLACEMENT_3D('Plane Axis2P3D',#1538,#1539,#1540) ;
#1565=AXIS2_PLACEMENT_3D('Plane Axis2P3D',#1562,#1563,#1564) ;
#1601=AXIS2_PLACEMENT_3D('Plane Axis2P3D',#1598,#1599,#1600) ;
#1658=AXIS2_PLACEMENT_3D('Circle Axis2P3D',#1656,#1657,$) ;
#1666=AXIS2_PLACEMENT_3D('Circle Axis2P3D',#1664,#1665,$) ;
#40=PRODUCT_DEFINITION_SHAPE(' ',' ',#14) ;
#1651=COMPOSITE_CURVE('Sketch.3',(#1618,#1626,#1634,#1642,#1650),.U.) ;
#1672=COMPOSITE_CURVE('Sketch.11',(#1663,#1671),.U.) ;
#1697=COMPOSITE_CURVE('Sketch.14',(#1680,#1688,#1696),.U.) ;
#1730=COMPOSITE_CURVE('Sketch.15',(#1705,#1713,#1721,#1729),.U.) ;
#1618=COMPOSITE_CURVE_SEGMENT(.CONTINUOUS.,.T.,#1617) ;
#1626=COMPOSITE_CURVE_SEGMENT(.CONTINUOUS.,.T.,#1625) ;
#1634=COMPOSITE_CURVE_SEGMENT(.CONTINUOUS.,.T.,#1633) ;
#1642=COMPOSITE_CURVE_SEGMENT(.CONTINUOUS.,.T.,#1641) ;
#1650=COMPOSITE_CURVE_SEGMENT(.DISCONTINUOUS.,.T.,#1649) ;
#1663=COMPOSITE_CURVE_SEGMENT(.CONTINUOUS.,.T.,#1662) ;
#1671=COMPOSITE_CURVE_SEGMENT(.DISCONTINUOUS.,.T.,#1670) ;
#1680=COMPOSITE_CURVE_SEGMENT(.CONTINUOUS.,.T.,#1679) ;
#1688=COMPOSITE_CURVE_SEGMENT(.CONTINUOUS.,.T.,#1687) ;
#1696=COMPOSITE_CURVE_SEGMENT(.DISCONTINUOUS.,.T.,#1695) ;
#1705=COMPOSITE_CURVE_SEGMENT(.CONTINUOUS.,.T.,#1704) ;
#1713=COMPOSITE_CURVE_SEGMENT(.CONTINUOUS.,.T.,#1712) ;
#1721=COMPOSITE_CURVE_SEGMENT(.CONTINUOUS.,.T.,#1720) ;
#1729=COMPOSITE_CURVE_SEGMENT(.DISCONTINUOUS.,.T.,#1728) ;
#31=APPROVAL_PERSON_ORGANIZATION(#25,#21,#19) ;
#25=PERSON_AND_ORGANIZATION(#22,#23) ;
#22=PERSON(' ',' ',' ',$,$,$) ;
#23=ORGANIZATION(' ',' ',' ') ;
#21=APPROVAL(#20,' ') ;
#20=APPROVAL_STATUS('not_yet_approved') ;
#19=APPROVAL_ROLE('APPROVER') ;
#13=DATE_AND_TIME(#11,#12) ;
#12=LOCAL_TIME(13,5,43.,#10) ;
#10=COORDINATED_UNIVERSAL_TIME_OFFSET(0,0,.AHEAD.) ;
#86=ORIENTED_EDGE('',*,*,#65,.F.) ;
#87=ORIENTED_EDGE('',*,*,#72,.T.) ;
#88=ORIENTED_EDGE('',*,*,#79,.T.) ;
#89=ORIENTED_EDGE('',*,*,#84,.F.) ;
#117=ORIENTED_EDGE('',*,*,#79,.F.) ;
#118=ORIENTED_EDGE('',*,*,#103,.T.) ;
#119=ORIENTED_EDGE('',*,*,#110,.T.) ;
#120=ORIENTED_EDGE('',*,*,#115,.F.) ;
#148=ORIENTED_EDGE('',*,*,#110,.F.) ;
#149=ORIENTED_EDGE('',*,*,#134,.T.) ;
#150=ORIENTED_EDGE('',*,*,#141,.T.) ;
#151=ORIENTED_EDGE('',*,*,#146,.F.) ;
#170=ORIENTED_EDGE('',*,*,#141,.F.) ;
#171=ORIENTED_EDGE('',*,*,#163,.T.) ;
#172=ORIENTED_EDGE('',*,*,#65,.T.) ;
#173=ORIENTED_EDGE('',*,*,#168,.F.) ;
#182=ORIENTED_EDGE('',*,*,#163,.F.) ;
#183=ORIENTED_EDGE('',*,*,#134,.F.) ;
#184=ORIENTED_EDGE('',*,*,#103,.F.) ;
#185=ORIENTED_EDGE('',*,*,#72,.F.) ;
#194=ORIENTED_EDGE('',*,*,#84,.T.) ;
#195=ORIENTED_EDGE('',*,*,#115,.T.) ;
#196=ORIENTED_EDGE('',*,*,#146,.T.) ;
#197=ORIENTED_EDGE('',*,*,#168,.T.) ;
#238=ORIENTED_EDGE('',*,*,#217,.F.) ;
#239=ORIENTED_EDGE('',*,*,#224,.T.) ;
#240=ORIENTED_EDGE('',*,*,#231,.T.) ;
#241=ORIENTED_EDGE('',*,*,#236,.F.) ;
#269=ORIENTED_EDGE('',*,*,#257,.F.) ;
#270=ORIENTED_EDGE('',*,*,#262,.T.) ;
#271=ORIENTED_EDGE('',*,*,#217,.T.) ;
#272=ORIENTED_EDGE('',*,*,#267,.F.) ;
#286=ORIENTED_EDGE('',*,*,#262,.F.) ;
#287=ORIENTED_EDGE('',*,*,#284,.F.) ;
#288=ORIENTED_EDGE('',*,*,#224,.F.) ;
#302=ORIENTED_EDGE('',*,*,#236,.T.) ;
#303=ORIENTED_EDGE('',*,*,#300,.T.) ;
#304=ORIENTED_EDGE('',*,*,#267,.T.) ;
#341=ORIENTED_EDGE('',*,*,#320,.F.) ;
#342=ORIENTED_EDGE('',*,*,#327,.T.) ;
#343=ORIENTED_EDGE('',*,*,#334,.T.) ;
#344=ORIENTED_EDGE('',*,*,#339,.F.) ;
#358=ORIENTED_EDGE('',*,*,#334,.F.) ;
#359=ORIENTED_EDGE('',*,*,#351,.T.) ;
#360=ORIENTED_EDGE('',*,*,#320,.T.) ;
#361=ORIENTED_EDGE('',*,*,#356,.F.) ;
#421=ORIENTED_EDGE('',*,*,#372,.T.) ;
#422=ORIENTED_EDGE('',*,*,#379,.T.) ;
#423=ORIENTED_EDGE('',*,*,#386,.T.) ;
#424=ORIENTED_EDGE('',*,*,#393,.T.) ;
#425=ORIENTED_EDGE('',*,*,#400,.T.) ;
#426=ORIENTED_EDGE('',*,*,#407,.F.) ;
#427=ORIENTED_EDGE('',*,*,#414,.F.) ;
#428=ORIENTED_EDGE('',*,*,#419,.T.) ;
#431=ORIENTED_EDGE('',*,*,#327,.F.) ;
#432=ORIENTED_EDGE('',*,*,#351,.F.) ;
#441=ORIENTED_EDGE('',*,*,#339,.T.) ;
#442=ORIENTED_EDGE('',*,*,#356,.T.) ;
#470=ORIENTED_EDGE('',*,*,#456,.F.) ;
#471=ORIENTED_EDGE('',*,*,#463,.T.) ;
#472=ORIENTED_EDGE('',*,*,#468,.T.) ;
#473=ORIENTED_EDGE('',*,*,#379,.F.) ;
#494=ORIENTED_EDGE('',*,*,#468,.F.) ;
#495=ORIENTED_EDGE('',*,*,#487,.T.) ;
#496=ORIENTED_EDGE('',*,*,#492,.T.) ;
#497=ORIENTED_EDGE('',*,*,#386,.F.) ;
#518=ORIENTED_EDGE('',*,*,#492,.F.) ;
#519=ORIENTED_EDGE('',*,*,#511,.T.) ;
#520=ORIENTED_EDGE('',*,*,#516,.T.) ;
#521=ORIENTED_EDGE('',*,*,#393,.F.) ;
#540=ORIENTED_EDGE('',*,*,#516,.F.) ;
#541=ORIENTED_EDGE('',*,*,#533,.T.) ;
#542=ORIENTED_EDGE('',*,*,#456,.T.) ;
#543=ORIENTED_EDGE('',*,*,#372,.F.) ;
#544=ORIENTED_EDGE('',*,*,#538,.F.) ;
#545=ORIENTED_EDGE('',*,*,#400,.F.) ;
#568=ORIENTED_EDGE('',*,*,#561,.T.) ;
#569=ORIENTED_EDGE('',*,*,#566,.T.) ;
#572=ORIENTED_EDGE('',*,*,#511,.F.) ;
#573=ORIENTED_EDGE('',*,*,#487,.F.) ;
#574=ORIENTED_EDGE('',*,*,#463,.F.) ;
#575=ORIENTED_EDGE('',*,*,#533,.F.) ;
#592=ORIENTED_EDGE('',*,*,#585,.F.) ;
#593=ORIENTED_EDGE('',*,*,#590,.F.) ;
#624=ORIENTED_EDGE('',*,*,#603,.T.) ;
#625=ORIENTED_EDGE('',*,*,#610,.F.) ;
#626=ORIENTED_EDGE('',*,*,#617,.F.) ;
#627=ORIENTED_EDGE('',*,*,#622,.T.) ;
#661=ORIENTED_EDGE('',*,*,#635,.F.) ;
#662=ORIENTED_EDGE('',*,*,#642,.F.) ;
#663=ORIENTED_EDGE('',*,*,#647,.F.) ;
#664=ORIENTED_EDGE('',*,*,#654,.F.) ;
#665=ORIENTED_EDGE('',*,*,#659,.F.) ;
#694=ORIENTED_EDGE('',*,*,#673,.T.) ;
#695=ORIENTED_EDGE('',*,*,#680,.F.) ;
#696=ORIENTED_EDGE('',*,*,#687,.F.) ;
#697=ORIENTED_EDGE('',*,*,#692,.T.) ;
#700=ORIENTED_EDGE('',*,*,#257,.T.) ;
#701=ORIENTED_EDGE('',*,*,#300,.F.) ;
#702=ORIENTED_EDGE('',*,*,#231,.F.) ;
#703=ORIENTED_EDGE('',*,*,#284,.T.) ;
#720=ORIENTED_EDGE('',*,*,#713,.F.) ;
#721=ORIENTED_EDGE('',*,*,#718,.F.) ;
#738=ORIENTED_EDGE('',*,*,#731,.F.) ;
#739=ORIENTED_EDGE('',*,*,#736,.F.) ;
#767=ORIENTED_EDGE('',*,*,#561,.F.) ;
#768=ORIENTED_EDGE('',*,*,#753,.T.) ;
#769=ORIENTED_EDGE('',*,*,#760,.T.) ;
#770=ORIENTED_EDGE('',*,*,#765,.F.) ;
#779=ORIENTED_EDGE('',*,*,#566,.F.) ;
#780=ORIENTED_EDGE('',*,*,#765,.T.) ;
#781=ORIENTED_EDGE('',*,*,#777,.T.) ;
#782=ORIENTED_EDGE('',*,*,#753,.F.) ;
#810=ORIENTED_EDGE('',*,*,#796,.F.) ;
#811=ORIENTED_EDGE('',*,*,#803,.F.) ;
#812=ORIENTED_EDGE('',*,*,#808,.T.) ;
#813=ORIENTED_EDGE('',*,*,#585,.T.) ;
#822=ORIENTED_EDGE('',*,*,#808,.F.) ;
#823=ORIENTED_EDGE('',*,*,#820,.F.) ;
#824=ORIENTED_EDGE('',*,*,#796,.T.) ;
#825=ORIENTED_EDGE('',*,*,#590,.T.) ;
#853=ORIENTED_EDGE('',*,*,#841,.F.) ;
#854=ORIENTED_EDGE('',*,*,#846,.T.) ;
#855=ORIENTED_EDGE('',*,*,#654,.T.) ;
#856=ORIENTED_EDGE('',*,*,#647,.T.) ;
#857=ORIENTED_EDGE('',*,*,#851,.F.) ;
#885=ORIENTED_EDGE('',*,*,#871,.F.) ;
#886=ORIENTED_EDGE('',*,*,#878,.F.) ;
#887=ORIENTED_EDGE('',*,*,#883,.T.) ;
#888=ORIENTED_EDGE('',*,*,#713,.T.) ;
#897=ORIENTED_EDGE('',*,*,#883,.F.) ;
#898=ORIENTED_EDGE('',*,*,#895,.F.) ;
#899=ORIENTED_EDGE('',*,*,#871,.T.) ;
#900=ORIENTED_EDGE('',*,*,#718,.T.) ;
#928=ORIENTED_EDGE('',*,*,#914,.F.) ;
#929=ORIENTED_EDGE('',*,*,#921,.F.) ;
#930=ORIENTED_EDGE('',*,*,#926,.T.) ;
#931=ORIENTED_EDGE('',*,*,#731,.T.) ;
#940=ORIENTED_EDGE('',*,*,#926,.F.) ;
#941=ORIENTED_EDGE('',*,*,#938,.F.) ;
#942=ORIENTED_EDGE('',*,*,#914,.T.) ;
#943=ORIENTED_EDGE('',*,*,#736,.T.) ;
#952=ORIENTED_EDGE('',*,*,#777,.F.) ;
#953=ORIENTED_EDGE('',*,*,#760,.F.) ;
#956=ORIENTED_EDGE('',*,*,#820,.T.) ;
#957=ORIENTED_EDGE('',*,*,#803,.T.) ;
#960=ORIENTED_EDGE('',*,*,#878,.T.) ;
#961=ORIENTED_EDGE('',*,*,#895,.T.) ;
#964=ORIENTED_EDGE('',*,*,#921,.T.) ;
#965=ORIENTED_EDGE('',*,*,#938,.T.) ;
#1002=ORIENTED_EDGE('',*,*,#981,.T.) ;
#1003=ORIENTED_EDGE('',*,*,#988,.F.) ;
#1004=ORIENTED_EDGE('',*,*,#995,.T.) ;
#1005=ORIENTED_EDGE('',*,*,#1000,.T.) ;
#1019=ORIENTED_EDGE('',*,*,#1012,.T.) ;
#1020=ORIENTED_EDGE('',*,*,#1000,.F.) ;
#1021=ORIENTED_EDGE('',*,*,#1017,.T.) ;
#1022=ORIENTED_EDGE('',*,*,#988,.T.) ;
#1031=ORIENTED_EDGE('',*,*,#1017,.F.) ;
#1032=ORIENTED_EDGE('',*,*,#995,.F.) ;
#1060=ORIENTED_EDGE('',*,*,#1048,.F.) ;
#1061=ORIENTED_EDGE('',*,*,#1053,.T.) ;
#1062=ORIENTED_EDGE('',*,*,#617,.T.) ;
#1063=ORIENTED_EDGE('',*,*,#1058,.F.) ;
#1082=ORIENTED_EDGE('',*,*,#603,.F.) ;
#1083=ORIENTED_EDGE('',*,*,#1075,.T.) ;
#1084=ORIENTED_EDGE('',*,*,#1048,.T.) ;
#1085=ORIENTED_EDGE('',*,*,#1080,.F.) ;
#1089=ORIENTED_EDGE('',*,*,#1075,.F.) ;
#1090=ORIENTED_EDGE('',*,*,#622,.F.) ;
#1091=ORIENTED_EDGE('',*,*,#1053,.F.) ;
#1100=ORIENTED_EDGE('',*,*,#1058,.T.) ;
#1101=ORIENTED_EDGE('',*,*,#610,.T.) ;
#1102=ORIENTED_EDGE('',*,*,#1080,.T.) ;
#1123=ORIENTED_EDGE('',*,*,#1109,.T.) ;
#1124=ORIENTED_EDGE('',*,*,#1116,.T.) ;
#1125=ORIENTED_EDGE('',*,*,#1121,.T.) ;
#1126=ORIENTED_EDGE('',*,*,#841,.T.) ;
#1129=ORIENTED_EDGE('',*,*,#981,.F.) ;
#1130=ORIENTED_EDGE('',*,*,#1012,.F.) ;
#1134=ORIENTED_EDGE('',*,*,#1116,.F.) ;
#1135=ORIENTED_EDGE('',*,*,#1109,.F.) ;
#1136=ORIENTED_EDGE('',*,*,#851,.T.) ;
#1137=ORIENTED_EDGE('',*,*,#642,.T.) ;
#1138=ORIENTED_EDGE('',*,*,#635,.T.) ;
#1139=ORIENTED_EDGE('',*,*,#659,.T.) ;
#1140=ORIENTED_EDGE('',*,*,#846,.F.) ;
#1141=ORIENTED_EDGE('',*,*,#1121,.F.) ;
#1178=ORIENTED_EDGE('',*,*,#1157,.F.) ;
#1179=ORIENTED_EDGE('',*,*,#1164,.T.) ;
#1180=ORIENTED_EDGE('',*,*,#1171,.T.) ;
#1181=ORIENTED_EDGE('',*,*,#1176,.F.) ;
#1204=ORIENTED_EDGE('',*,*,#1171,.F.) ;
#1205=ORIENTED_EDGE('',*,*,#1190,.T.) ;
#1206=ORIENTED_EDGE('',*,*,#1197,.T.) ;
#1207=ORIENTED_EDGE('',*,*,#1202,.F.) ;
#1226=ORIENTED_EDGE('',*,*,#1176,.T.) ;
#1227=ORIENTED_EDGE('',*,*,#1202,.T.) ;
#1228=ORIENTED_EDGE('',*,*,#1219,.T.) ;
#1229=ORIENTED_EDGE('',*,*,#407,.T.) ;
#1230=ORIENTED_EDGE('',*,*,#1224,.T.) ;
#1244=ORIENTED_EDGE('',*,*,#1237,.F.) ;
#1245=ORIENTED_EDGE('',*,*,#419,.F.) ;
#1246=ORIENTED_EDGE('',*,*,#1242,.F.) ;
#1247=ORIENTED_EDGE('',*,*,#1190,.F.) ;
#1248=ORIENTED_EDGE('',*,*,#1164,.F.) ;
#1257=ORIENTED_EDGE('',*,*,#1197,.F.) ;
#1258=ORIENTED_EDGE('',*,*,#1242,.T.) ;
#1259=ORIENTED_EDGE('',*,*,#414,.T.) ;
#1260=ORIENTED_EDGE('',*,*,#1219,.F.) ;
#1264=ORIENTED_EDGE('',*,*,#538,.T.) ;
#1265=ORIENTED_EDGE('',*,*,#1237,.T.) ;
#1266=ORIENTED_EDGE('',*,*,#1157,.T.) ;
#1267=ORIENTED_EDGE('',*,*,#1224,.F.) ;
#1283=ORIENTED_EDGE('',*,*,#1276,.F.) ;
#1284=ORIENTED_EDGE('',*,*,#692,.F.) ;
#1285=ORIENTED_EDGE('',*,*,#1281,.F.) ;
#1306=ORIENTED_EDGE('',*,*,#1299,.F.) ;
#1307=ORIENTED_EDGE('',*,*,#1281,.T.) ;
#1308=ORIENTED_EDGE('',*,*,#687,.T.) ;
#1309=ORIENTED_EDGE('',*,*,#1304,.F.) ;
#1318=ORIENTED_EDGE('',*,*,#673,.F.) ;
#1319=ORIENTED_EDGE('',*,*,#1276,.T.) ;
#1320=ORIENTED_EDGE('',*,*,#1299,.T.) ;
#1321=ORIENTED_EDGE('',*,*,#1316,.F.) ;
#1325=ORIENTED_EDGE('',*,*,#1304,.T.) ;
#1326=ORIENTED_EDGE('',*,*,#680,.T.) ;
#1327=ORIENTED_EDGE('',*,*,#1316,.T.) ;
#1361=ORIENTED_EDGE('',*,*,#1340,.F.) ;
#1362=ORIENTED_EDGE('',*,*,#1347,.T.) ;
#1363=ORIENTED_EDGE('',*,*,#1354,.T.) ;
#1364=ORIENTED_EDGE('',*,*,#1359,.F.) ;
#1392=ORIENTED_EDGE('',*,*,#1354,.F.) ;
#1393=ORIENTED_EDGE('',*,*,#1378,.T.) ;
#1394=ORIENTED_EDGE('',*,*,#1385,.T.) ;
#1395=ORIENTED_EDGE('',*,*,#1390,.F.) ;
#1416=ORIENTED_EDGE('',*,*,#1409,.F.) ;
#1417=ORIENTED_EDGE('',*,*,#1378,.F.) ;
#1418=ORIENTED_EDGE('',*,*,#1347,.F.) ;
#1419=ORIENTED_EDGE('',*,*,#1414,.F.) ;
#1440=ORIENTED_EDGE('',*,*,#1433,.F.) ;
#1441=ORIENTED_EDGE('',*,*,#1414,.T.) ;
#1442=ORIENTED_EDGE('',*,*,#1340,.T.) ;
#1443=ORIENTED_EDGE('',*,*,#1438,.F.) ;
#1452=ORIENTED_EDGE('',*,*,#1385,.F.) ;
#1453=ORIENTED_EDGE('',*,*,#1409,.T.) ;
#1454=ORIENTED_EDGE('',*,*,#1433,.T.) ;
#1455=ORIENTED_EDGE('',*,*,#1450,.F.) ;
#1464=ORIENTED_EDGE('',*,*,#1438,.T.) ;
#1465=ORIENTED_EDGE('',*,*,#1359,.T.) ;
#1466=ORIENTED_EDGE('',*,*,#1390,.T.) ;
#1467=ORIENTED_EDGE('',*,*,#1450,.T.) ;
#1501=ORIENTED_EDGE('',*,*,#1480,.F.) ;
#1502=ORIENTED_EDGE('',*,*,#1487,.T.) ;
#1503=ORIENTED_EDGE('',*,*,#1494,.T.) ;
#1504=ORIENTED_EDGE('',*,*,#1499,.F.) ;
#1532=ORIENTED_EDGE('',*,*,#1494,.F.) ;
#1533=ORIENTED_EDGE('',*,*,#1518,.T.) ;
#1534=ORIENTED_EDGE('',*,*,#1525,.T.) ;
#1535=ORIENTED_EDGE('',*,*,#1530,.F.) ;
#1556=ORIENTED_EDGE('',*,*,#1549,.F.) ;
#1557=ORIENTED_EDGE('',*,*,#1518,.F.) ;
#1558=ORIENTED_EDGE('',*,*,#1487,.F.) ;
#1559=ORIENTED_EDGE('',*,*,#1554,.F.) ;
#1580=ORIENTED_EDGE('',*,*,#1573,.F.) ;
#1581=ORIENTED_EDGE('',*,*,#1554,.T.) ;
#1582=ORIENTED_EDGE('',*,*,#1480,.T.) ;
#1583=ORIENTED_EDGE('',*,*,#1578,.F.) ;
#1592=ORIENTED_EDGE('',*,*,#1525,.F.) ;
#1593=ORIENTED_EDGE('',*,*,#1549,.T.) ;
#1594=ORIENTED_EDGE('',*,*,#1573,.T.) ;
#1595=ORIENTED_EDGE('',*,*,#1590,.F.) ;
#1604=ORIENTED_EDGE('',*,*,#1578,.T.) ;
#1605=ORIENTED_EDGE('',*,*,#1499,.T.) ;
#1606=ORIENTED_EDGE('',*,*,#1530,.T.) ;
#1607=ORIENTED_EDGE('',*,*,#1590,.T.) ;
#433=FACE_BOUND('',#430,.T.) ;
#576=FACE_BOUND('',#571,.T.) ;
#594=FACE_BOUND('',#591,.T.) ;
#628=FACE_BOUND('',#623,.T.) ;
#666=FACE_BOUND('',#660,.T.) ;
#698=FACE_BOUND('',#693,.T.) ;
#704=FACE_BOUND('',#699,.T.) ;
#722=FACE_BOUND('',#719,.T.) ;
#740=FACE_BOUND('',#737,.T.) ;
#958=FACE_BOUND('',#955,.T.) ;
#962=FACE_BOUND('',#959,.T.) ;
#966=FACE_BOUND('',#963,.T.) ;
#1131=FACE_BOUND('',#1128,.T.) ;
#51=CLOSED_SHELL('Closed Shell',(#91,#122,#153,#175,#187,#199)) ;
#203=CLOSED_SHELL('Closed Shell',(#243,#274,#290,#306,#346,#363,#434,#444,#475,#499,#523,#547,#741,#772,#784,#815,#827,#859,#890,#902,#933,#945,#967,#1007,#1024,#1034,#1065,#1087,#1093,#1104,#1132,#1143,#1183,#1209,#1232,#1250,#1262,#1269,#1287,#1311,#1323,#1329)) ;
#1331=CLOSED_SHELL('Closed Shell',(#1366,#1397,#1421,#1445,#1457,#1469)) ;
#1471=CLOSED_SHELL('Closed Shell',(#1506,#1537,#1561,#1585,#1597,#1609)) ;
#59=VECTOR('Line Direction',#58,1.) ;
#68=VECTOR('Line Direction',#67,1.) ;
#75=VECTOR('Line Direction',#74,1.) ;
#82=VECTOR('Line Direction',#81,1.) ;
#99=VECTOR('Line Direction',#98,1.) ;
#106=VECTOR('Line Direction',#105,1.) ;
#113=VECTOR('Line Direction',#112,1.) ;
#130=VECTOR('Line Direction',#129,1.) ;
#137=VECTOR('Line Direction',#136,1.) ;
#144=VECTOR('Line Direction',#143,1.) ;
#161=VECTOR('Line Direction',#160,1.) ;
#166=VECTOR('Line Direction',#165,1.) ;
#211=VECTOR('Line Direction',#210,1.) ;
#220=VECTOR('Line Direction',#219,1.) ;
#227=VECTOR('Line Direction',#226,1.) ;
#234=VECTOR('Line Direction',#233,1.) ;
#251=VECTOR('Line Direction',#250,1.) ;
#260=VECTOR('Line Direction',#259,1.) ;
#265=VECTOR('Line Direction',#264,1.) ;
#282=VECTOR('Line Direction',#281,1.) ;
#298=VECTOR('Line Direction',#297,1.) ;
#314=VECTOR('Line Direction',#313,1.) ;
#330=VECTOR('Line Direction',#329,1.) ;
#366=VECTOR('Line Direction',#365,1.) ;
#375=VECTOR('Line Direction',#374,1.) ;
#382=VECTOR('Line Direction',#381,1.) ;
#389=VECTOR('Line Direction',#388,1.) ;
#396=VECTOR('Line Direction',#395,1.) ;
#403=VECTOR('Line Direction',#402,1.) ;
#410=VECTOR('Line Direction',#409,1.) ;
#417=VECTOR('Line Direction',#416,1.) ;
#452=VECTOR('Line Direction',#451,1.) ;
#459=VECTOR('Line Direction',#458,1.) ;
#466=VECTOR('Line Direction',#465,1.) ;
#483=VECTOR('Line Direction',#482,1.) ;
#490=VECTOR('Line Direction',#489,1.) ;
#507=VECTOR('Line Direction',#506,1.) ;
#514=VECTOR('Line Direction',#513,1.) ;
#531=VECTOR('Line Direction',#530,1.) ;
#536=VECTOR('Line Direction',#535,1.) ;
#597=VECTOR('Line Direction',#596,1.) ;
#606=VECTOR('Line Direction',#605,1.) ;
#613=VECTOR('Line Direction',#612,1.) ;
#620=VECTOR('Line Direction',#619,1.) ;
#669=VECTOR('Line Direction',#668,1.) ;
#676=VECTOR('Line Direction',#675,1.) ;
#683=VECTOR('Line Direction',#682,1.) ;
#690=VECTOR('Line Direction',#689,1.) ;
#749=VECTOR('Line Direction',#748,1.) ;
#763=VECTOR('Line Direction',#762,1.) ;
#792=VECTOR('Line Direction',#791,1.) ;
#806=VECTOR('Line Direction',#805,1.) ;
#844=VECTOR('Line Direction',#843,1.) ;
#849=VECTOR('Line Direction',#848,1.) ;
#867=VECTOR('Line Direction',#866,1.) ;
#881=VECTOR('Line Direction',#880,1.) ;
#910=VECTOR('Line Direction',#909,1.) ;
#924=VECTOR('Line Direction',#923,1.) ;
#984=VECTOR('Line Direction',#983,1.) ;
#998=VECTOR('Line Direction',#997,1.) ;
#1042=VECTOR('Line Direction',#1041,1.) ;
#1051=VECTOR('Line Direction',#1050,1.) ;
#1056=VECTOR('Line Direction',#1055,1.) ;
#1073=VECTOR('Line Direction',#1072,1.) ;
#1078=VECTOR('Line Direction',#1077,1.) ;
#1151=VECTOR('Line Direction',#1150,1.) ;
#1160=VECTOR('Line Direction',#1159,1.) ;
#1167=VECTOR('Line Direction',#1166,1.) ;
#1174=VECTOR('Line Direction',#1173,1.) ;
#1186=VECTOR('Line Direction',#1185,1.) ;
#1193=VECTOR('Line Direction',#1192,1.) ;
#1200=VECTOR('Line Direction',#1199,1.) ;
#1217=VECTOR('Line Direction',#1216,1.) ;
#1222=VECTOR('Line Direction',#1221,1.) ;
#1235=VECTOR('Line Direction',#1234,1.) ;
#1240=VECTOR('Line Direction',#1239,1.) ;
#1272=VECTOR('Line Direction',#1271,1.) ;
#1279=VECTOR('Line Direction',#1278,1.) ;
#1295=VECTOR('Line Direction',#1294,1.) ;
#1302=VECTOR('Line Direction',#1301,1.) ;
#1314=VECTOR('Line Direction',#1313,1.) ;
#1334=VECTOR('Line Direction',#1333,1.) ;
#1343=VECTOR('Line Direction',#1342,1.) ;
#1350=VECTOR('Line Direction',#1349,1.) ;
#1357=VECTOR('Line Direction',#1356,1.) ;
#1374=VECTOR('Line Direction',#1373,1.) ;
#1381=VECTOR('Line Direction',#1380,1.) ;
#1388=VECTOR('Line Direction',#1387,1.) ;
#1405=VECTOR('Line Direction',#1404,1.) ;
#1412=VECTOR('Line Direction',#1411,1.) ;
#1429=VECTOR('Line Direction',#1428,1.) ;
#1436=VECTOR('Line Direction',#1435,1.) ;
#1448=VECTOR('Line Direction',#1447,1.) ;
#1474=VECTOR('Line Direction',#1473,1.) ;
#1483=VECTOR('Line Direction',#1482,1.) ;
#1490=VECTOR('Line Direction',#1489,1.) ;
#1497=VECTOR('Line Direction',#1496,1.) ;
#1514=VECTOR('Line Direction',#1513,1.) ;
#1521=VECTOR('Line Direction',#1520,1.) ;
#1528=VECTOR('Line Direction',#1527,1.) ;
#1545=VECTOR('Line Direction',#1544,1.) ;
#1552=VECTOR('Line Direction',#1551,1.) ;
#1569=VECTOR('Line Direction',#1568,1.) ;
#1576=VECTOR('Line Direction',#1575,1.) ;
#1588=VECTOR('Line Direction',#1587,1.) ;
#1613=VECTOR('Line Direction',#1612,1.) ;
#1621=VECTOR('Line Direction',#1620,1.) ;
#1629=VECTOR('Line Direction',#1628,1.) ;
#1637=VECTOR('Line Direction',#1636,1.) ;
#1645=VECTOR('Line Direction',#1644,1.) ;
#1675=VECTOR('Line Direction',#1674,1.) ;
#1683=VECTOR('Line Direction',#1682,1.) ;
#1691=VECTOR('Line Direction',#1690,1.) ;
#1700=VECTOR('Line Direction',#1699,1.) ;
#1708=VECTOR('Line Direction',#1707,1.) ;
#1716=VECTOR('Line Direction',#1715,1.) ;
#1724=VECTOR('Line Direction',#1723,1.) ;
#201=ADVANCED_BREP_SHAPE_REPRESENTATION('NONE',(#200,#1330,#1470,#1610),#46) ;
#49=SHAPE_REPRESENTATION(' ',(#48),#46) ;
#91=ADVANCED_FACE('',(#90),#56,.F.) ;
#122=ADVANCED_FACE('',(#121),#96,.T.) ;
#153=ADVANCED_FACE('',(#152),#127,.T.) ;
#175=ADVANCED_FACE('',(#174),#158,.F.) ;
#187=ADVANCED_FACE('',(#186),#180,.F.) ;
#199=ADVANCED_FACE('',(#198),#192,.T.) ;
#243=ADVANCED_FACE('',(#242),#208,.T.) ;
#274=ADVANCED_FACE('',(#273),#248,.F.) ;
#290=ADVANCED_FACE('',(#289),#279,.F.) ;
#306=ADVANCED_FACE('',(#305),#295,.T.) ;
#346=ADVANCED_FACE('',(#345),#311,.T.) ;
#363=ADVANCED_FACE('',(#362),#311,.T.) ;
#434=ADVANCED_FACE('',(#429,#433),#158,.T.) ;
#444=ADVANCED_FACE('',(#443),#439,.T.) ;
#475=ADVANCED_FACE('',(#474),#449,.F.) ;
#499=ADVANCED_FACE('',(#498),#480,.F.) ;
#523=ADVANCED_FACE('',(#522),#504,.F.) ;
#547=ADVANCED_FACE('',(#546),#528,.F.) ;
#741=ADVANCED_FACE('',(#570,#576,#594,#628,#666,#698,#704,#722,#740),#552,.T.) ;
#772=ADVANCED_FACE('',(#771),#746,.T.) ;
#784=ADVANCED_FACE('',(#783),#746,.T.) ;
#815=ADVANCED_FACE('',(#814),#789,.F.) ;
#827=ADVANCED_FACE('',(#826),#789,.F.) ;
#859=ADVANCED_FACE('',(#858),#832,.T.) ;
#890=ADVANCED_FACE('',(#889),#864,.F.) ;
#902=ADVANCED_FACE('',(#901),#864,.F.) ;
#933=ADVANCED_FACE('',(#932),#907,.F.) ;
#945=ADVANCED_FACE('',(#944),#907,.F.) ;
#967=ADVANCED_FACE('',(#954,#958,#962,#966),#950,.F.) ;
#1007=ADVANCED_FACE('',(#1006),#972,.F.) ;
#1024=ADVANCED_FACE('',(#1023),#972,.F.) ;
#1034=ADVANCED_FACE('',(#1033),#1029,.F.) ;
#1065=ADVANCED_FACE('',(#1064),#1039,.T.) ;
#1087=ADVANCED_FACE('',(#1086),#1070,.F.) ;
#1093=ADVANCED_FACE('',(#1092),#279,.T.) ;
#1104=ADVANCED_FACE('',(#1103),#1098,.T.) ;
#1132=ADVANCED_FACE('',(#1127,#1131),#96,.T.) ;
#1143=ADVANCED_FACE('',(#1142),#832,.T.) ;
#1183=ADVANCED_FACE('',(#1182),#1148,.F.) ;
#1209=ADVANCED_FACE('',(#1208),#96,.T.) ;
#1232=ADVANCED_FACE('',(#1231),#1214,.T.) ;
#1250=ADVANCED_FACE('',(#1249),#180,.T.) ;
#1262=ADVANCED_FACE('',(#1261),#1255,.T.) ;
#1269=ADVANCED_FACE('',(#1268),#158,.F.) ;
#1287=ADVANCED_FACE('',(#1286),#180,.F.) ;
#1311=ADVANCED_FACE('',(#1310),#1292,.T.) ;
#1323=ADVANCED_FACE('',(#1322),#56,.F.) ;
#1329=ADVANCED_FACE('',(#1328),#192,.T.) ;
#1366=ADVANCED_FACE('',(#1365),#96,.T.) ;
#1397=ADVANCED_FACE('',(#1396),#1371,.T.) ;
#1421=ADVANCED_FACE('',(#1420),#1402,.F.) ;
#1445=ADVANCED_FACE('',(#1444),#1426,.F.) ;
#1457=ADVANCED_FACE('',(#1456),#158,.F.) ;
#1469=ADVANCED_FACE('',(#1468),#1462,.T.) ;
#1506=ADVANCED_FACE('',(#1505),#96,.T.) ;
#1537=ADVANCED_FACE('',(#1536),#1511,.T.) ;
#1561=ADVANCED_FACE('',(#1560),#1542,.F.) ;
#1585=ADVANCED_FACE('',(#1584),#1566,.F.) ;
#1597=ADVANCED_FACE('',(#1596),#158,.F.) ;
#1609=ADVANCED_FACE('',(#1608),#1602,.T.) ;
#4=APPLICATION_PROTOCOL_DEFINITION('international standard','config_control_design',1994,#1) ;
#32=APPROVAL_DATE_TIME(#13,#21) ;
#200=MANIFOLD_SOLID_BREP('.1',#51) ;
#1330=MANIFOLD_SOLID_BREP('.2',#203) ;
#1470=MANIFOLD_SOLID_BREP('.3',#1331) ;
#1610=MANIFOLD_SOLID_BREP('.4',#1471) ;
#11=CALENDAR_DATE(2024,6,6) ;
#30=CC_DESIGN_APPROVAL(#21,(#16,#6,#14)) ;
#18=CC_DESIGN_DATE_AND_TIME_ASSIGNMENT(#13,#17,(#16)) ;
#29=CC_DESIGN_DATE_AND_TIME_ASSIGNMENT(#13,#28,(#14)) ;
#17=DATE_TIME_ROLE('classification_date') ;
#28=DATE_TIME_ROLE('creation_date') ;
#27=CC_DESIGN_PERSON_AND_ORGANIZATION_ASSIGNMENT(#25,#26,(#16)) ;
#33=CC_DESIGN_PERSON_AND_ORGANIZATION_ASSIGNMENT(#25,#34,(#6)) ;
#35=CC_DESIGN_PERSON_AND_ORGANIZATION_ASSIGNMENT(#25,#36,(#6,#14)) ;
#37=CC_DESIGN_PERSON_AND_ORGANIZATION_ASSIGNMENT(#25,#38,(#5)) ;
#26=PERSON_AND_ORGANIZATION_ROLE('classification_officer') ;
#34=PERSON_AND_ORGANIZATION_ROLE('design_supplier') ;
#36=PERSON_AND_ORGANIZATION_ROLE('creator') ;
#38=PERSON_AND_ORGANIZATION_ROLE('design_owner') ;
#39=CC_DESIGN_SECURITY_CLASSIFICATION(#16,(#6)) ;
#324=CIRCLE('generated circle',#323,14.1421356237) ;
#338=CIRCLE('generated circle',#337,14.1421356237) ;
#350=CIRCLE('generated circle',#349,14.1421356237) ;
#355=CIRCLE('generated circle',#354,14.1421356237) ;
#556=CIRCLE('generated circle',#555,85.) ;
#565=CIRCLE('generated circle',#564,85.) ;
#580=CIRCLE('generated circle',#579,5.) ;
#589=CIRCLE('generated circle',#588,5.) ;
#632=CIRCLE('generated circle',#631,29.5) ;
#639=CIRCLE('generated circle',#638,29.5) ;
#646=CIRCLE('generated circle',#645,29.5) ;
#651=CIRCLE('generated circle',#650,29.5) ;
#658=CIRCLE('generated circle',#657,29.5) ;
#708=CIRCLE('generated circle',#707,5.) ;
#717=CIRCLE('generated circle',#716,5.) ;
#726=CIRCLE('generated circle',#725,5.) ;
#735=CIRCLE('generated circle',#734,5.) ;
#757=CIRCLE('generated circle',#756,85.) ;
#776=CIRCLE('generated circle',#775,85.) ;
#800=CIRCLE('generated circle',#799,5.) ;
#819=CIRCLE('generated circle',#818,5.) ;
#836=CIRCLE('generated circle',#835,29.5) ;
#875=CIRCLE('generated circle',#874,5.) ;
#894=CIRCLE('generated circle',#893,5.) ;
#918=CIRCLE('generated circle',#917,5.) ;
#937=CIRCLE('generated circle',#936,5.) ;
#976=CIRCLE('generated circle',#975,10.) ;
#992=CIRCLE('generated circle',#991,10.) ;
#1011=CIRCLE('generated circle',#1010,10.) ;
#1016=CIRCLE('generated circle',#1015,10.) ;
#1108=CIRCLE('generated circle',#1107,29.5) ;
#1113=CIRCLE('generated circle',#1112,29.5) ;
#1120=CIRCLE('generated circle',#1119,29.5) ;
#1659=CIRCLE('generated circle',#1658,14.1421356237) ;
#1667=CIRCLE('generated circle',#1666,14.1421356237) ;
#202=SHAPE_REPRESENTATION_RELATIONSHIP(' ',' ',#49,#201) ;
#1654=SHAPE_REPRESENTATION_RELATIONSHIP(' ',' ',#49,#1652) ;
#311=CYLINDRICAL_SURFACE('generated cylinder',#310,14.1421356237) ;
#746=CYLINDRICAL_SURFACE('generated cylinder',#745,85.) ;
#789=CYLINDRICAL_SURFACE('generated cylinder',#788,5.) ;
#832=CYLINDRICAL_SURFACE('generated cylinder',#831,29.5) ;
#864=CYLINDRICAL_SURFACE('generated cylinder',#863,5.) ;
#907=CYLINDRICAL_SURFACE('generated cylinder',#906,5.) ;
#972=CYLINDRICAL_SURFACE('generated cylinder',#971,10.) ;
#3=DESIGN_CONTEXT(' ',#1,'design') ;
#65=EDGE_CURVE('',#62,#64,#60,.T.) ;
#72=EDGE_CURVE('',#62,#71,#69,.F.) ;
#79=EDGE_CURVE('',#71,#78,#76,.T.) ;
#84=EDGE_CURVE('',#64,#78,#83,.T.) ;
#103=EDGE_CURVE('',#71,#102,#100,.T.) ;
#110=EDGE_CURVE('',#102,#109,#107,.T.) ;
#115=EDGE_CURVE('',#78,#109,#114,.T.) ;
#134=EDGE_CURVE('',#102,#133,#131,.T.) ;
#141=EDGE_CURVE('',#133,#140,#138,.T.) ;
#146=EDGE_CURVE('',#109,#140,#145,.T.) ;
#163=EDGE_CURVE('',#133,#62,#162,.T.) ;
#168=EDGE_CURVE('',#140,#64,#167,.T.) ;
#217=EDGE_CURVE('',#214,#216,#212,.T.) ;
#224=EDGE_CURVE('',#214,#223,#221,.T.) ;
#231=EDGE_CURVE('',#223,#230,#228,.T.) ;
#236=EDGE_CURVE('',#216,#230,#235,.T.) ;
#257=EDGE_CURVE('',#254,#256,#252,.T.) ;
#262=EDGE_CURVE('',#254,#214,#261,.F.) ;
#267=EDGE_CURVE('',#256,#216,#266,.F.) ;
#284=EDGE_CURVE('',#223,#254,#283,.F.) ;
#300=EDGE_CURVE('',#230,#256,#299,.F.) ;
#320=EDGE_CURVE('',#317,#319,#315,.T.) ;
#327=EDGE_CURVE('',#317,#326,#324,.T.) ;
#334=EDGE_CURVE('',#326,#333,#331,.T.) ;
#339=EDGE_CURVE('',#319,#333,#338,.T.) ;
#351=EDGE_CURVE('',#326,#317,#350,.T.) ;
#356=EDGE_CURVE('',#333,#319,#355,.T.) ;
#372=EDGE_CURVE('',#369,#371,#367,.F.) ;
#379=EDGE_CURVE('',#371,#378,#376,.F.) ;
#386=EDGE_CURVE('',#378,#385,#383,.F.) ;
#393=EDGE_CURVE('',#385,#392,#390,.F.) ;
#400=EDGE_CURVE('',#392,#399,#397,.F.) ;
#407=EDGE_CURVE('',#406,#399,#404,.T.) ;
#414=EDGE_CURVE('',#413,#406,#411,.T.) ;
#419=EDGE_CURVE('',#413,#369,#418,.F.) ;
#456=EDGE_CURVE('',#455,#371,#453,.T.) ;
#463=EDGE_CURVE('',#455,#462,#460,.F.) ;
#468=EDGE_CURVE('',#462,#378,#467,.T.) ;
#487=EDGE_CURVE('',#462,#486,#484,.F.) ;
#492=EDGE_CURVE('',#486,#385,#491,.T.) ;
#511=EDGE_CURVE('',#486,#510,#508,.F.) ;
#516=EDGE_CURVE('',#510,#392,#515,.T.) ;
#533=EDGE_CURVE('',#510,#455,#532,.F.) ;
#538=EDGE_CURVE('',#399,#369,#537,.F.) ;
#561=EDGE_CURVE('',#558,#560,#556,.T.) ;
#566=EDGE_CURVE('',#560,#558,#565,.T.) ;
#585=EDGE_CURVE('',#582,#584,#580,.T.) ;
#590=EDGE_CURVE('',#584,#582,#589,.T.) ;
#603=EDGE_CURVE('',#600,#602,#598,.T.) ;
#610=EDGE_CURVE('',#609,#602,#607,.F.) ;
#617=EDGE_CURVE('',#616,#609,#614,.T.) ;
#622=EDGE_CURVE('',#616,#600,#621,.T.) ;
#635=EDGE_CURVE('',#634,#600,#632,.T.) ;
#642=EDGE_CURVE('',#641,#634,#639,.T.) ;
#647=EDGE_CURVE('',#254,#641,#646,.T.) ;
#654=EDGE_CURVE('',#653,#254,#651,.T.) ;
#659=EDGE_CURVE('',#600,#653,#658,.T.) ;
#673=EDGE_CURVE('',#634,#672,#670,.T.) ;
#680=EDGE_CURVE('',#679,#672,#677,.F.) ;
#687=EDGE_CURVE('',#686,#679,#684,.T.) ;
#692=EDGE_CURVE('',#686,#634,#691,.F.) ;
#713=EDGE_CURVE('',#710,#712,#708,.T.) ;
#718=EDGE_CURVE('',#712,#710,#717,.T.) ;
#731=EDGE_CURVE('',#728,#730,#726,.T.) ;
#736=EDGE_CURVE('',#730,#728,#735,.T.) ;
#753=EDGE_CURVE('',#558,#752,#750,.F.) ;
#760=EDGE_CURVE('',#752,#759,#757,.T.) ;
#765=EDGE_CURVE('',#560,#759,#764,.F.) ;
#777=EDGE_CURVE('',#759,#752,#776,.T.) ;
#796=EDGE_CURVE('',#795,#584,#793,.F.) ;
#803=EDGE_CURVE('',#802,#795,#800,.F.) ;
#808=EDGE_CURVE('',#802,#582,#807,.F.) ;
#820=EDGE_CURVE('',#795,#802,#819,.F.) ;
#841=EDGE_CURVE('',#838,#840,#836,.T.) ;
#846=EDGE_CURVE('',#838,#653,#845,.F.) ;
#851=EDGE_CURVE('',#840,#641,#850,.F.) ;
#871=EDGE_CURVE('',#870,#712,#868,.F.) ;
#878=EDGE_CURVE('',#877,#870,#875,.F.) ;
#883=EDGE_CURVE('',#877,#710,#882,.F.) ;
#895=EDGE_CURVE('',#870,#877,#894,.F.) ;
#914=EDGE_CURVE('',#913,#730,#911,.F.) ;
#921=EDGE_CURVE('',#920,#913,#918,.F.) ;
#926=EDGE_CURVE('',#920,#728,#925,.F.) ;
#938=EDGE_CURVE('',#913,#920,#937,.F.) ;
#981=EDGE_CURVE('',#978,#980,#976,.F.) ;
#988=EDGE_CURVE('',#987,#980,#985,.F.) ;
#995=EDGE_CURVE('',#987,#994,#992,.T.) ;
#1000=EDGE_CURVE('',#994,#978,#999,.F.) ;
#1012=EDGE_CURVE('',#980,#978,#1011,.F.) ;
#1017=EDGE_CURVE('',#994,#987,#1016,.T.) ;
#1048=EDGE_CURVE('',#1045,#1047,#1043,.T.) ;
#1053=EDGE_CURVE('',#1045,#616,#1052,.T.) ;
#1058=EDGE_CURVE('',#1047,#609,#1057,.T.) ;
#1075=EDGE_CURVE('',#600,#1045,#1074,.F.) ;
#1080=EDGE_CURVE('',#602,#1047,#1079,.F.) ;
#1109=EDGE_CURVE('',#840,#71,#1108,.T.) ;
#1116=EDGE_CURVE('',#71,#1115,#1113,.T.) ;
#1121=EDGE_CURVE('',#1115,#838,#1120,.T.) ;
#1157=EDGE_CURVE('',#1154,#1156,#1152,.T.) ;
#1164=EDGE_CURVE('',#1154,#1163,#1161,.F.) ;
#1171=EDGE_CURVE('',#1163,#1170,#1168,.T.) ;
#1176=EDGE_CURVE('',#1156,#1170,#1175,.T.) ;
#1190=EDGE_CURVE('',#1163,#1189,#1187,.F.) ;
#1197=EDGE_CURVE('',#1189,#1196,#1194,.T.) ;
#1202=EDGE_CURVE('',#1170,#1196,#1201,.T.) ;
#1219=EDGE_CURVE('',#1196,#406,#1218,.T.) ;
#1224=EDGE_CURVE('',#399,#1156,#1223,.T.) ;
#1237=EDGE_CURVE('',#369,#1154,#1236,.F.) ;
#1242=EDGE_CURVE('',#1189,#413,#1241,.T.) ;
#1276=EDGE_CURVE('',#634,#1275,#1273,.F.) ;
#1281=EDGE_CURVE('',#1275,#686,#1280,.T.) ;
#1299=EDGE_CURVE('',#1275,#1298,#1296,.T.) ;
#1304=EDGE_CURVE('',#1298,#679,#1303,.T.) ;
#1316=EDGE_CURVE('',#672,#1298,#1315,.F.) ;
#1340=EDGE_CURVE('',#1337,#1339,#1335,.T.) ;
#1347=EDGE_CURVE('',#1337,#1346,#1344,.T.) ;
#1354=EDGE_CURVE('',#1346,#1353,#1351,.T.) ;
#1359=EDGE_CURVE('',#1339,#1353,#1358,.T.) ;
#1378=EDGE_CURVE('',#1346,#1377,#1375,.T.) ;
#1385=EDGE_CURVE('',#1377,#1384,#1382,.T.) ;
#1390=EDGE_CURVE('',#1353,#1384,#1389,.T.) ;
#1409=EDGE_CURVE('',#1377,#1408,#1406,.T.) ;
#1414=EDGE_CURVE('',#1408,#1337,#1413,.T.) ;
#1433=EDGE_CURVE('',#1408,#1432,#1430,.T.) ;
#1438=EDGE_CURVE('',#1432,#1339,#1437,.T.) ;
#1450=EDGE_CURVE('',#1384,#1432,#1449,.T.) ;
#1480=EDGE_CURVE('',#1477,#1479,#1475,.T.) ;
#1487=EDGE_CURVE('',#1477,#1486,#1484,.T.) ;
#1494=EDGE_CURVE('',#1486,#1493,#1491,.T.) ;
#1499=EDGE_CURVE('',#1479,#1493,#1498,.T.) ;
#1518=EDGE_CURVE('',#1486,#1517,#1515,.T.) ;
#1525=EDGE_CURVE('',#1517,#1524,#1522,.T.) ;
#1530=EDGE_CURVE('',#1493,#1524,#1529,.T.) ;
#1549=EDGE_CURVE('',#1517,#1548,#1546,.T.) ;
#1554=EDGE_CURVE('',#1548,#1477,#1553,.T.) ;
#1573=EDGE_CURVE('',#1548,#1572,#1570,.T.) ;
#1578=EDGE_CURVE('',#1572,#1479,#1577,.T.) ;
#1590=EDGE_CURVE('',#1524,#1572,#1589,.T.) ;
#85=EDGE_LOOP('',(#86,#87,#88,#89)) ;
#116=EDGE_LOOP('',(#117,#118,#119,#120)) ;
#147=EDGE_LOOP('',(#148,#149,#150,#151)) ;
#169=EDGE_LOOP('',(#170,#171,#172,#173)) ;
#181=EDGE_LOOP('',(#182,#183,#184,#185)) ;
#193=EDGE_LOOP('',(#194,#195,#196,#197)) ;
#237=EDGE_LOOP('',(#238,#239,#240,#241)) ;
#268=EDGE_LOOP('',(#269,#270,#271,#272)) ;
#285=EDGE_LOOP('',(#286,#287,#288)) ;
#301=EDGE_LOOP('',(#302,#303,#304)) ;
#340=EDGE_LOOP('',(#341,#342,#343,#344)) ;
#357=EDGE_LOOP('',(#358,#359,#360,#361)) ;
#420=EDGE_LOOP('',(#421,#422,#423,#424,#425,#426,#427,#428)) ;
#430=EDGE_LOOP('',(#431,#432)) ;
#440=EDGE_LOOP('',(#441,#442)) ;
#469=EDGE_LOOP('',(#470,#471,#472,#473)) ;
#493=EDGE_LOOP('',(#494,#495,#496,#497)) ;
#517=EDGE_LOOP('',(#518,#519,#520,#521)) ;
#539=EDGE_LOOP('',(#540,#541,#542,#543,#544,#545)) ;
#567=EDGE_LOOP('',(#568,#569)) ;
#571=EDGE_LOOP('',(#572,#573,#574,#575)) ;
#591=EDGE_LOOP('',(#592,#593)) ;
#623=EDGE_LOOP('',(#624,#625,#626,#627)) ;
#660=EDGE_LOOP('',(#661,#662,#663,#664,#665)) ;
#693=EDGE_LOOP('',(#694,#695,#696,#697)) ;
#699=EDGE_LOOP('',(#700,#701,#702,#703)) ;
#719=EDGE_LOOP('',(#720,#721)) ;
#737=EDGE_LOOP('',(#738,#739)) ;
#766=EDGE_LOOP('',(#767,#768,#769,#770)) ;
#778=EDGE_LOOP('',(#779,#780,#781,#782)) ;
#809=EDGE_LOOP('',(#810,#811,#812,#813)) ;
#821=EDGE_LOOP('',(#822,#823,#824,#825)) ;
#852=EDGE_LOOP('',(#853,#854,#855,#856,#857)) ;
#884=EDGE_LOOP('',(#885,#886,#887,#888)) ;
#896=EDGE_LOOP('',(#897,#898,#899,#900)) ;
#927=EDGE_LOOP('',(#928,#929,#930,#931)) ;
#939=EDGE_LOOP('',(#940,#941,#942,#943)) ;
#951=EDGE_LOOP('',(#952,#953)) ;
#955=EDGE_LOOP('',(#956,#957)) ;
#959=EDGE_LOOP('',(#960,#961)) ;
#963=EDGE_LOOP('',(#964,#965)) ;
#1001=EDGE_LOOP('',(#1002,#1003,#1004,#1005)) ;
#1018=EDGE_LOOP('',(#1019,#1020,#1021,#1022)) ;
#1030=EDGE_LOOP('',(#1031,#1032)) ;
#1059=EDGE_LOOP('',(#1060,#1061,#1062,#1063)) ;
#1081=EDGE_LOOP('',(#1082,#1083,#1084,#1085)) ;
#1088=EDGE_LOOP('',(#1089,#1090,#1091)) ;
#1099=EDGE_LOOP('',(#1100,#1101,#1102)) ;
#1122=EDGE_LOOP('',(#1123,#1124,#1125,#1126)) ;
#1128=EDGE_LOOP('',(#1129,#1130)) ;
#1133=EDGE_LOOP('',(#1134,#1135,#1136,#1137,#1138,#1139,#1140,#1141)) ;
#1177=EDGE_LOOP('',(#1178,#1179,#1180,#1181)) ;
#1203=EDGE_LOOP('',(#1204,#1205,#1206,#1207)) ;
#1225=EDGE_LOOP('',(#1226,#1227,#1228,#1229,#1230)) ;
#1243=EDGE_LOOP('',(#1244,#1245,#1246,#1247,#1248)) ;
#1256=EDGE_LOOP('',(#1257,#1258,#1259,#1260)) ;
#1263=EDGE_LOOP('',(#1264,#1265,#1266,#1267)) ;
#1282=EDGE_LOOP('',(#1283,#1284,#1285)) ;
#1305=EDGE_LOOP('',(#1306,#1307,#1308,#1309)) ;
#1317=EDGE_LOOP('',(#1318,#1319,#1320,#1321)) ;
#1324=EDGE_LOOP('',(#1325,#1326,#1327)) ;
#1360=EDGE_LOOP('',(#1361,#1362,#1363,#1364)) ;
#1391=EDGE_LOOP('',(#1392,#1393,#1394,#1395)) ;
#1415=EDGE_LOOP('',(#1416,#1417,#1418,#1419)) ;
#1439=EDGE_LOOP('',(#1440,#1441,#1442,#1443)) ;
#1451=EDGE_LOOP('',(#1452,#1453,#1454,#1455)) ;
#1463=EDGE_LOOP('',(#1464,#1465,#1466,#1467)) ;
#1500=EDGE_LOOP('',(#1501,#1502,#1503,#1504)) ;
#1531=EDGE_LOOP('',(#1532,#1533,#1534,#1535)) ;
#1555=EDGE_LOOP('',(#1556,#1557,#1558,#1559)) ;
#1579=EDGE_LOOP('',(#1580,#1581,#1582,#1583)) ;
#1591=EDGE_LOOP('',(#1592,#1593,#1594,#1595)) ;
#1603=EDGE_LOOP('',(#1604,#1605,#1606,#1607)) ;
#90=FACE_OUTER_BOUND('',#85,.T.) ;
#121=FACE_OUTER_BOUND('',#116,.T.) ;
#152=FACE_OUTER_BOUND('',#147,.T.) ;
#174=FACE_OUTER_BOUND('',#169,.T.) ;
#186=FACE_OUTER_BOUND('',#181,.T.) ;
#198=FACE_OUTER_BOUND('',#193,.T.) ;
#242=FACE_OUTER_BOUND('',#237,.T.) ;
#273=FACE_OUTER_BOUND('',#268,.T.) ;
#289=FACE_OUTER_BOUND('',#285,.T.) ;
#305=FACE_OUTER_BOUND('',#301,.T.) ;
#345=FACE_OUTER_BOUND('',#340,.T.) ;
#362=FACE_OUTER_BOUND('',#357,.T.) ;
#429=FACE_OUTER_BOUND('',#420,.T.) ;
#443=FACE_OUTER_BOUND('',#440,.T.) ;
#474=FACE_OUTER_BOUND('',#469,.T.) ;
#498=FACE_OUTER_BOUND('',#493,.T.) ;
#522=FACE_OUTER_BOUND('',#517,.T.) ;
#546=FACE_OUTER_BOUND('',#539,.T.) ;
#570=FACE_OUTER_BOUND('',#567,.T.) ;
#771=FACE_OUTER_BOUND('',#766,.T.) ;
#783=FACE_OUTER_BOUND('',#778,.T.) ;
#814=FACE_OUTER_BOUND('',#809,.T.) ;
#826=FACE_OUTER_BOUND('',#821,.T.) ;
#858=FACE_OUTER_BOUND('',#852,.T.) ;
#889=FACE_OUTER_BOUND('',#884,.T.) ;
#901=FACE_OUTER_BOUND('',#896,.T.) ;
#932=FACE_OUTER_BOUND('',#927,.T.) ;
#944=FACE_OUTER_BOUND('',#939,.T.) ;
#954=FACE_OUTER_BOUND('',#951,.T.) ;
#1006=FACE_OUTER_BOUND('',#1001,.T.) ;
#1023=FACE_OUTER_BOUND('',#1018,.T.) ;
#1033=FACE_OUTER_BOUND('',#1030,.T.) ;
#1064=FACE_OUTER_BOUND('',#1059,.T.) ;
#1086=FACE_OUTER_BOUND('',#1081,.T.) ;
#1092=FACE_OUTER_BOUND('',#1088,.T.) ;
#1103=FACE_OUTER_BOUND('',#1099,.T.) ;
#1127=FACE_OUTER_BOUND('',#1122,.T.) ;
#1142=FACE_OUTER_BOUND('',#1133,.T.) ;
#1182=FACE_OUTER_BOUND('',#1177,.T.) ;
#1208=FACE_OUTER_BOUND('',#1203,.T.) ;
#1231=FACE_OUTER_BOUND('',#1225,.T.) ;
#1249=FACE_OUTER_BOUND('',#1243,.T.) ;
#1261=FACE_OUTER_BOUND('',#1256,.T.) ;
#1268=FACE_OUTER_BOUND('',#1263,.T.) ;
#1286=FACE_OUTER_BOUND('',#1282,.T.) ;
#1310=FACE_OUTER_BOUND('',#1305,.T.) ;
#1322=FACE_OUTER_BOUND('',#1317,.T.) ;
#1328=FACE_OUTER_BOUND('',#1324,.T.) ;
#1365=FACE_OUTER_BOUND('',#1360,.T.) ;
#1396=FACE_OUTER_BOUND('',#1391,.T.) ;
#1420=FACE_OUTER_BOUND('',#1415,.T.) ;
#1444=FACE_OUTER_BOUND('',#1439,.T.) ;
#1456=FACE_OUTER_BOUND('',#1451,.T.) ;
#1468=FACE_OUTER_BOUND('',#1463,.T.) ;
#1505=FACE_OUTER_BOUND('',#1500,.T.) ;
#1536=FACE_OUTER_BOUND('',#1531,.T.) ;
#1560=FACE_OUTER_BOUND('',#1555,.T.) ;
#1584=FACE_OUTER_BOUND('',#1579,.T.) ;
#1596=FACE_OUTER_BOUND('',#1591,.T.) ;
#1608=FACE_OUTER_BOUND('',#1603,.T.) ;
#1653=GEOMETRIC_SET('NONE',(#1651,#1655,#1672,#1697,#1730)) ;
#1652=GEOMETRICALLY_BOUNDED_SURFACE_SHAPE_REPRESENTATION('NONE',(#1653),#46) ;
#45=UNCERTAINTY_MEASURE_WITH_UNIT(LENGTH_MEASURE(0.005),#41,'distance_accuracy_value','CONFUSED CURVE UNCERTAINTY') ;
#60=LINE('Line',#57,#59) ;
#69=LINE('Line',#66,#68) ;
#76=LINE('Line',#73,#75) ;
#83=LINE('Line',#80,#82) ;
#100=LINE('Line',#97,#99) ;
#107=LINE('Line',#104,#106) ;
#114=LINE('Line',#111,#113) ;
#131=LINE('Line',#128,#130) ;
#138=LINE('Line',#135,#137) ;
#145=LINE('Line',#142,#144) ;
#162=LINE('Line',#159,#161) ;
#167=LINE('Line',#164,#166) ;
#212=LINE('Line',#209,#211) ;
#221=LINE('Line',#218,#220) ;
#228=LINE('Line',#225,#227) ;
#235=LINE('Line',#232,#234) ;
#252=LINE('Line',#249,#251) ;
#261=LINE('Line',#258,#260) ;
#266=LINE('Line',#263,#265) ;
#283=LINE('Line',#280,#282) ;
#299=LINE('Line',#296,#298) ;
#315=LINE('Line',#312,#314) ;
#331=LINE('Line',#328,#330) ;
#367=LINE('Line',#364,#366) ;
#376=LINE('Line',#373,#375) ;
#383=LINE('Line',#380,#382) ;
#390=LINE('Line',#387,#389) ;
#397=LINE('Line',#394,#396) ;
#404=LINE('Line',#401,#403) ;
#411=LINE('Line',#408,#410) ;
#418=LINE('Line',#415,#417) ;
#453=LINE('Line',#450,#452) ;
#460=LINE('Line',#457,#459) ;
#467=LINE('Line',#464,#466) ;
#484=LINE('Line',#481,#483) ;
#491=LINE('Line',#488,#490) ;
#508=LINE('Line',#505,#507) ;
#515=LINE('Line',#512,#514) ;
#532=LINE('Line',#529,#531) ;
#537=LINE('Line',#534,#536) ;
#598=LINE('Line',#595,#597) ;
#607=LINE('Line',#604,#606) ;
#614=LINE('Line',#611,#613) ;
#621=LINE('Line',#618,#620) ;
#670=LINE('Line',#667,#669) ;
#677=LINE('Line',#674,#676) ;
#684=LINE('Line',#681,#683) ;
#691=LINE('Line',#688,#690) ;
#750=LINE('Line',#747,#749) ;
#764=LINE('Line',#761,#763) ;
#793=LINE('Line',#790,#792) ;
#807=LINE('Line',#804,#806) ;
#845=LINE('Line',#842,#844) ;
#850=LINE('Line',#847,#849) ;
#868=LINE('Line',#865,#867) ;
#882=LINE('Line',#879,#881) ;
#911=LINE('Line',#908,#910) ;
#925=LINE('Line',#922,#924) ;
#985=LINE('Line',#982,#984) ;
#999=LINE('Line',#996,#998) ;
#1043=LINE('Line',#1040,#1042) ;
#1052=LINE('Line',#1049,#1051) ;
#1057=LINE('Line',#1054,#1056) ;
#1074=LINE('Line',#1071,#1073) ;
#1079=LINE('Line',#1076,#1078) ;
#1152=LINE('Line',#1149,#1151) ;
#1161=LINE('Line',#1158,#1160) ;
#1168=LINE('Line',#1165,#1167) ;
#1175=LINE('Line',#1172,#1174) ;
#1187=LINE('Line',#1184,#1186) ;
#1194=LINE('Line',#1191,#1193) ;
#1201=LINE('Line',#1198,#1200) ;
#1218=LINE('Line',#1215,#1217) ;
#1223=LINE('Line',#1220,#1222) ;
#1236=LINE('Line',#1233,#1235) ;
#1241=LINE('Line',#1238,#1240) ;
#1273=LINE('Line',#1270,#1272) ;
#1280=LINE('Line',#1277,#1279) ;
#1296=LINE('Line',#1293,#1295) ;
#1303=LINE('Line',#1300,#1302) ;
#1315=LINE('Line',#1312,#1314) ;
#1335=LINE('Line',#1332,#1334) ;
#1344=LINE('Line',#1341,#1343) ;
#1351=LINE('Line',#1348,#1350) ;
#1358=LINE('Line',#1355,#1357) ;
#1375=LINE('Line',#1372,#1374) ;
#1382=LINE('Line',#1379,#1381) ;
#1389=LINE('Line',#1386,#1388) ;
#1406=LINE('Line',#1403,#1405) ;
#1413=LINE('Line',#1410,#1412) ;
#1430=LINE('Line',#1427,#1429) ;
#1437=LINE('Line',#1434,#1436) ;
#1449=LINE('Line',#1446,#1448) ;
#1475=LINE('Line',#1472,#1474) ;
#1484=LINE('Line',#1481,#1483) ;
#1491=LINE('Line',#1488,#1490) ;
#1498=LINE('Line',#1495,#1497) ;
#1515=LINE('Line',#1512,#1514) ;
#1522=LINE('Line',#1519,#1521) ;
#1529=LINE('Line',#1526,#1528) ;
#1546=LINE('Line',#1543,#1545) ;
#1553=LINE('Line',#1550,#1552) ;
#1570=LINE('Line',#1567,#1569) ;
#1577=LINE('Line',#1574,#1576) ;
#1589=LINE('Line',#1586,#1588) ;
#1614=LINE('Line',#1611,#1613) ;
#1622=LINE('Line',#1619,#1621) ;
#1630=LINE('Line',#1627,#1629) ;
#1638=LINE('Line',#1635,#1637) ;
#1646=LINE('Line',#1643,#1645) ;
#1676=LINE('Line',#1673,#1675) ;
#1684=LINE('Line',#1681,#1683) ;
#1692=LINE('Line',#1689,#1691) ;
#1701=LINE('Line',#1698,#1700) ;
#1709=LINE('Line',#1706,#1708) ;
#1717=LINE('Line',#1714,#1716) ;
#1725=LINE('Line',#1722,#1724) ;
#2=MECHANICAL_CONTEXT(' ',#1,'mechanical') ;
#24=PERSONAL_ADDRESS(' ',' ',' ',' ',' ',' ',' ',' ',' ',' ',' ',' ',(#22),' ') ;
#56=PLANE('',#55) ;
#96=PLANE('',#95) ;
#127=PLANE('',#126) ;
#158=PLANE('',#157) ;
#180=PLANE('',#179) ;
#192=PLANE('',#191) ;
#208=PLANE('',#207) ;
#248=PLANE('',#247) ;
#279=PLANE('',#278) ;
#295=PLANE('',#294) ;
#439=PLANE('',#438) ;
#449=PLANE('',#448) ;
#480=PLANE('',#479) ;
#504=PLANE('',#503) ;
#528=PLANE('',#527) ;
#552=PLANE('',#551) ;
#950=PLANE('',#949) ;
#1029=PLANE('',#1028) ;
#1039=PLANE('',#1038) ;
#1070=PLANE('',#1069) ;
#1098=PLANE('',#1097) ;
#1148=PLANE('',#1147) ;
#1214=PLANE('',#1213) ;
#1255=PLANE('',#1254) ;
#1292=PLANE('',#1291) ;
#1371=PLANE('',#1370) ;
#1402=PLANE('',#1401) ;
#1426=PLANE('',#1425) ;
#1462=PLANE('',#1461) ;
#1511=PLANE('',#1510) ;
#1542=PLANE('',#1541) ;
#1566=PLANE('',#1565) ;
#1602=PLANE('',#1601) ;
#43=PLANE_ANGLE_MEASURE_WITH_UNIT(PLANE_ANGLE_MEASURE(0.0174532925199),#42) ;
#7=PRODUCT_CATEGORY('part',$) ;
#9=PRODUCT_CATEGORY_RELATIONSHIP(' ',' ',#7,#8) ;
#6=PRODUCT_DEFINITION_FORMATION_WITH_SPECIFIED_SOURCE('',' ',#5,.NOT_KNOWN.) ;
#8=PRODUCT_RELATED_PRODUCT_CATEGORY('detail',$,(#5)) ;
#50=SHAPE_DEFINITION_REPRESENTATION(#40,#49) ;
#1617=TRIMMED_CURVE('',#1614,(#1615),(#1616),.F.,.CARTESIAN.) ;
#1625=TRIMMED_CURVE('',#1622,(#1623),(#1624),.F.,.CARTESIAN.) ;
#1633=TRIMMED_CURVE('',#1630,(#1631),(#1632),.F.,.CARTESIAN.) ;
#1641=TRIMMED_CURVE('',#1638,(#1639),(#1640),.F.,.CARTESIAN.) ;
#1649=TRIMMED_CURVE('',#1646,(#1647),(#1648),.F.,.CARTESIAN.) ;
#1662=TRIMMED_CURVE('',#1659,(#1660),(#1661),.T.,.CARTESIAN.) ;
#1670=TRIMMED_CURVE('',#1667,(#1668),(#1669),.T.,.CARTESIAN.) ;
#1679=TRIMMED_CURVE('',#1676,(#1677),(#1678),.T.,.CARTESIAN.) ;
#1687=TRIMMED_CURVE('',#1684,(#1685),(#1686),.F.,.CARTESIAN.) ;
#1695=TRIMMED_CURVE('',#1692,(#1693),(#1694),.F.,.CARTESIAN.) ;
#1704=TRIMMED_CURVE('',#1701,(#1702),(#1703),.T.,.CARTESIAN.) ;
#1712=TRIMMED_CURVE('',#1709,(#1710),(#1711),.T.,.CARTESIAN.) ;
#1720=TRIMMED_CURVE('',#1717,(#1718),(#1719),.T.,.CARTESIAN.) ;
#1728=TRIMMED_CURVE('',#1725,(#1726),(#1727),.T.,.CARTESIAN.) ;
#62=VERTEX_POINT('',#61) ;
#64=VERTEX_POINT('',#63) ;
#71=VERTEX_POINT('',#70) ;
#78=VERTEX_POINT('',#77) ;
#102=VERTEX_POINT('',#101) ;
#109=VERTEX_POINT('',#108) ;
#133=VERTEX_POINT('',#132) ;
#140=VERTEX_POINT('',#139) ;
#214=VERTEX_POINT('',#213) ;
#216=VERTEX_POINT('',#215) ;
#223=VERTEX_POINT('',#222) ;
#230=VERTEX_POINT('',#229) ;
#254=VERTEX_POINT('',#253) ;
#256=VERTEX_POINT('',#255) ;
#317=VERTEX_POINT('',#316) ;
#319=VERTEX_POINT('',#318) ;
#326=VERTEX_POINT('',#325) ;
#333=VERTEX_POINT('',#332) ;
#369=VERTEX_POINT('',#368) ;
#371=VERTEX_POINT('',#370) ;
#378=VERTEX_POINT('',#377) ;
#385=VERTEX_POINT('',#384) ;
#392=VERTEX_POINT('',#391) ;
#399=VERTEX_POINT('',#398) ;
#406=VERTEX_POINT('',#405) ;
#413=VERTEX_POINT('',#412) ;
#455=VERTEX_POINT('',#454) ;
#462=VERTEX_POINT('',#461) ;
#486=VERTEX_POINT('',#485) ;
#510=VERTEX_POINT('',#509) ;
#558=VERTEX_POINT('',#557) ;
#560=VERTEX_POINT('',#559) ;
#582=VERTEX_POINT('',#581) ;
#584=VERTEX_POINT('',#583) ;
#600=VERTEX_POINT('',#599) ;
#602=VERTEX_POINT('',#601) ;
#609=VERTEX_POINT('',#608) ;
#616=VERTEX_POINT('',#615) ;
#634=VERTEX_POINT('',#633) ;
#641=VERTEX_POINT('',#640) ;
#653=VERTEX_POINT('',#652) ;
#672=VERTEX_POINT('',#671) ;
#679=VERTEX_POINT('',#678) ;
#686=VERTEX_POINT('',#685) ;
#710=VERTEX_POINT('',#709) ;
#712=VERTEX_POINT('',#711) ;
#728=VERTEX_POINT('',#727) ;
#730=VERTEX_POINT('',#729) ;
#752=VERTEX_POINT('',#751) ;
#759=VERTEX_POINT('',#758) ;
#795=VERTEX_POINT('',#794) ;
#802=VERTEX_POINT('',#801) ;
#838=VERTEX_POINT('',#837) ;
#840=VERTEX_POINT('',#839) ;
#870=VERTEX_POINT('',#869) ;
#877=VERTEX_POINT('',#876) ;
#913=VERTEX_POINT('',#912) ;
#920=VERTEX_POINT('',#919) ;
#978=VERTEX_POINT('',#977) ;
#980=VERTEX_POINT('',#979) ;
#987=VERTEX_POINT('',#986) ;
#994=VERTEX_POINT('',#993) ;
#1045=VERTEX_POINT('',#1044) ;
#1047=VERTEX_POINT('',#1046) ;
#1115=VERTEX_POINT('',#1114) ;
#1154=VERTEX_POINT('',#1153) ;
#1156=VERTEX_POINT('',#1155) ;
#1163=VERTEX_POINT('',#1162) ;
#1170=VERTEX_POINT('',#1169) ;
#1189=VERTEX_POINT('',#1188) ;
#1196=VERTEX_POINT('',#1195) ;
#1275=VERTEX_POINT('',#1274) ;
#1298=VERTEX_POINT('',#1297) ;
#1337=VERTEX_POINT('',#1336) ;
#1339=VERTEX_POINT('',#1338) ;
#1346=VERTEX_POINT('',#1345) ;
#1353=VERTEX_POINT('',#1352) ;
#1377=VERTEX_POINT('',#1376) ;
#1384=VERTEX_POINT('',#1383) ;
#1408=VERTEX_POINT('',#1407) ;
#1432=VERTEX_POINT('',#1431) ;
#1477=VERTEX_POINT('',#1476) ;
#1479=VERTEX_POINT('',#1478) ;
#1486=VERTEX_POINT('',#1485) ;
#1493=VERTEX_POINT('',#1492) ;
#1517=VERTEX_POINT('',#1516) ;
#1524=VERTEX_POINT('',#1523) ;
#1548=VERTEX_POINT('',#1547) ;
#1572=VERTEX_POINT('',#1571) ;
#41=(LENGTH_UNIT()NAMED_UNIT(*)SI_UNIT(.MILLI.,.METRE.)) ;
#42=(NAMED_UNIT(*)PLANE_ANGLE_UNIT()SI_UNIT($,.RADIAN.)) ;
#44=(NAMED_UNIT(*)SI_UNIT($,.STERADIAN.)SOLID_ANGLE_UNIT()) ;
#46=(GEOMETRIC_REPRESENTATION_CONTEXT(3)GLOBAL_UNCERTAINTY_ASSIGNED_CONTEXT((#45))GLOBAL_UNIT_ASSIGNED_CONTEXT((#41,#42,#44))REPRESENTATION_CONTEXT(' ',' ')) ;
ENDSEC;
END-ISO-10303-21;
