ISO-10303-21;
HEADER;
FILE_DESCRIPTION(('CATIA V5 STEP Exchange'),'2;1');

FILE_NAME('C:\\Users\\laurc\\OneDrive\\Desktop\\robot puma nou\\brat2.stp','2024-06-06T13:55:04+00:00',('none'),('none'),'CATIA Version 5 Release 21 GA (IN-10)','CATIA V5 STEP AP203','none');

FILE_SCHEMA(('CONFIG_CONTROL_DESIGN'));

ENDSEC;
/* file written by CATIA V5R21 */
DATA;
#5=PRODUCT('brat2','','',(#2)) ;
#1=APPLICATION_CONTEXT('configuration controlled 3D design of mechanical parts and assemblies') ;
#14=PRODUCT_DEFINITION('',' ',#6,#3) ;
#16=SECURITY_CLASSIFICATION(' ',' ',#15) ;
#15=SECURITY_CLASSIFICATION_LEVEL('unclassified') ;
#47=CARTESIAN_POINT(' ',(0.,0.,0.)) ;
#52=CARTESIAN_POINT('Axis2P3D Location',(0.,20.,5.)) ;
#57=CARTESIAN_POINT('Axis2P3D Location',(0.,20.,5.)) ;
#61=CARTESIAN_POINT('Vertex',(-8.7758256189,15.205744614,5.)) ;
#63=CARTESIAN_POINT('Vertex',(8.7758256189,24.794255386,5.)) ;
#66=CARTESIAN_POINT('Axis2P3D Location',(0.,20.,5.)) ;
#76=CARTESIAN_POINT('Axis2P3D Location',(0.,235.5,24.9)) ;
#81=CARTESIAN_POINT('Axis2P3D Location',(0.,235.5,25.)) ;
#85=CARTESIAN_POINT('Vertex',(8.7758256189,230.705744614,25.)) ;
#87=CARTESIAN_POINT('Vertex',(-8.7758256189,240.294255386,25.)) ;
#90=CARTESIAN_POINT('Line Origine',(8.7758256189,230.705744614,10.1550000001)) ;
#94=CARTESIAN_POINT('Vertex',(8.7758256189,230.705744614,-5.)) ;
#97=CARTESIAN_POINT('Axis2P3D Location',(0.,235.5,-5.)) ;
#101=CARTESIAN_POINT('Vertex',(-8.7758256189,240.294255386,-5.)) ;
#104=CARTESIAN_POINT('Line Origine',(-8.7758256189,240.294255386,10.1550000001)) ;
#116=CARTESIAN_POINT('Axis2P3D Location',(0.,235.5,25.)) ;
#121=CARTESIAN_POINT('Axis2P3D Location',(0.,235.5,-5.)) ;
#133=CARTESIAN_POINT('Axis2P3D Location',(0.,235.5,-5.)) ;
#143=CARTESIAN_POINT('Axis2P3D Location',(0.,20.,-24.9)) ;
#148=CARTESIAN_POINT('Axis2P3D Location',(0.,20.,-25.)) ;
#152=CARTESIAN_POINT('Vertex',(-8.7758256189,15.205744614,-25.)) ;
#154=CARTESIAN_POINT('Vertex',(8.7758256189,24.794255386,-25.)) ;
#157=CARTESIAN_POINT('Line Origine',(-8.7758256189,15.205744614,-10.1550000001)) ;
#162=CARTESIAN_POINT('Line Origine',(8.7758256189,24.794255386,-10.1550000001)) ;
#174=CARTESIAN_POINT('Axis2P3D Location',(0.,20.,-25.)) ;
#186=CARTESIAN_POINT('Axis2P3D Location',(0.,0.,0.)) ;
#191=CARTESIAN_POINT('Line Origine',(3.5527136788E-015,0.,-20.)) ;
#195=CARTESIAN_POINT('Vertex',(20.,0.,-20.)) ;
#197=CARTESIAN_POINT('Vertex',(-20.,0.,-20.)) ;
#200=CARTESIAN_POINT('Line Origine',(20.,0.,0.)) ;
#204=CARTESIAN_POINT('Vertex',(20.,0.,20.)) ;
#207=CARTESIAN_POINT('Line Origine',(3.5527136788E-015,0.,20.)) ;
#211=CARTESIAN_POINT('Vertex',(-20.,0.,20.)) ;
#214=CARTESIAN_POINT('Line Origine',(-20.,0.,0.)) ;
#226=CARTESIAN_POINT('Axis2P3D Location',(0.,5.,-20.)) ;
#232=CARTESIAN_POINT('Control Point',(-20.,5.55111512313E-017,-20.)) ;
#233=CARTESIAN_POINT('Control Point',(-20.6183506382,-5.92923063078E-017,-20.6183502253)) ;
#234=CARTESIAN_POINT('Control Point',(-21.2366445056,0.0955892502712,-21.2367633359)) ;
#235=CARTESIAN_POINT('Control Point',(-21.842717063,0.285745512888,-21.8427177998)) ;
#236=CARTESIAN_POINT('Control Point',(-22.8199487764,0.771144246752,-22.8199482921)) ;
#237=CARTESIAN_POINT('Control Point',(-23.6815007647,1.56826524693,-23.6815010831)) ;
#238=CARTESIAN_POINT('Control Point',(-23.9997413256,1.93784666265,-23.9997417885)) ;
#239=CARTESIAN_POINT('Control Point',(-24.5060057489,2.70385670611,-24.5060053777)) ;
#240=CARTESIAN_POINT('Control Point',(-24.8405611646,3.63448141473,-24.8405614623)) ;
#241=CARTESIAN_POINT('Control Point',(-24.9468741217,4.07803830891,-24.9468741217)) ;
#242=CARTESIAN_POINT('Control Point',(-25.,4.53901896663,-25.)) ;
#243=CARTESIAN_POINT('Control Point',(-25.,5.,-25.)) ;
#244=CARTESIAN_POINT('Vertex',(-25.,5.,-25.)) ;
#247=CARTESIAN_POINT('Line Origine',(0.,5.,-25.)) ;
#251=CARTESIAN_POINT('Vertex',(25.,5.,-25.)) ;
#255=CARTESIAN_POINT('Control Point',(20.,1.66533453694E-016,-20.)) ;
#256=CARTESIAN_POINT('Control Point',(20.6183506763,1.35525271561E-016,-20.618350232)) ;
#257=CARTESIAN_POINT('Control Point',(21.2366361753,0.0955892523537,-21.2367621205)) ;
#258=CARTESIAN_POINT('Control Point',(21.842717063,0.285745512886,-21.8427177998)) ;
#259=CARTESIAN_POINT('Control Point',(22.8199487765,0.77114424675,-22.8199482921)) ;
#260=CARTESIAN_POINT('Control Point',(23.6815007647,1.56826524693,-23.6815010831)) ;
#261=CARTESIAN_POINT('Control Point',(23.9997413256,1.93784666264,-23.9997417885)) ;
#262=CARTESIAN_POINT('Control Point',(24.5060057489,2.70385670609,-24.5060053777)) ;
#263=CARTESIAN_POINT('Control Point',(24.8405611646,3.63448141471,-24.8405614623)) ;
#264=CARTESIAN_POINT('Control Point',(24.9468741217,4.07803830893,-24.9468741217)) ;
#265=CARTESIAN_POINT('Control Point',(25.,4.53901896664,-25.)) ;
#266=CARTESIAN_POINT('Control Point',(25.,5.,-25.)) ;
#275=CARTESIAN_POINT('Axis2P3D Location',(-20.,5.,-7.1054273576E-015)) ;
#281=CARTESIAN_POINT('Control Point',(-20.,-2.77555756156E-017,20.)) ;
#282=CARTESIAN_POINT('Control Point',(-20.6183502282,7.19978005166E-016,20.618350672)) ;
#283=CARTESIAN_POINT('Control Point',(-21.2367632366,0.0955892511863,21.2366373334)) ;
#284=CARTESIAN_POINT('Control Point',(-21.8427177999,0.285745512897,21.842717063)) ;
#285=CARTESIAN_POINT('Control Point',(-22.8199482921,0.771144246756,22.8199487765)) ;
#286=CARTESIAN_POINT('Control Point',(-23.6815010831,1.56826524693,23.6815007647)) ;
#287=CARTESIAN_POINT('Control Point',(-23.9997417885,1.93784666264,23.9997413256)) ;
#288=CARTESIAN_POINT('Control Point',(-24.5060053777,2.7038567061,24.5060057489)) ;
#289=CARTESIAN_POINT('Control Point',(-24.8405614623,3.63448141471,24.8405611646)) ;
#290=CARTESIAN_POINT('Control Point',(-24.9468741217,4.07803830893,24.9468741217)) ;
#291=CARTESIAN_POINT('Control Point',(-25.,4.53901896664,25.)) ;
#292=CARTESIAN_POINT('Control Point',(-25.,5.,25.)) ;
#293=CARTESIAN_POINT('Vertex',(-25.,5.,25.)) ;
#296=CARTESIAN_POINT('Line Origine',(-25.,5.,-7.1054273576E-015)) ;
#308=CARTESIAN_POINT('Axis2P3D Location',(0.,5.,20.)) ;
#314=CARTESIAN_POINT('Control Point',(20.,-1.38777878078E-016,20.)) ;
#315=CARTESIAN_POINT('Control Point',(20.618350659,-9.3173624198E-017,20.6183502398)) ;
#316=CARTESIAN_POINT('Control Point',(21.2366410872,0.0955892547747,21.2367598363)) ;
#317=CARTESIAN_POINT('Control Point',(21.842717063,0.285745512896,21.8427177999)) ;
#318=CARTESIAN_POINT('Control Point',(22.8199487765,0.771144246753,22.8199482921)) ;
#319=CARTESIAN_POINT('Control Point',(23.6815007647,1.56826524693,23.6815010831)) ;
#320=CARTESIAN_POINT('Control Point',(23.9997413256,1.93784666264,23.9997417885)) ;
#321=CARTESIAN_POINT('Control Point',(24.5060057489,2.70385670608,24.5060053777)) ;
#322=CARTESIAN_POINT('Control Point',(24.8405611646,3.63448141467,24.8405614623)) ;
#323=CARTESIAN_POINT('Control Point',(24.9468741217,4.07803830898,24.9468741217)) ;
#324=CARTESIAN_POINT('Control Point',(25.,4.53901896666,25.)) ;
#325=CARTESIAN_POINT('Control Point',(25.,5.,25.)) ;
#326=CARTESIAN_POINT('Vertex',(25.,5.,25.)) ;
#329=CARTESIAN_POINT('Line Origine',(0.,5.,25.)) ;
#341=CARTESIAN_POINT('Axis2P3D Location',(20.,5.,0.)) ;
#346=CARTESIAN_POINT('Line Origine',(25.,5.,0.)) ;
#358=CARTESIAN_POINT('Axis2P3D Location',(0.,255.5,0.)) ;
#363=CARTESIAN_POINT('Line Origine',(-20.,255.5,0.)) ;
#367=CARTESIAN_POINT('Vertex',(-20.,255.5,-20.)) ;
#369=CARTESIAN_POINT('Vertex',(-20.,255.5,20.)) ;
#372=CARTESIAN_POINT('Line Origine',(3.5527136788E-015,255.5,20.)) ;
#376=CARTESIAN_POINT('Vertex',(20.,255.5,20.)) ;
#379=CARTESIAN_POINT('Line Origine',(20.,255.5,0.)) ;
#383=CARTESIAN_POINT('Vertex',(20.,255.5,-20.)) ;
#386=CARTESIAN_POINT('Line Origine',(3.5527136788E-015,255.5,-20.)) ;
#398=CARTESIAN_POINT('Axis2P3D Location',(-25.,0.,-25.)) ;
#403=CARTESIAN_POINT('Line Origine',(-25.,127.75,-25.)) ;
#407=CARTESIAN_POINT('Vertex',(-25.,250.5,-25.)) ;
#410=CARTESIAN_POINT('Line Origine',(-25.,127.75,25.)) ;
#414=CARTESIAN_POINT('Vertex',(-25.,250.5,25.)) ;
#417=CARTESIAN_POINT('Line Origine',(-25.,250.5,-3.5527136788E-015)) ;
#429=CARTESIAN_POINT('Axis2P3D Location',(25.,0.,25.)) ;
#434=CARTESIAN_POINT('Line Origine',(7.1054273576E-015,250.5,25.)) ;
#438=CARTESIAN_POINT('Vertex',(25.,250.5,25.)) ;
#441=CARTESIAN_POINT('Line Origine',(25.,127.75,25.)) ;
#457=CARTESIAN_POINT('Axis2P3D Location',(25.,0.,25.)) ;
#462=CARTESIAN_POINT('Line Origine',(25.,127.75,-25.)) ;
#466=CARTESIAN_POINT('Vertex',(25.,250.5,-25.)) ;
#469=CARTESIAN_POINT('Line Origine',(25.,250.5,0.)) ;
#481=CARTESIAN_POINT('Axis2P3D Location',(-25.,0.,-25.)) ;
#486=CARTESIAN_POINT('Line Origine',(0.,250.5,-25.)) ;
#502=CARTESIAN_POINT('Axis2P3D Location',(3.5527136788E-015,250.5,-20.)) ;
#508=CARTESIAN_POINT('Control Point',(-25.,250.5,-25.)) ;
#509=CARTESIAN_POINT('Control Point',(-25.,250.960980086,-25.)) ;
#510=CARTESIAN_POINT('Control Point',(-24.94687434,251.421959797,-24.94687434)) ;
#511=CARTESIAN_POINT('Control Point',(-24.8405611996,251.86552018,-24.8405609019)) ;
#512=CARTESIAN_POINT('Control Point',(-24.4385018961,252.983913546,-24.4385024023)) ;
#513=CARTESIAN_POINT('Control Point',(-23.7884579744,253.864562746,-23.7884571138)) ;
#514=CARTESIAN_POINT('Control Point',(-23.3192650257,254.314649213,-23.3192645271)) ;
#515=CARTESIAN_POINT('Control Point',(-22.3989402692,254.970247298,-22.3989406915)) ;
#516=CARTESIAN_POINT('Control Point',(-21.4032376456,255.334936494,-21.4032372879)) ;
#517=CARTESIAN_POINT('Control Point',(-20.9387714889,255.44491511,-20.9388401146)) ;
#518=CARTESIAN_POINT('Control Point',(-20.4694037135,255.5,-20.4694034078)) ;
#519=CARTESIAN_POINT('Control Point',(-20.,255.5,-20.)) ;
#522=CARTESIAN_POINT('Control Point',(25.,250.5,-25.)) ;
#523=CARTESIAN_POINT('Control Point',(25.,250.960980086,-25.)) ;
#524=CARTESIAN_POINT('Control Point',(24.94687434,251.421959797,-24.94687434)) ;
#525=CARTESIAN_POINT('Control Point',(24.8405611996,251.86552018,-24.8405609019)) ;
#526=CARTESIAN_POINT('Control Point',(24.4385018962,252.983913546,-24.4385024023)) ;
#527=CARTESIAN_POINT('Control Point',(23.7884579744,253.864562746,-23.7884571138)) ;
#528=CARTESIAN_POINT('Control Point',(23.3192650257,254.314649213,-23.3192645271)) ;
#529=CARTESIAN_POINT('Control Point',(22.3989402692,254.970247298,-22.3989406915)) ;
#530=CARTESIAN_POINT('Control Point',(21.4032376456,255.334936494,-21.4032372879)) ;
#531=CARTESIAN_POINT('Control Point',(20.9387720522,255.444915114,-20.9388406142)) ;
#532=CARTESIAN_POINT('Control Point',(20.4694037077,255.5,-20.4694033898)) ;
#533=CARTESIAN_POINT('Control Point',(20.,255.5,-20.)) ;
#542=CARTESIAN_POINT('Axis2P3D Location',(-20.,250.5,-7.1054273576E-015)) ;
#548=CARTESIAN_POINT('Control Point',(-25.,250.5,25.)) ;
#549=CARTESIAN_POINT('Control Point',(-25.,250.960980087,25.)) ;
#550=CARTESIAN_POINT('Control Point',(-24.94687434,251.421959797,24.94687434)) ;
#551=CARTESIAN_POINT('Control Point',(-24.8405609019,251.86552018,24.8405611996)) ;
#552=CARTESIAN_POINT('Control Point',(-24.4385024023,252.983913546,24.4385018962)) ;
#553=CARTESIAN_POINT('Control Point',(-23.7884571138,253.864562746,23.7884579744)) ;
#554=CARTESIAN_POINT('Control Point',(-23.3192645271,254.314649213,23.3192650257)) ;
#555=CARTESIAN_POINT('Control Point',(-22.3989406915,254.970247298,22.3989402692)) ;
#556=CARTESIAN_POINT('Control Point',(-21.4032372879,255.334936494,21.4032376456)) ;
#557=CARTESIAN_POINT('Control Point',(-20.9388428236,255.444915116,20.9387699599)) ;
#558=CARTESIAN_POINT('Control Point',(-20.4694033841,255.5,20.4694037268)) ;
#559=CARTESIAN_POINT('Control Point',(-20.,255.5,20.)) ;
#568=CARTESIAN_POINT('Axis2P3D Location',(3.5527136788E-015,250.5,20.)) ;
#574=CARTESIAN_POINT('Control Point',(25.,250.5,25.)) ;
#575=CARTESIAN_POINT('Control Point',(25.,250.960980086,25.)) ;
#576=CARTESIAN_POINT('Control Point',(24.94687434,251.421959797,24.94687434)) ;
#577=CARTESIAN_POINT('Control Point',(24.8405611996,251.86552018,24.8405609019)) ;
#578=CARTESIAN_POINT('Control Point',(24.4385018961,252.983913546,24.4385024023)) ;
#579=CARTESIAN_POINT('Control Point',(23.7884579744,253.864562746,23.7884571138)) ;
#580=CARTESIAN_POINT('Control Point',(23.3192650257,254.314649213,23.3192645271)) ;
#581=CARTESIAN_POINT('Control Point',(22.3989402692,254.970247298,22.3989406915)) ;
#582=CARTESIAN_POINT('Control Point',(21.4032376456,255.334936494,21.4032372879)) ;
#583=CARTESIAN_POINT('Control Point',(20.9387719546,255.444915117,20.9388448615)) ;
#584=CARTESIAN_POINT('Control Point',(20.4694037162,255.5,20.4694033798)) ;
#585=CARTESIAN_POINT('Control Point',(20.,255.5,20.)) ;
#594=CARTESIAN_POINT('Axis2P3D Location',(20.,250.5,-3.5527136788E-015)) ;
#53=DIRECTION('Axis2P3D Direction',(-0.,0.,1.)) ;
#54=DIRECTION('Axis2P3D XDirection',(1.,0.,0.)) ;
#58=DIRECTION('Axis2P3D Direction',(-0.,0.,1.)) ;
#67=DIRECTION('Axis2P3D Direction',(-0.,0.,1.)) ;
#77=DIRECTION('Axis2P3D Direction',(0.,0.,-1.)) ;
#78=DIRECTION('Axis2P3D XDirection',(0.87758256189,-0.479425538604,0.)) ;
#82=DIRECTION('Axis2P3D Direction',(0.,0.,-1.)) ;
#91=DIRECTION('Vector Direction',(0.,0.,-1.)) ;
#98=DIRECTION('Axis2P3D Direction',(0.,0.,-1.)) ;
#105=DIRECTION('Vector Direction',(0.,0.,-1.)) ;
#117=DIRECTION('Axis2P3D Direction',(0.,0.,-1.)) ;
#122=DIRECTION('Axis2P3D Direction',(0.,0.,-1.)) ;
#134=DIRECTION('Axis2P3D Direction',(0.,0.,-1.)) ;
#135=DIRECTION('Axis2P3D XDirection',(1.,0.,0.)) ;
#144=DIRECTION('Axis2P3D Direction',(-0.,0.,1.)) ;
#145=DIRECTION('Axis2P3D XDirection',(0.87758256189,0.479425538604,0.)) ;
#149=DIRECTION('Axis2P3D Direction',(-0.,0.,1.)) ;
#158=DIRECTION('Vector Direction',(0.,0.,1.)) ;
#163=DIRECTION('Vector Direction',(0.,0.,1.)) ;
#175=DIRECTION('Axis2P3D Direction',(-0.,0.,1.)) ;
#187=DIRECTION('Axis2P3D Direction',(0.,1.,0.)) ;
#188=DIRECTION('Axis2P3D XDirection',(-1.,0.,0.)) ;
#192=DIRECTION('Vector Direction',(1.,0.,0.)) ;
#201=DIRECTION('Vector Direction',(0.,0.,-1.)) ;
#208=DIRECTION('Vector Direction',(-1.,0.,0.)) ;
#215=DIRECTION('Vector Direction',(0.,0.,1.)) ;
#227=DIRECTION('Axis2P3D Direction',(1.,0.,0.)) ;
#228=DIRECTION('Axis2P3D XDirection',(0.,-1.,0.)) ;
#248=DIRECTION('Vector Direction',(1.,0.,0.)) ;
#276=DIRECTION('Axis2P3D Direction',(0.,0.,1.)) ;
#277=DIRECTION('Axis2P3D XDirection',(-1.,1.83690953073E-016,0.)) ;
#297=DIRECTION('Vector Direction',(0.,0.,1.)) ;
#309=DIRECTION('Axis2P3D Direction',(-1.,0.,0.)) ;
#310=DIRECTION('Axis2P3D XDirection',(0.,-1.,0.)) ;
#330=DIRECTION('Vector Direction',(-1.,0.,0.)) ;
#342=DIRECTION('Axis2P3D Direction',(0.,0.,-1.)) ;
#343=DIRECTION('Axis2P3D XDirection',(1.,1.83690953073E-016,0.)) ;
#347=DIRECTION('Vector Direction',(0.,0.,-1.)) ;
#359=DIRECTION('Axis2P3D Direction',(0.,1.,0.)) ;
#360=DIRECTION('Axis2P3D XDirection',(-1.,0.,0.)) ;
#364=DIRECTION('Vector Direction',(0.,0.,1.)) ;
#373=DIRECTION('Vector Direction',(-1.,0.,0.)) ;
#380=DIRECTION('Vector Direction',(0.,0.,-1.)) ;
#387=DIRECTION('Vector Direction',(1.,0.,0.)) ;
#399=DIRECTION('Axis2P3D Direction',(-1.,0.,0.)) ;
#400=DIRECTION('Axis2P3D XDirection',(0.,0.,1.)) ;
#404=DIRECTION('Vector Direction',(0.,1.,0.)) ;
#411=DIRECTION('Vector Direction',(0.,1.,0.)) ;
#418=DIRECTION('Vector Direction',(0.,0.,1.)) ;
#430=DIRECTION('Axis2P3D Direction',(0.,0.,-1.)) ;
#431=DIRECTION('Axis2P3D XDirection',(-1.,0.,0.)) ;
#435=DIRECTION('Vector Direction',(-1.,0.,0.)) ;
#442=DIRECTION('Vector Direction',(0.,1.,0.)) ;
#458=DIRECTION('Axis2P3D Direction',(1.,0.,-0.)) ;
#459=DIRECTION('Axis2P3D XDirection',(-0.,0.,-1.)) ;
#463=DIRECTION('Vector Direction',(0.,1.,0.)) ;
#470=DIRECTION('Vector Direction',(0.,0.,-1.)) ;
#482=DIRECTION('Axis2P3D Direction',(-0.,0.,1.)) ;
#483=DIRECTION('Axis2P3D XDirection',(1.,-0.,0.)) ;
#487=DIRECTION('Vector Direction',(1.,0.,0.)) ;
#503=DIRECTION('Axis2P3D Direction',(1.,0.,0.)) ;
#504=DIRECTION('Axis2P3D XDirection',(0.,0.,-1.)) ;
#543=DIRECTION('Axis2P3D Direction',(0.,0.,1.)) ;
#544=DIRECTION('Axis2P3D XDirection',(1.83690953073E-016,1.,-0.)) ;
#569=DIRECTION('Axis2P3D Direction',(-1.,0.,0.)) ;
#570=DIRECTION('Axis2P3D XDirection',(0.,0.,1.)) ;
#595=DIRECTION('Axis2P3D Direction',(0.,0.,-1.)) ;
#596=DIRECTION('Axis2P3D XDirection',(-1.83690953073E-016,1.,-0.)) ;
#48=AXIS2_PLACEMENT_3D(' ',#47,$,$) ;
#55=AXIS2_PLACEMENT_3D('Plane Axis2P3D',#52,#53,#54) ;
#59=AXIS2_PLACEMENT_3D('Circle Axis2P3D',#57,#58,$) ;
#68=AXIS2_PLACEMENT_3D('Circle Axis2P3D',#66,#67,$) ;
#79=AXIS2_PLACEMENT_3D('Cylinder Axis2P3D',#76,#77,#78) ;
#83=AXIS2_PLACEMENT_3D('Circle Axis2P3D',#81,#82,$) ;
#99=AXIS2_PLACEMENT_3D('Circle Axis2P3D',#97,#98,$) ;
#118=AXIS2_PLACEMENT_3D('Circle Axis2P3D',#116,#117,$) ;
#123=AXIS2_PLACEMENT_3D('Circle Axis2P3D',#121,#122,$) ;
#136=AXIS2_PLACEMENT_3D('Plane Axis2P3D',#133,#134,#135) ;
#146=AXIS2_PLACEMENT_3D('Cylinder Axis2P3D',#143,#144,#145) ;
#150=AXIS2_PLACEMENT_3D('Circle Axis2P3D',#148,#149,$) ;
#176=AXIS2_PLACEMENT_3D('Circle Axis2P3D',#174,#175,$) ;
#189=AXIS2_PLACEMENT_3D('Plane Axis2P3D',#186,#187,#188) ;
#229=AXIS2_PLACEMENT_3D('Cylinder Axis2P3D',#226,#227,#228) ;
#278=AXIS2_PLACEMENT_3D('Cylinder Axis2P3D',#275,#276,#277) ;
#311=AXIS2_PLACEMENT_3D('Cylinder Axis2P3D',#308,#309,#310) ;
#344=AXIS2_PLACEMENT_3D('Cylinder Axis2P3D',#341,#342,#343) ;
#361=AXIS2_PLACEMENT_3D('Plane Axis2P3D',#358,#359,#360) ;
#401=AXIS2_PLACEMENT_3D('Plane Axis2P3D',#398,#399,#400) ;
#432=AXIS2_PLACEMENT_3D('Plane Axis2P3D',#429,#430,#431) ;
#460=AXIS2_PLACEMENT_3D('Plane Axis2P3D',#457,#458,#459) ;
#484=AXIS2_PLACEMENT_3D('Plane Axis2P3D',#481,#482,#483) ;
#505=AXIS2_PLACEMENT_3D('Cylinder Axis2P3D',#502,#503,#504) ;
#545=AXIS2_PLACEMENT_3D('Cylinder Axis2P3D',#542,#543,#544) ;
#571=AXIS2_PLACEMENT_3D('Cylinder Axis2P3D',#568,#569,#570) ;
#597=AXIS2_PLACEMENT_3D('Cylinder Axis2P3D',#594,#595,#596) ;
#40=PRODUCT_DEFINITION_SHAPE(' ',' ',#14) ;
#31=APPROVAL_PERSON_ORGANIZATION(#25,#21,#19) ;
#25=PERSON_AND_ORGANIZATION(#22,#23) ;
#22=PERSON(' ',' ',' ',$,$,$) ;
#23=ORGANIZATION(' ',' ',' ') ;
#21=APPROVAL(#20,' ') ;
#20=APPROVAL_STATUS('not_yet_approved') ;
#19=APPROVAL_ROLE('APPROVER') ;
#13=DATE_AND_TIME(#11,#12) ;
#12=LOCAL_TIME(16,55,4.,#10) ;
#10=COORDINATED_UNIVERSAL_TIME_OFFSET(0,0,.AHEAD.) ;
#72=ORIENTED_EDGE('',*,*,#65,.F.) ;
#73=ORIENTED_EDGE('',*,*,#70,.F.) ;
#110=ORIENTED_EDGE('',*,*,#89,.F.) ;
#111=ORIENTED_EDGE('',*,*,#96,.F.) ;
#112=ORIENTED_EDGE('',*,*,#103,.T.) ;
#113=ORIENTED_EDGE('',*,*,#108,.T.) ;
#127=ORIENTED_EDGE('',*,*,#120,.F.) ;
#128=ORIENTED_EDGE('',*,*,#108,.F.) ;
#129=ORIENTED_EDGE('',*,*,#125,.T.) ;
#130=ORIENTED_EDGE('',*,*,#96,.T.) ;
#139=ORIENTED_EDGE('',*,*,#125,.F.) ;
#140=ORIENTED_EDGE('',*,*,#103,.F.) ;
#168=ORIENTED_EDGE('',*,*,#156,.F.) ;
#169=ORIENTED_EDGE('',*,*,#161,.F.) ;
#170=ORIENTED_EDGE('',*,*,#65,.T.) ;
#171=ORIENTED_EDGE('',*,*,#166,.T.) ;
#180=ORIENTED_EDGE('',*,*,#178,.F.) ;
#181=ORIENTED_EDGE('',*,*,#166,.F.) ;
#182=ORIENTED_EDGE('',*,*,#70,.T.) ;
#183=ORIENTED_EDGE('',*,*,#161,.T.) ;
#220=ORIENTED_EDGE('',*,*,#199,.F.) ;
#221=ORIENTED_EDGE('',*,*,#206,.F.) ;
#222=ORIENTED_EDGE('',*,*,#213,.F.) ;
#223=ORIENTED_EDGE('',*,*,#218,.F.) ;
#269=ORIENTED_EDGE('',*,*,#246,.T.) ;
#270=ORIENTED_EDGE('',*,*,#253,.F.) ;
#271=ORIENTED_EDGE('',*,*,#267,.F.) ;
#272=ORIENTED_EDGE('',*,*,#199,.T.) ;
#302=ORIENTED_EDGE('',*,*,#295,.T.) ;
#303=ORIENTED_EDGE('',*,*,#300,.F.) ;
#304=ORIENTED_EDGE('',*,*,#246,.F.) ;
#305=ORIENTED_EDGE('',*,*,#218,.T.) ;
#335=ORIENTED_EDGE('',*,*,#328,.T.) ;
#336=ORIENTED_EDGE('',*,*,#333,.F.) ;
#337=ORIENTED_EDGE('',*,*,#295,.F.) ;
#338=ORIENTED_EDGE('',*,*,#213,.T.) ;
#352=ORIENTED_EDGE('',*,*,#267,.T.) ;
#353=ORIENTED_EDGE('',*,*,#350,.F.) ;
#354=ORIENTED_EDGE('',*,*,#328,.F.) ;
#355=ORIENTED_EDGE('',*,*,#206,.T.) ;
#392=ORIENTED_EDGE('',*,*,#371,.T.) ;
#393=ORIENTED_EDGE('',*,*,#378,.T.) ;
#394=ORIENTED_EDGE('',*,*,#385,.T.) ;
#395=ORIENTED_EDGE('',*,*,#390,.T.) ;
#423=ORIENTED_EDGE('',*,*,#409,.F.) ;
#424=ORIENTED_EDGE('',*,*,#300,.T.) ;
#425=ORIENTED_EDGE('',*,*,#416,.T.) ;
#426=ORIENTED_EDGE('',*,*,#421,.F.) ;
#447=ORIENTED_EDGE('',*,*,#440,.F.) ;
#448=ORIENTED_EDGE('',*,*,#416,.F.) ;
#449=ORIENTED_EDGE('',*,*,#333,.T.) ;
#450=ORIENTED_EDGE('',*,*,#445,.T.) ;
#453=ORIENTED_EDGE('',*,*,#120,.T.) ;
#454=ORIENTED_EDGE('',*,*,#89,.T.) ;
#475=ORIENTED_EDGE('',*,*,#445,.F.) ;
#476=ORIENTED_EDGE('',*,*,#350,.T.) ;
#477=ORIENTED_EDGE('',*,*,#468,.T.) ;
#478=ORIENTED_EDGE('',*,*,#473,.F.) ;
#492=ORIENTED_EDGE('',*,*,#490,.F.) ;
#493=ORIENTED_EDGE('',*,*,#468,.F.) ;
#494=ORIENTED_EDGE('',*,*,#253,.T.) ;
#495=ORIENTED_EDGE('',*,*,#409,.T.) ;
#498=ORIENTED_EDGE('',*,*,#156,.T.) ;
#499=ORIENTED_EDGE('',*,*,#178,.T.) ;
#536=ORIENTED_EDGE('',*,*,#520,.T.) ;
#537=ORIENTED_EDGE('',*,*,#390,.F.) ;
#538=ORIENTED_EDGE('',*,*,#534,.F.) ;
#539=ORIENTED_EDGE('',*,*,#490,.T.) ;
#562=ORIENTED_EDGE('',*,*,#560,.T.) ;
#563=ORIENTED_EDGE('',*,*,#371,.F.) ;
#564=ORIENTED_EDGE('',*,*,#520,.F.) ;
#565=ORIENTED_EDGE('',*,*,#421,.T.) ;
#588=ORIENTED_EDGE('',*,*,#586,.T.) ;
#589=ORIENTED_EDGE('',*,*,#378,.F.) ;
#590=ORIENTED_EDGE('',*,*,#560,.F.) ;
#591=ORIENTED_EDGE('',*,*,#440,.T.) ;
#600=ORIENTED_EDGE('',*,*,#534,.T.) ;
#601=ORIENTED_EDGE('',*,*,#385,.F.) ;
#602=ORIENTED_EDGE('',*,*,#586,.F.) ;
#603=ORIENTED_EDGE('',*,*,#473,.T.) ;
#455=FACE_BOUND('',#452,.T.) ;
#500=FACE_BOUND('',#497,.T.) ;
#51=CLOSED_SHELL('Closed Shell',(#75,#115,#132,#142,#173,#185,#225,#274,#307,#340,#357,#397,#428,#456,#480,#501,#541,#567,#593,#605)) ;
#92=VECTOR('Line Direction',#91,1.) ;
#106=VECTOR('Line Direction',#105,1.) ;
#159=VECTOR('Line Direction',#158,1.) ;
#164=VECTOR('Line Direction',#163,1.) ;
#193=VECTOR('Line Direction',#192,1.) ;
#202=VECTOR('Line Direction',#201,1.) ;
#209=VECTOR('Line Direction',#208,1.) ;
#216=VECTOR('Line Direction',#215,1.) ;
#249=VECTOR('Line Direction',#248,1.) ;
#298=VECTOR('Line Direction',#297,1.) ;
#331=VECTOR('Line Direction',#330,1.) ;
#348=VECTOR('Line Direction',#347,1.) ;
#365=VECTOR('Line Direction',#364,1.) ;
#374=VECTOR('Line Direction',#373,1.) ;
#381=VECTOR('Line Direction',#380,1.) ;
#388=VECTOR('Line Direction',#387,1.) ;
#405=VECTOR('Line Direction',#404,1.) ;
#412=VECTOR('Line Direction',#411,1.) ;
#419=VECTOR('Line Direction',#418,1.) ;
#436=VECTOR('Line Direction',#435,1.) ;
#443=VECTOR('Line Direction',#442,1.) ;
#464=VECTOR('Line Direction',#463,1.) ;
#471=VECTOR('Line Direction',#470,1.) ;
#488=VECTOR('Line Direction',#487,1.) ;
#607=ADVANCED_BREP_SHAPE_REPRESENTATION('NONE',(#606),#46) ;
#49=SHAPE_REPRESENTATION(' ',(#48),#46) ;
#75=ADVANCED_FACE('PartBody',(#74),#56,.F.) ;
#115=ADVANCED_FACE('PartBody',(#114),#80,.F.) ;
#132=ADVANCED_FACE('PartBody',(#131),#80,.F.) ;
#142=ADVANCED_FACE('PartBody',(#141),#137,.F.) ;
#173=ADVANCED_FACE('PartBody',(#172),#147,.F.) ;
#185=ADVANCED_FACE('PartBody',(#184),#147,.F.) ;
#225=ADVANCED_FACE('PartBody',(#224),#190,.F.) ;
#274=ADVANCED_FACE('PartBody',(#273),#230,.T.) ;
#307=ADVANCED_FACE('PartBody',(#306),#279,.T.) ;
#340=ADVANCED_FACE('PartBody',(#339),#312,.T.) ;
#357=ADVANCED_FACE('PartBody',(#356),#345,.T.) ;
#397=ADVANCED_FACE('PartBody',(#396),#362,.T.) ;
#428=ADVANCED_FACE('PartBody',(#427),#402,.T.) ;
#456=ADVANCED_FACE('PartBody',(#451,#455),#433,.F.) ;
#480=ADVANCED_FACE('PartBody',(#479),#461,.T.) ;
#501=ADVANCED_FACE('PartBody',(#496,#500),#485,.F.) ;
#541=ADVANCED_FACE('PartBody',(#540),#506,.T.) ;
#567=ADVANCED_FACE('PartBody',(#566),#546,.T.) ;
#593=ADVANCED_FACE('PartBody',(#592),#572,.T.) ;
#605=ADVANCED_FACE('PartBody',(#604),#598,.T.) ;
#4=APPLICATION_PROTOCOL_DEFINITION('international standard','config_control_design',1994,#1) ;
#32=APPROVAL_DATE_TIME(#13,#21) ;
#231=B_SPLINE_CURVE_WITH_KNOTS('',5,(#232,#233,#234,#235,#236,#237,#238,#239,#240,#241,#242,#243),.UNSPECIFIED.,.F.,.U.,(6,3,3,6),(0.,6.18350447988,10.248053168,13.507681315),.UNSPECIFIED.) ;
#254=B_SPLINE_CURVE_WITH_KNOTS('',5,(#255,#256,#257,#258,#259,#260,#261,#262,#263,#264,#265,#266),.UNSPECIFIED.,.F.,.U.,(6,3,3,6),(0.,6.18350447991,10.2480531681,13.507681315),.UNSPECIFIED.) ;
#280=B_SPLINE_CURVE_WITH_KNOTS('',5,(#281,#282,#283,#284,#285,#286,#287,#288,#289,#290,#291,#292),.UNSPECIFIED.,.F.,.U.,(6,3,3,6),(0.,6.18350447981,10.248053168,13.5076813149),.UNSPECIFIED.) ;
#313=B_SPLINE_CURVE_WITH_KNOTS('',5,(#314,#315,#316,#317,#318,#319,#320,#321,#322,#323,#324,#325),.UNSPECIFIED.,.F.,.U.,(6,3,3,6),(0.,6.18350447984,10.248053168,13.5076813147),.UNSPECIFIED.) ;
#507=B_SPLINE_CURVE_WITH_KNOTS('',5,(#508,#509,#510,#511,#512,#513,#514,#515,#516,#517,#518,#519),.UNSPECIFIED.,.F.,.U.,(6,3,3,6),(0.,3.2596214515,8.80194768279,13.4959832003),.UNSPECIFIED.) ;
#521=B_SPLINE_CURVE_WITH_KNOTS('',5,(#522,#523,#524,#525,#526,#527,#528,#529,#530,#531,#532,#533),.UNSPECIFIED.,.F.,.U.,(6,3,3,6),(0.,3.25962145152,8.80194768286,13.4959832003),.UNSPECIFIED.) ;
#547=B_SPLINE_CURVE_WITH_KNOTS('',5,(#548,#549,#550,#551,#552,#553,#554,#555,#556,#557,#558,#559),.UNSPECIFIED.,.F.,.U.,(6,3,3,6),(0.,3.25962145169,8.80194768301,13.4959832005),.UNSPECIFIED.) ;
#573=B_SPLINE_CURVE_WITH_KNOTS('',5,(#574,#575,#576,#577,#578,#579,#580,#581,#582,#583,#584,#585),.UNSPECIFIED.,.F.,.U.,(6,3,3,6),(0.,3.25962145141,8.80194768274,13.4959832002),.UNSPECIFIED.) ;
#606=MANIFOLD_SOLID_BREP('PartBody',#51) ;
#11=CALENDAR_DATE(2024,6,6) ;
#30=CC_DESIGN_APPROVAL(#21,(#16,#6,#14)) ;
#18=CC_DESIGN_DATE_AND_TIME_ASSIGNMENT(#13,#17,(#16)) ;
#29=CC_DESIGN_DATE_AND_TIME_ASSIGNMENT(#13,#28,(#14)) ;
#17=DATE_TIME_ROLE('classification_date') ;
#28=DATE_TIME_ROLE('creation_date') ;
#27=CC_DESIGN_PERSON_AND_ORGANIZATION_ASSIGNMENT(#25,#26,(#16)) ;
#33=CC_DESIGN_PERSON_AND_ORGANIZATION_ASSIGNMENT(#25,#34,(#6)) ;
#35=CC_DESIGN_PERSON_AND_ORGANIZATION_ASSIGNMENT(#25,#36,(#6,#14)) ;
#37=CC_DESIGN_PERSON_AND_ORGANIZATION_ASSIGNMENT(#25,#38,(#5)) ;
#26=PERSON_AND_ORGANIZATION_ROLE('classification_officer') ;
#34=PERSON_AND_ORGANIZATION_ROLE('design_supplier') ;
#36=PERSON_AND_ORGANIZATION_ROLE('creator') ;
#38=PERSON_AND_ORGANIZATION_ROLE('design_owner') ;
#39=CC_DESIGN_SECURITY_CLASSIFICATION(#16,(#6)) ;
#60=CIRCLE('generated circle',#59,10.) ;
#69=CIRCLE('generated circle',#68,10.) ;
#84=CIRCLE('generated circle',#83,10.) ;
#100=CIRCLE('generated circle',#99,10.) ;
#119=CIRCLE('generated circle',#118,10.) ;
#124=CIRCLE('generated circle',#123,10.) ;
#151=CIRCLE('generated circle',#150,10.) ;
#177=CIRCLE('generated circle',#176,10.) ;
#608=SHAPE_REPRESENTATION_RELATIONSHIP(' ',' ',#49,#607) ;
#80=CYLINDRICAL_SURFACE('generated cylinder',#79,10.) ;
#147=CYLINDRICAL_SURFACE('generated cylinder',#146,10.) ;
#230=CYLINDRICAL_SURFACE('generated cylinder',#229,5.) ;
#279=CYLINDRICAL_SURFACE('generated cylinder',#278,5.) ;
#312=CYLINDRICAL_SURFACE('generated cylinder',#311,5.) ;
#345=CYLINDRICAL_SURFACE('generated cylinder',#344,5.) ;
#506=CYLINDRICAL_SURFACE('generated cylinder',#505,5.) ;
#546=CYLINDRICAL_SURFACE('generated cylinder',#545,5.) ;
#572=CYLINDRICAL_SURFACE('generated cylinder',#571,5.) ;
#598=CYLINDRICAL_SURFACE('generated cylinder',#597,5.) ;
#3=DESIGN_CONTEXT(' ',#1,'design') ;
#65=EDGE_CURVE('',#62,#64,#60,.T.) ;
#70=EDGE_CURVE('',#64,#62,#69,.T.) ;
#89=EDGE_CURVE('',#86,#88,#84,.T.) ;
#96=EDGE_CURVE('',#95,#86,#93,.F.) ;
#103=EDGE_CURVE('',#95,#102,#100,.T.) ;
#108=EDGE_CURVE('',#102,#88,#107,.F.) ;
#120=EDGE_CURVE('',#88,#86,#119,.T.) ;
#125=EDGE_CURVE('',#102,#95,#124,.T.) ;
#156=EDGE_CURVE('',#153,#155,#151,.T.) ;
#161=EDGE_CURVE('',#62,#153,#160,.F.) ;
#166=EDGE_CURVE('',#64,#155,#165,.F.) ;
#178=EDGE_CURVE('',#155,#153,#177,.T.) ;
#199=EDGE_CURVE('',#196,#198,#194,.F.) ;
#206=EDGE_CURVE('',#205,#196,#203,.T.) ;
#213=EDGE_CURVE('',#212,#205,#210,.F.) ;
#218=EDGE_CURVE('',#198,#212,#217,.T.) ;
#246=EDGE_CURVE('',#198,#245,#231,.T.) ;
#253=EDGE_CURVE('',#252,#245,#250,.F.) ;
#267=EDGE_CURVE('',#196,#252,#254,.T.) ;
#295=EDGE_CURVE('',#212,#294,#280,.T.) ;
#300=EDGE_CURVE('',#245,#294,#299,.T.) ;
#328=EDGE_CURVE('',#205,#327,#313,.T.) ;
#333=EDGE_CURVE('',#294,#327,#332,.F.) ;
#350=EDGE_CURVE('',#327,#252,#349,.T.) ;
#371=EDGE_CURVE('',#368,#370,#366,.T.) ;
#378=EDGE_CURVE('',#370,#377,#375,.F.) ;
#385=EDGE_CURVE('',#377,#384,#382,.T.) ;
#390=EDGE_CURVE('',#384,#368,#389,.F.) ;
#409=EDGE_CURVE('',#245,#408,#406,.T.) ;
#416=EDGE_CURVE('',#294,#415,#413,.T.) ;
#421=EDGE_CURVE('',#408,#415,#420,.T.) ;
#440=EDGE_CURVE('',#415,#439,#437,.F.) ;
#445=EDGE_CURVE('',#327,#439,#444,.T.) ;
#468=EDGE_CURVE('',#252,#467,#465,.T.) ;
#473=EDGE_CURVE('',#439,#467,#472,.T.) ;
#490=EDGE_CURVE('',#467,#408,#489,.F.) ;
#520=EDGE_CURVE('',#408,#368,#507,.T.) ;
#534=EDGE_CURVE('',#467,#384,#521,.T.) ;
#560=EDGE_CURVE('',#415,#370,#547,.T.) ;
#586=EDGE_CURVE('',#439,#377,#573,.T.) ;
#71=EDGE_LOOP('',(#72,#73)) ;
#109=EDGE_LOOP('',(#110,#111,#112,#113)) ;
#126=EDGE_LOOP('',(#127,#128,#129,#130)) ;
#138=EDGE_LOOP('',(#139,#140)) ;
#167=EDGE_LOOP('',(#168,#169,#170,#171)) ;
#179=EDGE_LOOP('',(#180,#181,#182,#183)) ;
#219=EDGE_LOOP('',(#220,#221,#222,#223)) ;
#268=EDGE_LOOP('',(#269,#270,#271,#272)) ;
#301=EDGE_LOOP('',(#302,#303,#304,#305)) ;
#334=EDGE_LOOP('',(#335,#336,#337,#338)) ;
#351=EDGE_LOOP('',(#352,#353,#354,#355)) ;
#391=EDGE_LOOP('',(#392,#393,#394,#395)) ;
#422=EDGE_LOOP('',(#423,#424,#425,#426)) ;
#446=EDGE_LOOP('',(#447,#448,#449,#450)) ;
#452=EDGE_LOOP('',(#453,#454)) ;
#474=EDGE_LOOP('',(#475,#476,#477,#478)) ;
#491=EDGE_LOOP('',(#492,#493,#494,#495)) ;
#497=EDGE_LOOP('',(#498,#499)) ;
#535=EDGE_LOOP('',(#536,#537,#538,#539)) ;
#561=EDGE_LOOP('',(#562,#563,#564,#565)) ;
#587=EDGE_LOOP('',(#588,#589,#590,#591)) ;
#599=EDGE_LOOP('',(#600,#601,#602,#603)) ;
#74=FACE_OUTER_BOUND('',#71,.T.) ;
#114=FACE_OUTER_BOUND('',#109,.T.) ;
#131=FACE_OUTER_BOUND('',#126,.T.) ;
#141=FACE_OUTER_BOUND('',#138,.T.) ;
#172=FACE_OUTER_BOUND('',#167,.T.) ;
#184=FACE_OUTER_BOUND('',#179,.T.) ;
#224=FACE_OUTER_BOUND('',#219,.T.) ;
#273=FACE_OUTER_BOUND('',#268,.T.) ;
#306=FACE_OUTER_BOUND('',#301,.T.) ;
#339=FACE_OUTER_BOUND('',#334,.T.) ;
#356=FACE_OUTER_BOUND('',#351,.T.) ;
#396=FACE_OUTER_BOUND('',#391,.T.) ;
#427=FACE_OUTER_BOUND('',#422,.T.) ;
#451=FACE_OUTER_BOUND('',#446,.T.) ;
#479=FACE_OUTER_BOUND('',#474,.T.) ;
#496=FACE_OUTER_BOUND('',#491,.T.) ;
#540=FACE_OUTER_BOUND('',#535,.T.) ;
#566=FACE_OUTER_BOUND('',#561,.T.) ;
#592=FACE_OUTER_BOUND('',#587,.T.) ;
#604=FACE_OUTER_BOUND('',#599,.T.) ;
#45=UNCERTAINTY_MEASURE_WITH_UNIT(LENGTH_MEASURE(0.005),#41,'distance_accuracy_value','CONFUSED CURVE UNCERTAINTY') ;
#93=LINE('Line',#90,#92) ;
#107=LINE('Line',#104,#106) ;
#160=LINE('Line',#157,#159) ;
#165=LINE('Line',#162,#164) ;
#194=LINE('Line',#191,#193) ;
#203=LINE('Line',#200,#202) ;
#210=LINE('Line',#207,#209) ;
#217=LINE('Line',#214,#216) ;
#250=LINE('Line',#247,#249) ;
#299=LINE('Line',#296,#298) ;
#332=LINE('Line',#329,#331) ;
#349=LINE('Line',#346,#348) ;
#366=LINE('Line',#363,#365) ;
#375=LINE('Line',#372,#374) ;
#382=LINE('Line',#379,#381) ;
#389=LINE('Line',#386,#388) ;
#406=LINE('Line',#403,#405) ;
#413=LINE('Line',#410,#412) ;
#420=LINE('Line',#417,#419) ;
#437=LINE('Line',#434,#436) ;
#444=LINE('Line',#441,#443) ;
#465=LINE('Line',#462,#464) ;
#472=LINE('Line',#469,#471) ;
#489=LINE('Line',#486,#488) ;
#2=MECHANICAL_CONTEXT(' ',#1,'mechanical') ;
#24=PERSONAL_ADDRESS(' ',' ',' ',' ',' ',' ',' ',' ',' ',' ',' ',' ',(#22),' ') ;
#56=PLANE('',#55) ;
#137=PLANE('',#136) ;
#190=PLANE('',#189) ;
#362=PLANE('',#361) ;
#402=PLANE('',#401) ;
#433=PLANE('',#432) ;
#461=PLANE('',#460) ;
#485=PLANE('',#484) ;
#43=PLANE_ANGLE_MEASURE_WITH_UNIT(PLANE_ANGLE_MEASURE(0.0174532925199),#42) ;
#7=PRODUCT_CATEGORY('part',$) ;
#9=PRODUCT_CATEGORY_RELATIONSHIP(' ',' ',#7,#8) ;
#6=PRODUCT_DEFINITION_FORMATION_WITH_SPECIFIED_SOURCE('',' ',#5,.NOT_KNOWN.) ;
#8=PRODUCT_RELATED_PRODUCT_CATEGORY('detail',$,(#5)) ;
#50=SHAPE_DEFINITION_REPRESENTATION(#40,#49) ;
#62=VERTEX_POINT('',#61) ;
#64=VERTEX_POINT('',#63) ;
#86=VERTEX_POINT('',#85) ;
#88=VERTEX_POINT('',#87) ;
#95=VERTEX_POINT('',#94) ;
#102=VERTEX_POINT('',#101) ;
#153=VERTEX_POINT('',#152) ;
#155=VERTEX_POINT('',#154) ;
#196=VERTEX_POINT('',#195) ;
#198=VERTEX_POINT('',#197) ;
#205=VERTEX_POINT('',#204) ;
#212=VERTEX_POINT('',#211) ;
#245=VERTEX_POINT('',#244) ;
#252=VERTEX_POINT('',#251) ;
#294=VERTEX_POINT('',#293) ;
#327=VERTEX_POINT('',#326) ;
#368=VERTEX_POINT('',#367) ;
#370=VERTEX_POINT('',#369) ;
#377=VERTEX_POINT('',#376) ;
#384=VERTEX_POINT('',#383) ;
#408=VERTEX_POINT('',#407) ;
#415=VERTEX_POINT('',#414) ;
#439=VERTEX_POINT('',#438) ;
#467=VERTEX_POINT('',#466) ;
#41=(LENGTH_UNIT()NAMED_UNIT(*)SI_UNIT(.MILLI.,.METRE.)) ;
#42=(NAMED_UNIT(*)PLANE_ANGLE_UNIT()SI_UNIT($,.RADIAN.)) ;
#44=(NAMED_UNIT(*)SI_UNIT($,.STERADIAN.)SOLID_ANGLE_UNIT()) ;
#46=(GEOMETRIC_REPRESENTATION_CONTEXT(3)GLOBAL_UNCERTAINTY_ASSIGNED_CONTEXT((#45))GLOBAL_UNIT_ASSIGNED_CONTEXT((#41,#42,#44))REPRESENTATION_CONTEXT(' ',' ')) ;
ENDSEC;
END-ISO-10303-21;
