ISO-10303-21;
HEADER;
FILE_DESCRIPTION(('CATIA V5 STEP Exchange'),'2;1');

FILE_NAME('C:\\Users\\laurc\\OneDrive\\Desktop\\robot puma nou\\brat1.stp','2024-06-06T15:42:39+00:00',('none'),('none'),'CATIA Version 5 Release 21 GA (IN-10)','CATIA V5 STEP AP203','none');

FILE_SCHEMA(('CONFIG_CONTROL_DESIGN'));

ENDSEC;
/* file written by CATIA V5R21 */
DATA;
#5=PRODUCT('brat','','',(#2)) ;
#1=APPLICATION_CONTEXT('configuration controlled 3D design of mechanical parts and assemblies') ;
#14=PRODUCT_DEFINITION('',' ',#6,#3) ;
#16=SECURITY_CLASSIFICATION(' ',' ',#15) ;
#15=SECURITY_CLASSIFICATION_LEVEL('unclassified') ;
#47=CARTESIAN_POINT(' ',(0.,0.,0.)) ;
#52=CARTESIAN_POINT('Axis2P3D Location',(-1.,18.473,0.)) ;
#57=CARTESIAN_POINT('Axis2P3D Location',(-1.,18.473,0.)) ;
#61=CARTESIAN_POINT('Vertex',(-1.,9.6971743811,4.79425538604)) ;
#63=CARTESIAN_POINT('Vertex',(-1.,27.2488256189,-4.79425538604)) ;
#66=CARTESIAN_POINT('Axis2P3D Location',(-1.,18.473,0.)) ;
#76=CARTESIAN_POINT('Axis2P3D Location',(0.,70.75,0.)) ;
#81=CARTESIAN_POINT('Line Origine',(30.,70.75,-9.64885723403E-015)) ;
#85=CARTESIAN_POINT('Vertex',(30.,28.473,-9.64885723403E-015)) ;
#87=CARTESIAN_POINT('Vertex',(30.,141.5,3.67381906147E-015)) ;
#90=CARTESIAN_POINT('Axis2P3D Location',(0.,141.5,0.)) ;
#94=CARTESIAN_POINT('Vertex',(-30.,141.5,0.)) ;
#97=CARTESIAN_POINT('Line Origine',(-30.,70.75,0.)) ;
#101=CARTESIAN_POINT('Vertex',(-30.,0.,0.)) ;
#104=CARTESIAN_POINT('Axis2P3D Location',(0.,0.,0.)) ;
#108=CARTESIAN_POINT('Vertex',(30.,0.,3.67381906147E-015)) ;
#111=CARTESIAN_POINT('Line Origine',(30.,70.75,-9.64885723403E-015)) ;
#115=CARTESIAN_POINT('Vertex',(30.,8.473,-9.64885723403E-015)) ;
#119=CARTESIAN_POINT('Control Point',(29.6144409924,9.6971743811,4.79425538604)) ;
#120=CARTESIAN_POINT('Control Point',(29.7909353078,9.1015859184,3.70403801788)) ;
#121=CARTESIAN_POINT('Control Point',(29.9296557793,8.68347241483,2.51036431491)) ;
#122=CARTESIAN_POINT('Control Point',(30.,8.473,1.25477080382)) ;
#123=CARTESIAN_POINT('Control Point',(30.,8.473,-2.30926389122E-014)) ;
#124=CARTESIAN_POINT('Vertex',(29.6144409924,9.6971743811,4.79425538604)) ;
#128=CARTESIAN_POINT('Control Point',(29.6144409924,9.6971743811,4.79425538604)) ;
#129=CARTESIAN_POINT('Control Point',(29.4662893088,10.1971192845,5.70939839329)) ;
#130=CARTESIAN_POINT('Control Point',(29.2929205951,10.8146352238,6.55622916486)) ;
#131=CARTESIAN_POINT('Control Point',(29.1071250391,11.5378044607,7.3166734648)) ;
#132=CARTESIAN_POINT('Control Point',(28.6667792084,13.5157844721,8.91852705589)) ;
#133=CARTESIAN_POINT('Control Point',(28.3427635335,15.9284188907,9.84741968667)) ;
#134=CARTESIAN_POINT('Control Point',(28.2382149337,17.4511848241,10.1227424851)) ;
#135=CARTESIAN_POINT('Control Point',(28.2625199614,20.4448928282,10.0773533271)) ;
#136=CARTESIAN_POINT('Control Point',(28.6320581539,23.2016942235,8.98454941949)) ;
#137=CARTESIAN_POINT('Control Point',(28.8732476628,24.4230001244,8.22324289975)) ;
#138=CARTESIAN_POINT('Control Point',(29.3666614509,26.4760143405,6.37619354494)) ;
#139=CARTESIAN_POINT('Control Point',(29.7771353895,27.8052024829,3.94623741018)) ;
#140=CARTESIAN_POINT('Control Point',(29.9258328443,28.250498533,2.66834082278)) ;
#141=CARTESIAN_POINT('Control Point',(30.,28.473,1.33417080472)) ;
#142=CARTESIAN_POINT('Control Point',(30.,28.473,-2.30926389122E-014)) ;
#154=CARTESIAN_POINT('Axis2P3D Location',(0.,0.,0.)) ;
#159=CARTESIAN_POINT('Axis2P3D Location',(0.,0.,0.)) ;
#169=CARTESIAN_POINT('Axis2P3D Location',(0.,111.5,0.)) ;
#174=CARTESIAN_POINT('Axis2P3D Location',(0.,111.5,0.)) ;
#178=CARTESIAN_POINT('Vertex',(-8.7758256189,111.5,-4.79425538604)) ;
#180=CARTESIAN_POINT('Vertex',(8.7758256189,111.5,4.79425538604)) ;
#183=CARTESIAN_POINT('Axis2P3D Location',(0.,111.5,0.)) ;
#193=CARTESIAN_POINT('Axis2P3D Location',(0.,141.4,0.)) ;
#198=CARTESIAN_POINT('Axis2P3D Location',(0.,141.5,0.)) ;
#202=CARTESIAN_POINT('Vertex',(8.7758256189,141.5,4.79425538604)) ;
#204=CARTESIAN_POINT('Vertex',(-8.7758256189,141.5,-4.79425538604)) ;
#207=CARTESIAN_POINT('Line Origine',(-8.7758256189,126.655000001,-4.79425538604)) ;
#212=CARTESIAN_POINT('Line Origine',(8.7758256189,126.655000001,4.79425538604)) ;
#224=CARTESIAN_POINT('Axis2P3D Location',(0.,141.5,0.)) ;
#236=CARTESIAN_POINT('Axis2P3D Location',(0.,141.5,0.)) ;
#241=CARTESIAN_POINT('Axis2P3D Location',(0.,141.5,0.)) ;
#256=CARTESIAN_POINT('Control Point',(29.6144409924,27.2488256189,-4.79425538604)) ;
#257=CARTESIAN_POINT('Control Point',(29.7909353078,27.8444140816,-3.70403801788)) ;
#258=CARTESIAN_POINT('Control Point',(29.9296557793,28.2625275852,-2.51036431491)) ;
#259=CARTESIAN_POINT('Control Point',(30.,28.473,-1.25477080381)) ;
#260=CARTESIAN_POINT('Control Point',(30.,28.473,-2.35367281221E-014)) ;
#261=CARTESIAN_POINT('Vertex',(29.6144409924,27.2488256189,-4.79425538604)) ;
#265=CARTESIAN_POINT('Control Point',(29.6144409924,27.2488256189,-4.79425538604)) ;
#266=CARTESIAN_POINT('Control Point',(29.4662893088,26.7488807155,-5.70939839329)) ;
#267=CARTESIAN_POINT('Control Point',(29.2929205951,26.1313647762,-6.55622916488)) ;
#268=CARTESIAN_POINT('Control Point',(29.1071250391,25.4081955391,-7.316673465)) ;
#269=CARTESIAN_POINT('Control Point',(28.6667792084,23.4302155276,-8.918527056)) ;
#270=CARTESIAN_POINT('Control Point',(28.3427635334,21.0175811091,-9.84741968677)) ;
#271=CARTESIAN_POINT('Control Point',(28.2382149337,19.4948151756,-10.1227424852)) ;
#272=CARTESIAN_POINT('Control Point',(28.2625199615,16.5011071716,-10.077353327)) ;
#273=CARTESIAN_POINT('Control Point',(28.632058154,13.7443057763,-8.98454941938)) ;
#274=CARTESIAN_POINT('Control Point',(28.8732476629,12.5229998754,-8.22324289955)) ;
#275=CARTESIAN_POINT('Control Point',(29.3666614509,10.4699856593,-6.37619354475)) ;
#276=CARTESIAN_POINT('Control Point',(29.7771353895,9.1407975171,-3.94623741001)) ;
#277=CARTESIAN_POINT('Control Point',(29.9258328443,8.695501467,-2.66834082267)) ;
#278=CARTESIAN_POINT('Control Point',(30.,8.473,-1.33417080466)) ;
#279=CARTESIAN_POINT('Control Point',(30.,8.473,3.5527136788E-015)) ;
#291=CARTESIAN_POINT('Axis2P3D Location',(-0.1,18.473,0.)) ;
#296=CARTESIAN_POINT('Line Origine',(14.6550001907,9.6971743811,4.79425538604)) ;
#301=CARTESIAN_POINT('Line Origine',(14.6550001907,27.2488256189,-4.79425538604)) ;
#53=DIRECTION('Axis2P3D Direction',(-1.,0.,-0.)) ;
#54=DIRECTION('Axis2P3D XDirection',(-0.,1.,0.)) ;
#58=DIRECTION('Axis2P3D Direction',(-1.,0.,-0.)) ;
#67=DIRECTION('Axis2P3D Direction',(-1.,0.,-0.)) ;
#77=DIRECTION('Axis2P3D Direction',(0.,1.,0.)) ;
#78=DIRECTION('Axis2P3D XDirection',(-1.,0.,0.)) ;
#82=DIRECTION('Vector Direction',(0.,1.,0.)) ;
#91=DIRECTION('Axis2P3D Direction',(0.,1.,0.)) ;
#98=DIRECTION('Vector Direction',(0.,1.,0.)) ;
#105=DIRECTION('Axis2P3D Direction',(0.,1.,0.)) ;
#112=DIRECTION('Vector Direction',(0.,1.,0.)) ;
#155=DIRECTION('Axis2P3D Direction',(0.,1.,0.)) ;
#156=DIRECTION('Axis2P3D XDirection',(-1.,0.,0.)) ;
#160=DIRECTION('Axis2P3D Direction',(0.,1.,0.)) ;
#170=DIRECTION('Axis2P3D Direction',(0.,-1.,0.)) ;
#171=DIRECTION('Axis2P3D XDirection',(1.,0.,0.)) ;
#175=DIRECTION('Axis2P3D Direction',(0.,-1.,0.)) ;
#184=DIRECTION('Axis2P3D Direction',(0.,-1.,0.)) ;
#194=DIRECTION('Axis2P3D Direction',(0.,-1.,0.)) ;
#195=DIRECTION('Axis2P3D XDirection',(0.87758256189,0.,0.479425538604)) ;
#199=DIRECTION('Axis2P3D Direction',(0.,-1.,0.)) ;
#208=DIRECTION('Vector Direction',(0.,-1.,0.)) ;
#213=DIRECTION('Vector Direction',(0.,-1.,0.)) ;
#225=DIRECTION('Axis2P3D Direction',(0.,-1.,0.)) ;
#237=DIRECTION('Axis2P3D Direction',(0.,1.,0.)) ;
#238=DIRECTION('Axis2P3D XDirection',(-1.,0.,0.)) ;
#242=DIRECTION('Axis2P3D Direction',(0.,1.,0.)) ;
#292=DIRECTION('Axis2P3D Direction',(-1.,0.,-0.)) ;
#293=DIRECTION('Axis2P3D XDirection',(0.,0.87758256189,-0.479425538604)) ;
#297=DIRECTION('Vector Direction',(-1.,0.,0.)) ;
#302=DIRECTION('Vector Direction',(-1.,0.,0.)) ;
#48=AXIS2_PLACEMENT_3D(' ',#47,$,$) ;
#55=AXIS2_PLACEMENT_3D('Plane Axis2P3D',#52,#53,#54) ;
#59=AXIS2_PLACEMENT_3D('Circle Axis2P3D',#57,#58,$) ;
#68=AXIS2_PLACEMENT_3D('Circle Axis2P3D',#66,#67,$) ;
#79=AXIS2_PLACEMENT_3D('Cylinder Axis2P3D',#76,#77,#78) ;
#92=AXIS2_PLACEMENT_3D('Circle Axis2P3D',#90,#91,$) ;
#106=AXIS2_PLACEMENT_3D('Circle Axis2P3D',#104,#105,$) ;
#157=AXIS2_PLACEMENT_3D('Plane Axis2P3D',#154,#155,#156) ;
#161=AXIS2_PLACEMENT_3D('Circle Axis2P3D',#159,#160,$) ;
#172=AXIS2_PLACEMENT_3D('Plane Axis2P3D',#169,#170,#171) ;
#176=AXIS2_PLACEMENT_3D('Circle Axis2P3D',#174,#175,$) ;
#185=AXIS2_PLACEMENT_3D('Circle Axis2P3D',#183,#184,$) ;
#196=AXIS2_PLACEMENT_3D('Cylinder Axis2P3D',#193,#194,#195) ;
#200=AXIS2_PLACEMENT_3D('Circle Axis2P3D',#198,#199,$) ;
#226=AXIS2_PLACEMENT_3D('Circle Axis2P3D',#224,#225,$) ;
#239=AXIS2_PLACEMENT_3D('Plane Axis2P3D',#236,#237,#238) ;
#243=AXIS2_PLACEMENT_3D('Circle Axis2P3D',#241,#242,$) ;
#294=AXIS2_PLACEMENT_3D('Cylinder Axis2P3D',#291,#292,#293) ;
#40=PRODUCT_DEFINITION_SHAPE(' ',' ',#14) ;
#31=APPROVAL_PERSON_ORGANIZATION(#25,#21,#19) ;
#25=PERSON_AND_ORGANIZATION(#22,#23) ;
#22=PERSON(' ',' ',' ',$,$,$) ;
#23=ORGANIZATION(' ',' ',' ') ;
#21=APPROVAL(#20,' ') ;
#20=APPROVAL_STATUS('not_yet_approved') ;
#19=APPROVAL_ROLE('APPROVER') ;
#13=DATE_AND_TIME(#11,#12) ;
#12=LOCAL_TIME(18,42,39.,#10) ;
#10=COORDINATED_UNIVERSAL_TIME_OFFSET(0,0,.AHEAD.) ;
#72=ORIENTED_EDGE('',*,*,#65,.F.) ;
#73=ORIENTED_EDGE('',*,*,#70,.F.) ;
#145=ORIENTED_EDGE('',*,*,#89,.T.) ;
#146=ORIENTED_EDGE('',*,*,#96,.F.) ;
#147=ORIENTED_EDGE('',*,*,#103,.F.) ;
#148=ORIENTED_EDGE('',*,*,#110,.T.) ;
#149=ORIENTED_EDGE('',*,*,#117,.T.) ;
#150=ORIENTED_EDGE('',*,*,#126,.F.) ;
#151=ORIENTED_EDGE('',*,*,#143,.T.) ;
#165=ORIENTED_EDGE('',*,*,#163,.F.) ;
#166=ORIENTED_EDGE('',*,*,#110,.F.) ;
#189=ORIENTED_EDGE('',*,*,#182,.F.) ;
#190=ORIENTED_EDGE('',*,*,#187,.F.) ;
#218=ORIENTED_EDGE('',*,*,#206,.T.) ;
#219=ORIENTED_EDGE('',*,*,#211,.F.) ;
#220=ORIENTED_EDGE('',*,*,#182,.T.) ;
#221=ORIENTED_EDGE('',*,*,#216,.T.) ;
#230=ORIENTED_EDGE('',*,*,#228,.T.) ;
#231=ORIENTED_EDGE('',*,*,#216,.F.) ;
#232=ORIENTED_EDGE('',*,*,#187,.T.) ;
#233=ORIENTED_EDGE('',*,*,#211,.T.) ;
#247=ORIENTED_EDGE('',*,*,#96,.T.) ;
#248=ORIENTED_EDGE('',*,*,#245,.T.) ;
#251=ORIENTED_EDGE('',*,*,#228,.F.) ;
#252=ORIENTED_EDGE('',*,*,#206,.F.) ;
#282=ORIENTED_EDGE('',*,*,#117,.F.) ;
#283=ORIENTED_EDGE('',*,*,#163,.T.) ;
#284=ORIENTED_EDGE('',*,*,#103,.T.) ;
#285=ORIENTED_EDGE('',*,*,#245,.F.) ;
#286=ORIENTED_EDGE('',*,*,#89,.F.) ;
#287=ORIENTED_EDGE('',*,*,#263,.F.) ;
#288=ORIENTED_EDGE('',*,*,#280,.T.) ;
#307=ORIENTED_EDGE('',*,*,#263,.T.) ;
#308=ORIENTED_EDGE('',*,*,#143,.F.) ;
#309=ORIENTED_EDGE('',*,*,#300,.F.) ;
#310=ORIENTED_EDGE('',*,*,#65,.T.) ;
#311=ORIENTED_EDGE('',*,*,#305,.T.) ;
#315=ORIENTED_EDGE('',*,*,#126,.T.) ;
#316=ORIENTED_EDGE('',*,*,#280,.F.) ;
#317=ORIENTED_EDGE('',*,*,#305,.F.) ;
#318=ORIENTED_EDGE('',*,*,#70,.T.) ;
#319=ORIENTED_EDGE('',*,*,#300,.T.) ;
#253=FACE_BOUND('',#250,.T.) ;
#51=CLOSED_SHELL('Closed Shell',(#75,#153,#168,#192,#223,#235,#254,#290,#313,#321)) ;
#83=VECTOR('Line Direction',#82,1.) ;
#99=VECTOR('Line Direction',#98,1.) ;
#113=VECTOR('Line Direction',#112,1.) ;
#209=VECTOR('Line Direction',#208,1.) ;
#214=VECTOR('Line Direction',#213,1.) ;
#298=VECTOR('Line Direction',#297,1.) ;
#303=VECTOR('Line Direction',#302,1.) ;
#323=ADVANCED_BREP_SHAPE_REPRESENTATION('NONE',(#322),#46) ;
#49=SHAPE_REPRESENTATION(' ',(#48),#46) ;
#75=ADVANCED_FACE('PartBody',(#74),#56,.F.) ;
#153=ADVANCED_FACE('PartBody',(#152),#80,.T.) ;
#168=ADVANCED_FACE('PartBody',(#167),#158,.F.) ;
#192=ADVANCED_FACE('PartBody',(#191),#173,.F.) ;
#223=ADVANCED_FACE('PartBody',(#222),#197,.F.) ;
#235=ADVANCED_FACE('PartBody',(#234),#197,.F.) ;
#254=ADVANCED_FACE('PartBody',(#249,#253),#240,.T.) ;
#290=ADVANCED_FACE('PartBody',(#289),#80,.T.) ;
#313=ADVANCED_FACE('PartBody',(#312),#295,.F.) ;
#321=ADVANCED_FACE('PartBody',(#320),#295,.F.) ;
#4=APPLICATION_PROTOCOL_DEFINITION('international standard','config_control_design',1994,#1) ;
#32=APPROVAL_DATE_TIME(#13,#21) ;
#118=B_SPLINE_CURVE_WITH_KNOTS('',4,(#119,#120,#121,#122,#123),.UNSPECIFIED.,.F.,.U.,(5,5),(0.,7.09805555371),.UNSPECIFIED.) ;
#127=B_SPLINE_CURVE_WITH_KNOTS('',5,(#128,#129,#130,#131,#132,#133,#134,#135,#136,#137,#138,#139,#140,#141,#142),.UNSPECIFIED.,.F.,.U.,(6,3,3,3,6),(0.,7.44775318976,18.1127542448,28.219739955,37.6537521878),.UNSPECIFIED.) ;
#255=B_SPLINE_CURVE_WITH_KNOTS('',4,(#256,#257,#258,#259,#260),.UNSPECIFIED.,.F.,.U.,(5,5),(0.,7.0980555537),.UNSPECIFIED.) ;
#264=B_SPLINE_CURVE_WITH_KNOTS('',5,(#265,#266,#267,#268,#269,#270,#271,#272,#273,#274,#275,#276,#277,#278,#279),.UNSPECIFIED.,.F.,.U.,(6,3,3,3,6),(0.,7.44775318981,18.1127542448,28.219739955,37.6537521874),.UNSPECIFIED.) ;
#322=MANIFOLD_SOLID_BREP('PartBody',#51) ;
#11=CALENDAR_DATE(2024,6,6) ;
#30=CC_DESIGN_APPROVAL(#21,(#16,#6,#14)) ;
#18=CC_DESIGN_DATE_AND_TIME_ASSIGNMENT(#13,#17,(#16)) ;
#29=CC_DESIGN_DATE_AND_TIME_ASSIGNMENT(#13,#28,(#14)) ;
#17=DATE_TIME_ROLE('classification_date') ;
#28=DATE_TIME_ROLE('creation_date') ;
#27=CC_DESIGN_PERSON_AND_ORGANIZATION_ASSIGNMENT(#25,#26,(#16)) ;
#33=CC_DESIGN_PERSON_AND_ORGANIZATION_ASSIGNMENT(#25,#34,(#6)) ;
#35=CC_DESIGN_PERSON_AND_ORGANIZATION_ASSIGNMENT(#25,#36,(#6,#14)) ;
#37=CC_DESIGN_PERSON_AND_ORGANIZATION_ASSIGNMENT(#25,#38,(#5)) ;
#26=PERSON_AND_ORGANIZATION_ROLE('classification_officer') ;
#34=PERSON_AND_ORGANIZATION_ROLE('design_supplier') ;
#36=PERSON_AND_ORGANIZATION_ROLE('creator') ;
#38=PERSON_AND_ORGANIZATION_ROLE('design_owner') ;
#39=CC_DESIGN_SECURITY_CLASSIFICATION(#16,(#6)) ;
#60=CIRCLE('generated circle',#59,10.) ;
#69=CIRCLE('generated circle',#68,10.) ;
#93=CIRCLE('generated circle',#92,30.) ;
#107=CIRCLE('generated circle',#106,30.) ;
#162=CIRCLE('generated circle',#161,30.) ;
#177=CIRCLE('generated circle',#176,10.) ;
#186=CIRCLE('generated circle',#185,10.) ;
#201=CIRCLE('generated circle',#200,10.) ;
#227=CIRCLE('generated circle',#226,10.) ;
#244=CIRCLE('generated circle',#243,30.) ;
#324=SHAPE_REPRESENTATION_RELATIONSHIP(' ',' ',#49,#323) ;
#80=CYLINDRICAL_SURFACE('generated cylinder',#79,30.) ;
#197=CYLINDRICAL_SURFACE('generated cylinder',#196,10.) ;
#295=CYLINDRICAL_SURFACE('generated cylinder',#294,10.) ;
#3=DESIGN_CONTEXT(' ',#1,'design') ;
#65=EDGE_CURVE('',#62,#64,#60,.T.) ;
#70=EDGE_CURVE('',#64,#62,#69,.T.) ;
#89=EDGE_CURVE('',#86,#88,#84,.T.) ;
#96=EDGE_CURVE('',#95,#88,#93,.T.) ;
#103=EDGE_CURVE('',#102,#95,#100,.T.) ;
#110=EDGE_CURVE('',#102,#109,#107,.T.) ;
#117=EDGE_CURVE('',#109,#116,#114,.T.) ;
#126=EDGE_CURVE('',#125,#116,#118,.T.) ;
#143=EDGE_CURVE('',#125,#86,#127,.T.) ;
#163=EDGE_CURVE('',#109,#102,#162,.T.) ;
#182=EDGE_CURVE('',#179,#181,#177,.T.) ;
#187=EDGE_CURVE('',#181,#179,#186,.T.) ;
#206=EDGE_CURVE('',#203,#205,#201,.F.) ;
#211=EDGE_CURVE('',#179,#205,#210,.F.) ;
#216=EDGE_CURVE('',#181,#203,#215,.F.) ;
#228=EDGE_CURVE('',#205,#203,#227,.F.) ;
#245=EDGE_CURVE('',#88,#95,#244,.T.) ;
#263=EDGE_CURVE('',#262,#86,#255,.T.) ;
#280=EDGE_CURVE('',#262,#116,#264,.T.) ;
#300=EDGE_CURVE('',#62,#125,#299,.F.) ;
#305=EDGE_CURVE('',#64,#262,#304,.F.) ;
#71=EDGE_LOOP('',(#72,#73)) ;
#144=EDGE_LOOP('',(#145,#146,#147,#148,#149,#150,#151)) ;
#164=EDGE_LOOP('',(#165,#166)) ;
#188=EDGE_LOOP('',(#189,#190)) ;
#217=EDGE_LOOP('',(#218,#219,#220,#221)) ;
#229=EDGE_LOOP('',(#230,#231,#232,#233)) ;
#246=EDGE_LOOP('',(#247,#248)) ;
#250=EDGE_LOOP('',(#251,#252)) ;
#281=EDGE_LOOP('',(#282,#283,#284,#285,#286,#287,#288)) ;
#306=EDGE_LOOP('',(#307,#308,#309,#310,#311)) ;
#314=EDGE_LOOP('',(#315,#316,#317,#318,#319)) ;
#74=FACE_OUTER_BOUND('',#71,.T.) ;
#152=FACE_OUTER_BOUND('',#144,.T.) ;
#167=FACE_OUTER_BOUND('',#164,.T.) ;
#191=FACE_OUTER_BOUND('',#188,.T.) ;
#222=FACE_OUTER_BOUND('',#217,.T.) ;
#234=FACE_OUTER_BOUND('',#229,.T.) ;
#249=FACE_OUTER_BOUND('',#246,.T.) ;
#289=FACE_OUTER_BOUND('',#281,.T.) ;
#312=FACE_OUTER_BOUND('',#306,.T.) ;
#320=FACE_OUTER_BOUND('',#314,.T.) ;
#45=UNCERTAINTY_MEASURE_WITH_UNIT(LENGTH_MEASURE(0.005),#41,'distance_accuracy_value','CONFUSED CURVE UNCERTAINTY') ;
#84=LINE('Line',#81,#83) ;
#100=LINE('Line',#97,#99) ;
#114=LINE('Line',#111,#113) ;
#210=LINE('Line',#207,#209) ;
#215=LINE('Line',#212,#214) ;
#299=LINE('Line',#296,#298) ;
#304=LINE('Line',#301,#303) ;
#2=MECHANICAL_CONTEXT(' ',#1,'mechanical') ;
#24=PERSONAL_ADDRESS(' ',' ',' ',' ',' ',' ',' ',' ',' ',' ',' ',' ',(#22),' ') ;
#56=PLANE('',#55) ;
#158=PLANE('',#157) ;
#173=PLANE('',#172) ;
#240=PLANE('',#239) ;
#43=PLANE_ANGLE_MEASURE_WITH_UNIT(PLANE_ANGLE_MEASURE(0.0174532925199),#42) ;
#7=PRODUCT_CATEGORY('part',$) ;
#9=PRODUCT_CATEGORY_RELATIONSHIP(' ',' ',#7,#8) ;
#6=PRODUCT_DEFINITION_FORMATION_WITH_SPECIFIED_SOURCE('',' ',#5,.NOT_KNOWN.) ;
#8=PRODUCT_RELATED_PRODUCT_CATEGORY('detail',$,(#5)) ;
#50=SHAPE_DEFINITION_REPRESENTATION(#40,#49) ;
#62=VERTEX_POINT('',#61) ;
#64=VERTEX_POINT('',#63) ;
#86=VERTEX_POINT('',#85) ;
#88=VERTEX_POINT('',#87) ;
#95=VERTEX_POINT('',#94) ;
#102=VERTEX_POINT('',#101) ;
#109=VERTEX_POINT('',#108) ;
#116=VERTEX_POINT('',#115) ;
#125=VERTEX_POINT('',#124) ;
#179=VERTEX_POINT('',#178) ;
#181=VERTEX_POINT('',#180) ;
#203=VERTEX_POINT('',#202) ;
#205=VERTEX_POINT('',#204) ;
#262=VERTEX_POINT('',#261) ;
#41=(LENGTH_UNIT()NAMED_UNIT(*)SI_UNIT(.MILLI.,.METRE.)) ;
#42=(NAMED_UNIT(*)PLANE_ANGLE_UNIT()SI_UNIT($,.RADIAN.)) ;
#44=(NAMED_UNIT(*)SI_UNIT($,.STERADIAN.)SOLID_ANGLE_UNIT()) ;
#46=(GEOMETRIC_REPRESENTATION_CONTEXT(3)GLOBAL_UNCERTAINTY_ASSIGNED_CONTEXT((#45))GLOBAL_UNIT_ASSIGNED_CONTEXT((#41,#42,#44))REPRESENTATION_CONTEXT(' ',' ')) ;
ENDSEC;
END-ISO-10303-21;
