ISO-10303-21;
HEADER;
FILE_DESCRIPTION(('CATIA V5 STEP Exchange'),'2;1');

FILE_NAME('C:\\Users\\laurc\\OneDrive\\Desktop\\robot puma nou\\efector.stp','2024-06-06T13:55:21+00:00',('none'),('none'),'CATIA Version 5 Release 21 GA (IN-10)','CATIA V5 STEP AP203','none');

FILE_SCHEMA(('CONFIG_CONTROL_DESIGN'));

ENDSEC;
/* file written by CATIA V5R21 */
DATA;
#5=PRODUCT('efector','','',(#2)) ;
#1=APPLICATION_CONTEXT('configuration controlled 3D design of mechanical parts and assemblies') ;
#14=PRODUCT_DEFINITION('',' ',#6,#3) ;
#16=SECURITY_CLASSIFICATION(' ',' ',#15) ;
#15=SECURITY_CLASSIFICATION_LEVEL('unclassified') ;
#47=CARTESIAN_POINT(' ',(0.,0.,0.)) ;
#52=CARTESIAN_POINT('Axis2P3D Location',(-15.,0.,5.)) ;
#57=CARTESIAN_POINT('Line Origine',(-15.,-12.5,5.)) ;
#61=CARTESIAN_POINT('Vertex',(-15.,0.,5.)) ;
#63=CARTESIAN_POINT('Vertex',(-15.,-25.,5.)) ;
#66=CARTESIAN_POINT('Line Origine',(-15.,0.,0.)) ;
#70=CARTESIAN_POINT('Vertex',(-15.,0.,-5.)) ;
#73=CARTESIAN_POINT('Line Origine',(-15.,-12.5,-5.)) ;
#77=CARTESIAN_POINT('Vertex',(-15.,-25.,-5.)) ;
#80=CARTESIAN_POINT('Line Origine',(-15.,-25.,0.)) ;
#92=CARTESIAN_POINT('Axis2P3D Location',(-15.,0.,5.)) ;
#97=CARTESIAN_POINT('Line Origine',(-5.,-12.5,5.)) ;
#101=CARTESIAN_POINT('Vertex',(-5.,0.,5.)) ;
#103=CARTESIAN_POINT('Vertex',(-5.,-25.,5.)) ;
#106=CARTESIAN_POINT('Line Origine',(-10.,0.,5.)) ;
#111=CARTESIAN_POINT('Line Origine',(-10.,-25.,5.)) ;
#123=CARTESIAN_POINT('Axis2P3D Location',(-5.,0.,-5.)) ;
#128=CARTESIAN_POINT('Line Origine',(-10.,0.,-5.)) ;
#132=CARTESIAN_POINT('Vertex',(-5.,0.,-5.)) ;
#135=CARTESIAN_POINT('Line Origine',(-5.,-12.5,-5.)) ;
#139=CARTESIAN_POINT('Vertex',(-5.,-25.,-5.)) ;
#142=CARTESIAN_POINT('Line Origine',(-10.,-25.,-5.)) ;
#154=CARTESIAN_POINT('Axis2P3D Location',(0.,-25.,0.)) ;
#159=CARTESIAN_POINT('Line Origine',(-5.,-25.,0.)) ;
#171=CARTESIAN_POINT('Axis2P3D Location',(-5.,235.5,-7.1054273576E-015)) ;
#176=CARTESIAN_POINT('Line Origine',(-5.,0.,0.)) ;
#188=CARTESIAN_POINT('Axis2P3D Location',(5.,0.,5.)) ;
#193=CARTESIAN_POINT('Line Origine',(5.,-12.5,5.)) ;
#197=CARTESIAN_POINT('Vertex',(5.,0.,5.)) ;
#199=CARTESIAN_POINT('Vertex',(5.,-25.,5.)) ;
#202=CARTESIAN_POINT('Line Origine',(5.,0.,0.)) ;
#206=CARTESIAN_POINT('Vertex',(5.,0.,-5.)) ;
#209=CARTESIAN_POINT('Line Origine',(5.,-12.5,-5.)) ;
#213=CARTESIAN_POINT('Vertex',(5.,-25.,-5.)) ;
#216=CARTESIAN_POINT('Line Origine',(5.,-25.,0.)) ;
#228=CARTESIAN_POINT('Line Origine',(14.8522233963,-12.5,5.)) ;
#232=CARTESIAN_POINT('Vertex',(14.8522233963,0.,5.)) ;
#234=CARTESIAN_POINT('Vertex',(14.8522233963,-25.,5.)) ;
#237=CARTESIAN_POINT('Line Origine',(9.92611169815,0.,5.)) ;
#242=CARTESIAN_POINT('Line Origine',(9.92611169815,-25.,5.)) ;
#254=CARTESIAN_POINT('Line Origine',(9.92611169815,0.,-5.)) ;
#258=CARTESIAN_POINT('Vertex',(14.8522233963,0.,-5.)) ;
#261=CARTESIAN_POINT('Line Origine',(14.8522233963,-12.5,-5.)) ;
#265=CARTESIAN_POINT('Vertex',(14.8522233963,-25.,-5.)) ;
#268=CARTESIAN_POINT('Line Origine',(9.92611169815,-25.,-5.)) ;
#280=CARTESIAN_POINT('Line Origine',(14.8522233963,-25.,-8.881784197E-016)) ;
#292=CARTESIAN_POINT('Axis2P3D Location',(14.8522233963,0.,-5.)) ;
#297=CARTESIAN_POINT('Line Origine',(14.8522233963,0.,-8.881784197E-016)) ;
#309=CARTESIAN_POINT('Axis2P3D Location',(0.,0.,0.)) ;
#314=CARTESIAN_POINT('Line Origine',(0.,0.,25.)) ;
#318=CARTESIAN_POINT('Vertex',(-25.,0.,25.)) ;
#320=CARTESIAN_POINT('Vertex',(25.,0.,25.)) ;
#323=CARTESIAN_POINT('Line Origine',(-25.,0.,-3.5527136788E-015)) ;
#327=CARTESIAN_POINT('Vertex',(-25.,0.,-25.)) ;
#330=CARTESIAN_POINT('Line Origine',(3.5527136788E-015,0.,-25.)) ;
#334=CARTESIAN_POINT('Vertex',(25.,0.,-25.)) ;
#337=CARTESIAN_POINT('Line Origine',(25.,0.,-3.5527136788E-015)) ;
#361=CARTESIAN_POINT('Axis2P3D Location',(24.9,235.5,-7.1054273576E-015)) ;
#366=CARTESIAN_POINT('Axis2P3D Location',(25.,235.5,-7.1054273576E-015)) ;
#370=CARTESIAN_POINT('Vertex',(25.,226.724174381,4.79425538604)) ;
#372=CARTESIAN_POINT('Vertex',(25.,244.275825619,-4.79425538604)) ;
#375=CARTESIAN_POINT('Line Origine',(10.1550000001,244.275825619,-4.79425538604)) ;
#379=CARTESIAN_POINT('Vertex',(-5.,244.275825619,-4.79425538604)) ;
#382=CARTESIAN_POINT('Axis2P3D Location',(-5.,235.5,-7.1054273576E-015)) ;
#386=CARTESIAN_POINT('Vertex',(-5.,226.724174381,4.79425538604)) ;
#389=CARTESIAN_POINT('Line Origine',(10.1550000001,226.724174381,4.79425538604)) ;
#401=CARTESIAN_POINT('Axis2P3D Location',(25.,235.5,-7.1054273576E-015)) ;
#406=CARTESIAN_POINT('Axis2P3D Location',(-5.,235.5,-7.1054273576E-015)) ;
#423=CARTESIAN_POINT('Axis2P3D Location',(25.,0.,25.)) ;
#428=CARTESIAN_POINT('Line Origine',(0.,250.5,25.)) ;
#432=CARTESIAN_POINT('Vertex',(-25.,250.5,25.)) ;
#434=CARTESIAN_POINT('Vertex',(25.,250.5,25.)) ;
#437=CARTESIAN_POINT('Line Origine',(-25.,125.25,25.)) ;
#442=CARTESIAN_POINT('Line Origine',(25.,125.25,25.)) ;
#454=CARTESIAN_POINT('Axis2P3D Location',(0.,255.5,0.)) ;
#459=CARTESIAN_POINT('Line Origine',(-20.,255.5,-3.5527136788E-015)) ;
#463=CARTESIAN_POINT('Vertex',(-20.,255.5,-20.)) ;
#465=CARTESIAN_POINT('Vertex',(-20.,255.5,20.)) ;
#468=CARTESIAN_POINT('Line Origine',(0.,255.5,20.)) ;
#472=CARTESIAN_POINT('Vertex',(20.,255.5,20.)) ;
#475=CARTESIAN_POINT('Line Origine',(20.,255.5,-3.5527136788E-015)) ;
#479=CARTESIAN_POINT('Vertex',(20.,255.5,-20.)) ;
#482=CARTESIAN_POINT('Line Origine',(-3.5527136788E-015,255.5,-20.)) ;
#494=CARTESIAN_POINT('Axis2P3D Location',(-25.,0.,-25.)) ;
#499=CARTESIAN_POINT('Line Origine',(-25.,125.25,-25.)) ;
#503=CARTESIAN_POINT('Vertex',(-25.,250.5,-25.)) ;
#506=CARTESIAN_POINT('Line Origine',(-25.,250.5,-3.5527136788E-015)) ;
#518=CARTESIAN_POINT('Axis2P3D Location',(-25.,0.,-25.)) ;
#523=CARTESIAN_POINT('Line Origine',(0.,250.5,-25.)) ;
#527=CARTESIAN_POINT('Vertex',(25.,250.5,-25.)) ;
#530=CARTESIAN_POINT('Line Origine',(25.,125.25,-25.)) ;
#542=CARTESIAN_POINT('Axis2P3D Location',(25.,0.,25.)) ;
#547=CARTESIAN_POINT('Line Origine',(25.,250.5,0.)) ;
#563=CARTESIAN_POINT('Axis2P3D Location',(0.,250.5,-20.)) ;
#569=CARTESIAN_POINT('Control Point',(-25.,250.5,-25.)) ;
#570=CARTESIAN_POINT('Control Point',(-25.,250.960980086,-25.)) ;
#571=CARTESIAN_POINT('Control Point',(-24.94687434,251.421959797,-24.94687434)) ;
#572=CARTESIAN_POINT('Control Point',(-24.8405611996,251.86552018,-24.8405609019)) ;
#573=CARTESIAN_POINT('Control Point',(-24.4385018961,252.983913546,-24.4385024023)) ;
#574=CARTESIAN_POINT('Control Point',(-23.7884579744,253.864562746,-23.7884571138)) ;
#575=CARTESIAN_POINT('Control Point',(-23.3192650257,254.314649213,-23.3192645271)) ;
#576=CARTESIAN_POINT('Control Point',(-22.3989402692,254.970247298,-22.3989406915)) ;
#577=CARTESIAN_POINT('Control Point',(-21.4032376457,255.334936494,-21.4032372879)) ;
#578=CARTESIAN_POINT('Control Point',(-20.9387714888,255.44491511,-20.9388401146)) ;
#579=CARTESIAN_POINT('Control Point',(-20.4694037135,255.5,-20.4694034078)) ;
#580=CARTESIAN_POINT('Control Point',(-20.,255.5,-20.)) ;
#583=CARTESIAN_POINT('Control Point',(25.,250.5,-25.)) ;
#584=CARTESIAN_POINT('Control Point',(25.,250.960980087,-25.)) ;
#585=CARTESIAN_POINT('Control Point',(24.94687434,251.421959797,-24.94687434)) ;
#586=CARTESIAN_POINT('Control Point',(24.8405611996,251.86552018,-24.8405609019)) ;
#587=CARTESIAN_POINT('Control Point',(24.4385018962,252.983913546,-24.4385024023)) ;
#588=CARTESIAN_POINT('Control Point',(23.7884579744,253.864562746,-23.7884571138)) ;
#589=CARTESIAN_POINT('Control Point',(23.3192650257,254.314649213,-23.3192645271)) ;
#590=CARTESIAN_POINT('Control Point',(22.3989402692,254.970247298,-22.3989406915)) ;
#591=CARTESIAN_POINT('Control Point',(21.4032376456,255.334936494,-21.4032372879)) ;
#592=CARTESIAN_POINT('Control Point',(20.9387721524,255.444915116,-20.938840609)) ;
#593=CARTESIAN_POINT('Control Point',(20.469403713,255.5,-20.4694033851)) ;
#594=CARTESIAN_POINT('Control Point',(20.,255.5,-20.)) ;
#603=CARTESIAN_POINT('Axis2P3D Location',(-20.,250.5,-7.1054273576E-015)) ;
#609=CARTESIAN_POINT('Control Point',(-25.,250.5,25.)) ;
#610=CARTESIAN_POINT('Control Point',(-25.,250.960980086,25.)) ;
#611=CARTESIAN_POINT('Control Point',(-24.94687434,251.421959797,24.94687434)) ;
#612=CARTESIAN_POINT('Control Point',(-24.8405609019,251.86552018,24.8405611996)) ;
#613=CARTESIAN_POINT('Control Point',(-24.4385024023,252.983913546,24.4385018961)) ;
#614=CARTESIAN_POINT('Control Point',(-23.7884571138,253.864562746,23.7884579744)) ;
#615=CARTESIAN_POINT('Control Point',(-23.3192645271,254.314649213,23.3192650257)) ;
#616=CARTESIAN_POINT('Control Point',(-22.3989406915,254.970247298,22.3989402692)) ;
#617=CARTESIAN_POINT('Control Point',(-21.4032372879,255.334936494,21.4032376456)) ;
#618=CARTESIAN_POINT('Control Point',(-20.9388450815,255.444915117,20.9387721429)) ;
#619=CARTESIAN_POINT('Control Point',(-20.4694033804,255.5,20.4694037167)) ;
#620=CARTESIAN_POINT('Control Point',(-20.,255.5,20.)) ;
#629=CARTESIAN_POINT('Axis2P3D Location',(3.5527136788E-015,250.5,20.)) ;
#635=CARTESIAN_POINT('Control Point',(25.,250.5,25.)) ;
#636=CARTESIAN_POINT('Control Point',(25.,250.960980087,25.)) ;
#637=CARTESIAN_POINT('Control Point',(24.94687434,251.421959797,24.94687434)) ;
#638=CARTESIAN_POINT('Control Point',(24.8405611996,251.86552018,24.8405609019)) ;
#639=CARTESIAN_POINT('Control Point',(24.4385018962,252.983913546,24.4385024023)) ;
#640=CARTESIAN_POINT('Control Point',(23.7884579743,253.864562746,23.7884571138)) ;
#641=CARTESIAN_POINT('Control Point',(23.3192650257,254.314649213,23.3192645271)) ;
#642=CARTESIAN_POINT('Control Point',(22.3989402692,254.970247298,22.3989406915)) ;
#643=CARTESIAN_POINT('Control Point',(21.4032376456,255.334936494,21.4032372879)) ;
#644=CARTESIAN_POINT('Control Point',(20.9387721769,255.444915112,20.9388408035)) ;
#645=CARTESIAN_POINT('Control Point',(20.4694037118,255.5,20.4694033985)) ;
#646=CARTESIAN_POINT('Control Point',(20.,255.5,20.)) ;
#655=CARTESIAN_POINT('Axis2P3D Location',(20.,250.5,0.)) ;
#670=CARTESIAN_POINT('Sketch.2',(25.,235.5,-7.1054273576E-015)) ;
#53=DIRECTION('Axis2P3D Direction',(-1.,-0.,-0.)) ;
#54=DIRECTION('Axis2P3D XDirection',(0.,0.,-1.)) ;
#58=DIRECTION('Vector Direction',(0.,-1.,0.)) ;
#67=DIRECTION('Vector Direction',(0.,0.,-1.)) ;
#74=DIRECTION('Vector Direction',(0.,-1.,0.)) ;
#81=DIRECTION('Vector Direction',(0.,0.,-1.)) ;
#93=DIRECTION('Axis2P3D Direction',(0.,0.,-1.)) ;
#94=DIRECTION('Axis2P3D XDirection',(1.,0.,0.)) ;
#98=DIRECTION('Vector Direction',(0.,-1.,0.)) ;
#107=DIRECTION('Vector Direction',(1.,0.,0.)) ;
#112=DIRECTION('Vector Direction',(1.,0.,0.)) ;
#124=DIRECTION('Axis2P3D Direction',(0.,0.,1.)) ;
#125=DIRECTION('Axis2P3D XDirection',(-1.,0.,0.)) ;
#129=DIRECTION('Vector Direction',(-1.,0.,0.)) ;
#136=DIRECTION('Vector Direction',(0.,-1.,0.)) ;
#143=DIRECTION('Vector Direction',(-1.,0.,0.)) ;
#155=DIRECTION('Axis2P3D Direction',(0.,-1.,0.)) ;
#156=DIRECTION('Axis2P3D XDirection',(1.,0.,-0.)) ;
#160=DIRECTION('Vector Direction',(0.,0.,1.)) ;
#172=DIRECTION('Axis2P3D Direction',(-1.,0.,0.)) ;
#173=DIRECTION('Axis2P3D XDirection',(0.,1.,0.)) ;
#177=DIRECTION('Vector Direction',(0.,0.,1.)) ;
#189=DIRECTION('Axis2P3D Direction',(-1.,-0.,-0.)) ;
#190=DIRECTION('Axis2P3D XDirection',(0.,0.,-1.)) ;
#194=DIRECTION('Vector Direction',(0.,-1.,0.)) ;
#203=DIRECTION('Vector Direction',(0.,0.,-1.)) ;
#210=DIRECTION('Vector Direction',(0.,-1.,0.)) ;
#217=DIRECTION('Vector Direction',(0.,0.,-1.)) ;
#229=DIRECTION('Vector Direction',(0.,-1.,0.)) ;
#238=DIRECTION('Vector Direction',(-1.,0.,0.)) ;
#243=DIRECTION('Vector Direction',(-1.,0.,0.)) ;
#255=DIRECTION('Vector Direction',(1.,0.,0.)) ;
#262=DIRECTION('Vector Direction',(0.,-1.,0.)) ;
#269=DIRECTION('Vector Direction',(1.,0.,0.)) ;
#281=DIRECTION('Vector Direction',(0.,0.,1.)) ;
#293=DIRECTION('Axis2P3D Direction',(1.,0.,-0.)) ;
#294=DIRECTION('Axis2P3D XDirection',(0.,0.,1.)) ;
#298=DIRECTION('Vector Direction',(0.,0.,1.)) ;
#310=DIRECTION('Axis2P3D Direction',(0.,1.,0.)) ;
#311=DIRECTION('Axis2P3D XDirection',(-1.,0.,0.)) ;
#315=DIRECTION('Vector Direction',(-1.,0.,0.)) ;
#324=DIRECTION('Vector Direction',(0.,0.,1.)) ;
#331=DIRECTION('Vector Direction',(1.,0.,0.)) ;
#338=DIRECTION('Vector Direction',(0.,0.,-1.)) ;
#362=DIRECTION('Axis2P3D Direction',(-1.,0.,0.)) ;
#363=DIRECTION('Axis2P3D XDirection',(0.,0.87758256189,-0.479425538604)) ;
#367=DIRECTION('Axis2P3D Direction',(-1.,0.,0.)) ;
#376=DIRECTION('Vector Direction',(-1.,0.,0.)) ;
#383=DIRECTION('Axis2P3D Direction',(-1.,0.,0.)) ;
#390=DIRECTION('Vector Direction',(-1.,0.,0.)) ;
#402=DIRECTION('Axis2P3D Direction',(-1.,0.,0.)) ;
#407=DIRECTION('Axis2P3D Direction',(-1.,0.,0.)) ;
#424=DIRECTION('Axis2P3D Direction',(0.,0.,-1.)) ;
#425=DIRECTION('Axis2P3D XDirection',(-1.,0.,0.)) ;
#429=DIRECTION('Vector Direction',(-1.,0.,0.)) ;
#438=DIRECTION('Vector Direction',(0.,1.,0.)) ;
#443=DIRECTION('Vector Direction',(0.,1.,0.)) ;
#455=DIRECTION('Axis2P3D Direction',(0.,1.,0.)) ;
#456=DIRECTION('Axis2P3D XDirection',(-1.,0.,0.)) ;
#460=DIRECTION('Vector Direction',(0.,0.,1.)) ;
#469=DIRECTION('Vector Direction',(-1.,0.,0.)) ;
#476=DIRECTION('Vector Direction',(0.,0.,-1.)) ;
#483=DIRECTION('Vector Direction',(1.,0.,0.)) ;
#495=DIRECTION('Axis2P3D Direction',(-1.,0.,0.)) ;
#496=DIRECTION('Axis2P3D XDirection',(0.,0.,1.)) ;
#500=DIRECTION('Vector Direction',(0.,1.,0.)) ;
#507=DIRECTION('Vector Direction',(0.,0.,1.)) ;
#519=DIRECTION('Axis2P3D Direction',(-0.,0.,1.)) ;
#520=DIRECTION('Axis2P3D XDirection',(1.,-0.,0.)) ;
#524=DIRECTION('Vector Direction',(1.,0.,0.)) ;
#531=DIRECTION('Vector Direction',(0.,1.,0.)) ;
#543=DIRECTION('Axis2P3D Direction',(1.,0.,-0.)) ;
#544=DIRECTION('Axis2P3D XDirection',(-0.,0.,-1.)) ;
#548=DIRECTION('Vector Direction',(0.,0.,-1.)) ;
#564=DIRECTION('Axis2P3D Direction',(1.,0.,0.)) ;
#565=DIRECTION('Axis2P3D XDirection',(0.,0.,-1.)) ;
#604=DIRECTION('Axis2P3D Direction',(0.,0.,1.)) ;
#605=DIRECTION('Axis2P3D XDirection',(1.83690953073E-016,1.,-0.)) ;
#630=DIRECTION('Axis2P3D Direction',(-1.,0.,0.)) ;
#631=DIRECTION('Axis2P3D XDirection',(0.,0.,1.)) ;
#656=DIRECTION('Axis2P3D Direction',(0.,0.,-1.)) ;
#657=DIRECTION('Axis2P3D XDirection',(-1.83690953073E-016,1.,-0.)) ;
#48=AXIS2_PLACEMENT_3D(' ',#47,$,$) ;
#55=AXIS2_PLACEMENT_3D('Plane Axis2P3D',#52,#53,#54) ;
#95=AXIS2_PLACEMENT_3D('Plane Axis2P3D',#92,#93,#94) ;
#126=AXIS2_PLACEMENT_3D('Plane Axis2P3D',#123,#124,#125) ;
#157=AXIS2_PLACEMENT_3D('Plane Axis2P3D',#154,#155,#156) ;
#174=AXIS2_PLACEMENT_3D('Plane Axis2P3D',#171,#172,#173) ;
#191=AXIS2_PLACEMENT_3D('Plane Axis2P3D',#188,#189,#190) ;
#295=AXIS2_PLACEMENT_3D('Plane Axis2P3D',#292,#293,#294) ;
#312=AXIS2_PLACEMENT_3D('Plane Axis2P3D',#309,#310,#311) ;
#364=AXIS2_PLACEMENT_3D('Cylinder Axis2P3D',#361,#362,#363) ;
#368=AXIS2_PLACEMENT_3D('Circle Axis2P3D',#366,#367,$) ;
#384=AXIS2_PLACEMENT_3D('Circle Axis2P3D',#382,#383,$) ;
#403=AXIS2_PLACEMENT_3D('Circle Axis2P3D',#401,#402,$) ;
#408=AXIS2_PLACEMENT_3D('Circle Axis2P3D',#406,#407,$) ;
#426=AXIS2_PLACEMENT_3D('Plane Axis2P3D',#423,#424,#425) ;
#457=AXIS2_PLACEMENT_3D('Plane Axis2P3D',#454,#455,#456) ;
#497=AXIS2_PLACEMENT_3D('Plane Axis2P3D',#494,#495,#496) ;
#521=AXIS2_PLACEMENT_3D('Plane Axis2P3D',#518,#519,#520) ;
#545=AXIS2_PLACEMENT_3D('Plane Axis2P3D',#542,#543,#544) ;
#566=AXIS2_PLACEMENT_3D('Cylinder Axis2P3D',#563,#564,#565) ;
#606=AXIS2_PLACEMENT_3D('Cylinder Axis2P3D',#603,#604,#605) ;
#632=AXIS2_PLACEMENT_3D('Cylinder Axis2P3D',#629,#630,#631) ;
#658=AXIS2_PLACEMENT_3D('Cylinder Axis2P3D',#655,#656,#657) ;
#40=PRODUCT_DEFINITION_SHAPE(' ',' ',#14) ;
#31=APPROVAL_PERSON_ORGANIZATION(#25,#21,#19) ;
#25=PERSON_AND_ORGANIZATION(#22,#23) ;
#22=PERSON(' ',' ',' ',$,$,$) ;
#23=ORGANIZATION(' ',' ',' ') ;
#21=APPROVAL(#20,' ') ;
#20=APPROVAL_STATUS('not_yet_approved') ;
#19=APPROVAL_ROLE('APPROVER') ;
#13=DATE_AND_TIME(#11,#12) ;
#12=LOCAL_TIME(16,55,21.,#10) ;
#10=COORDINATED_UNIVERSAL_TIME_OFFSET(0,0,.AHEAD.) ;
#86=ORIENTED_EDGE('',*,*,#65,.F.) ;
#87=ORIENTED_EDGE('',*,*,#72,.T.) ;
#88=ORIENTED_EDGE('',*,*,#79,.T.) ;
#89=ORIENTED_EDGE('',*,*,#84,.F.) ;
#117=ORIENTED_EDGE('',*,*,#105,.F.) ;
#118=ORIENTED_EDGE('',*,*,#110,.T.) ;
#119=ORIENTED_EDGE('',*,*,#65,.T.) ;
#120=ORIENTED_EDGE('',*,*,#115,.F.) ;
#148=ORIENTED_EDGE('',*,*,#79,.F.) ;
#149=ORIENTED_EDGE('',*,*,#134,.T.) ;
#150=ORIENTED_EDGE('',*,*,#141,.T.) ;
#151=ORIENTED_EDGE('',*,*,#146,.F.) ;
#165=ORIENTED_EDGE('',*,*,#84,.T.) ;
#166=ORIENTED_EDGE('',*,*,#146,.T.) ;
#167=ORIENTED_EDGE('',*,*,#163,.T.) ;
#168=ORIENTED_EDGE('',*,*,#115,.T.) ;
#182=ORIENTED_EDGE('',*,*,#141,.F.) ;
#183=ORIENTED_EDGE('',*,*,#180,.T.) ;
#184=ORIENTED_EDGE('',*,*,#105,.T.) ;
#185=ORIENTED_EDGE('',*,*,#163,.F.) ;
#222=ORIENTED_EDGE('',*,*,#201,.F.) ;
#223=ORIENTED_EDGE('',*,*,#208,.T.) ;
#224=ORIENTED_EDGE('',*,*,#215,.T.) ;
#225=ORIENTED_EDGE('',*,*,#220,.F.) ;
#248=ORIENTED_EDGE('',*,*,#236,.F.) ;
#249=ORIENTED_EDGE('',*,*,#241,.T.) ;
#250=ORIENTED_EDGE('',*,*,#201,.T.) ;
#251=ORIENTED_EDGE('',*,*,#246,.F.) ;
#274=ORIENTED_EDGE('',*,*,#215,.F.) ;
#275=ORIENTED_EDGE('',*,*,#260,.T.) ;
#276=ORIENTED_EDGE('',*,*,#267,.T.) ;
#277=ORIENTED_EDGE('',*,*,#272,.F.) ;
#286=ORIENTED_EDGE('',*,*,#220,.T.) ;
#287=ORIENTED_EDGE('',*,*,#272,.T.) ;
#288=ORIENTED_EDGE('',*,*,#284,.T.) ;
#289=ORIENTED_EDGE('',*,*,#246,.T.) ;
#303=ORIENTED_EDGE('',*,*,#267,.F.) ;
#304=ORIENTED_EDGE('',*,*,#301,.T.) ;
#305=ORIENTED_EDGE('',*,*,#236,.T.) ;
#306=ORIENTED_EDGE('',*,*,#284,.F.) ;
#343=ORIENTED_EDGE('',*,*,#322,.F.) ;
#344=ORIENTED_EDGE('',*,*,#329,.F.) ;
#345=ORIENTED_EDGE('',*,*,#336,.F.) ;
#346=ORIENTED_EDGE('',*,*,#341,.F.) ;
#349=ORIENTED_EDGE('',*,*,#180,.F.) ;
#350=ORIENTED_EDGE('',*,*,#134,.F.) ;
#351=ORIENTED_EDGE('',*,*,#72,.F.) ;
#352=ORIENTED_EDGE('',*,*,#110,.F.) ;
#355=ORIENTED_EDGE('',*,*,#301,.F.) ;
#356=ORIENTED_EDGE('',*,*,#260,.F.) ;
#357=ORIENTED_EDGE('',*,*,#208,.F.) ;
#358=ORIENTED_EDGE('',*,*,#241,.F.) ;
#395=ORIENTED_EDGE('',*,*,#374,.T.) ;
#396=ORIENTED_EDGE('',*,*,#381,.F.) ;
#397=ORIENTED_EDGE('',*,*,#388,.T.) ;
#398=ORIENTED_EDGE('',*,*,#393,.T.) ;
#412=ORIENTED_EDGE('',*,*,#405,.T.) ;
#413=ORIENTED_EDGE('',*,*,#393,.F.) ;
#414=ORIENTED_EDGE('',*,*,#410,.T.) ;
#415=ORIENTED_EDGE('',*,*,#381,.T.) ;
#419=ORIENTED_EDGE('',*,*,#410,.F.) ;
#420=ORIENTED_EDGE('',*,*,#388,.F.) ;
#448=ORIENTED_EDGE('',*,*,#436,.F.) ;
#449=ORIENTED_EDGE('',*,*,#441,.F.) ;
#450=ORIENTED_EDGE('',*,*,#322,.T.) ;
#451=ORIENTED_EDGE('',*,*,#446,.T.) ;
#488=ORIENTED_EDGE('',*,*,#467,.T.) ;
#489=ORIENTED_EDGE('',*,*,#474,.T.) ;
#490=ORIENTED_EDGE('',*,*,#481,.T.) ;
#491=ORIENTED_EDGE('',*,*,#486,.T.) ;
#512=ORIENTED_EDGE('',*,*,#505,.F.) ;
#513=ORIENTED_EDGE('',*,*,#329,.T.) ;
#514=ORIENTED_EDGE('',*,*,#441,.T.) ;
#515=ORIENTED_EDGE('',*,*,#510,.F.) ;
#536=ORIENTED_EDGE('',*,*,#529,.F.) ;
#537=ORIENTED_EDGE('',*,*,#534,.F.) ;
#538=ORIENTED_EDGE('',*,*,#336,.T.) ;
#539=ORIENTED_EDGE('',*,*,#505,.T.) ;
#553=ORIENTED_EDGE('',*,*,#446,.F.) ;
#554=ORIENTED_EDGE('',*,*,#341,.T.) ;
#555=ORIENTED_EDGE('',*,*,#534,.T.) ;
#556=ORIENTED_EDGE('',*,*,#551,.F.) ;
#559=ORIENTED_EDGE('',*,*,#374,.F.) ;
#560=ORIENTED_EDGE('',*,*,#405,.F.) ;
#597=ORIENTED_EDGE('',*,*,#581,.T.) ;
#598=ORIENTED_EDGE('',*,*,#486,.F.) ;
#599=ORIENTED_EDGE('',*,*,#595,.F.) ;
#600=ORIENTED_EDGE('',*,*,#529,.T.) ;
#623=ORIENTED_EDGE('',*,*,#621,.T.) ;
#624=ORIENTED_EDGE('',*,*,#467,.F.) ;
#625=ORIENTED_EDGE('',*,*,#581,.F.) ;
#626=ORIENTED_EDGE('',*,*,#510,.T.) ;
#649=ORIENTED_EDGE('',*,*,#647,.T.) ;
#650=ORIENTED_EDGE('',*,*,#474,.F.) ;
#651=ORIENTED_EDGE('',*,*,#621,.F.) ;
#652=ORIENTED_EDGE('',*,*,#436,.T.) ;
#661=ORIENTED_EDGE('',*,*,#595,.T.) ;
#662=ORIENTED_EDGE('',*,*,#481,.F.) ;
#663=ORIENTED_EDGE('',*,*,#647,.F.) ;
#664=ORIENTED_EDGE('',*,*,#551,.T.) ;
#353=FACE_BOUND('',#348,.T.) ;
#359=FACE_BOUND('',#354,.T.) ;
#561=FACE_BOUND('',#558,.T.) ;
#51=CLOSED_SHELL('Closed Shell',(#91,#122,#153,#170,#187,#227,#253,#279,#291,#308,#360,#400,#417,#422,#453,#493,#517,#541,#562,#602,#628,#654,#666)) ;
#59=VECTOR('Line Direction',#58,1.) ;
#68=VECTOR('Line Direction',#67,1.) ;
#75=VECTOR('Line Direction',#74,1.) ;
#82=VECTOR('Line Direction',#81,1.) ;
#99=VECTOR('Line Direction',#98,1.) ;
#108=VECTOR('Line Direction',#107,1.) ;
#113=VECTOR('Line Direction',#112,1.) ;
#130=VECTOR('Line Direction',#129,1.) ;
#137=VECTOR('Line Direction',#136,1.) ;
#144=VECTOR('Line Direction',#143,1.) ;
#161=VECTOR('Line Direction',#160,1.) ;
#178=VECTOR('Line Direction',#177,1.) ;
#195=VECTOR('Line Direction',#194,1.) ;
#204=VECTOR('Line Direction',#203,1.) ;
#211=VECTOR('Line Direction',#210,1.) ;
#218=VECTOR('Line Direction',#217,1.) ;
#230=VECTOR('Line Direction',#229,1.) ;
#239=VECTOR('Line Direction',#238,1.) ;
#244=VECTOR('Line Direction',#243,1.) ;
#256=VECTOR('Line Direction',#255,1.) ;
#263=VECTOR('Line Direction',#262,1.) ;
#270=VECTOR('Line Direction',#269,1.) ;
#282=VECTOR('Line Direction',#281,1.) ;
#299=VECTOR('Line Direction',#298,1.) ;
#316=VECTOR('Line Direction',#315,1.) ;
#325=VECTOR('Line Direction',#324,1.) ;
#332=VECTOR('Line Direction',#331,1.) ;
#339=VECTOR('Line Direction',#338,1.) ;
#377=VECTOR('Line Direction',#376,1.) ;
#391=VECTOR('Line Direction',#390,1.) ;
#430=VECTOR('Line Direction',#429,1.) ;
#439=VECTOR('Line Direction',#438,1.) ;
#444=VECTOR('Line Direction',#443,1.) ;
#461=VECTOR('Line Direction',#460,1.) ;
#470=VECTOR('Line Direction',#469,1.) ;
#477=VECTOR('Line Direction',#476,1.) ;
#484=VECTOR('Line Direction',#483,1.) ;
#501=VECTOR('Line Direction',#500,1.) ;
#508=VECTOR('Line Direction',#507,1.) ;
#525=VECTOR('Line Direction',#524,1.) ;
#532=VECTOR('Line Direction',#531,1.) ;
#549=VECTOR('Line Direction',#548,1.) ;
#668=ADVANCED_BREP_SHAPE_REPRESENTATION('NONE',(#667),#46) ;
#49=SHAPE_REPRESENTATION(' ',(#48),#46) ;
#91=ADVANCED_FACE('PartBody',(#90),#56,.T.) ;
#122=ADVANCED_FACE('PartBody',(#121),#96,.F.) ;
#153=ADVANCED_FACE('PartBody',(#152),#127,.F.) ;
#170=ADVANCED_FACE('PartBody',(#169),#158,.T.) ;
#187=ADVANCED_FACE('PartBody',(#186),#175,.F.) ;
#227=ADVANCED_FACE('PartBody',(#226),#192,.T.) ;
#253=ADVANCED_FACE('PartBody',(#252),#96,.F.) ;
#279=ADVANCED_FACE('PartBody',(#278),#127,.F.) ;
#291=ADVANCED_FACE('PartBody',(#290),#158,.T.) ;
#308=ADVANCED_FACE('PartBody',(#307),#296,.T.) ;
#360=ADVANCED_FACE('PartBody',(#347,#353,#359),#313,.F.) ;
#400=ADVANCED_FACE('PartBody',(#399),#365,.F.) ;
#417=ADVANCED_FACE('PartBody',(#416),#365,.F.) ;
#422=ADVANCED_FACE('PartBody',(#421),#175,.F.) ;
#453=ADVANCED_FACE('PartBody',(#452),#427,.F.) ;
#493=ADVANCED_FACE('PartBody',(#492),#458,.T.) ;
#517=ADVANCED_FACE('PartBody',(#516),#498,.T.) ;
#541=ADVANCED_FACE('PartBody',(#540),#522,.F.) ;
#562=ADVANCED_FACE('PartBody',(#557,#561),#546,.T.) ;
#602=ADVANCED_FACE('PartBody',(#601),#567,.T.) ;
#628=ADVANCED_FACE('PartBody',(#627),#607,.T.) ;
#654=ADVANCED_FACE('PartBody',(#653),#633,.T.) ;
#666=ADVANCED_FACE('PartBody',(#665),#659,.T.) ;
#4=APPLICATION_PROTOCOL_DEFINITION('international standard','config_control_design',1994,#1) ;
#32=APPROVAL_DATE_TIME(#13,#21) ;
#568=B_SPLINE_CURVE_WITH_KNOTS('',5,(#569,#570,#571,#572,#573,#574,#575,#576,#577,#578,#579,#580),.UNSPECIFIED.,.F.,.U.,(6,3,3,6),(0.,3.25962145151,8.80194768282,13.4959832002),.UNSPECIFIED.) ;
#582=B_SPLINE_CURVE_WITH_KNOTS('',5,(#583,#584,#585,#586,#587,#588,#589,#590,#591,#592,#593,#594),.UNSPECIFIED.,.F.,.U.,(6,3,3,6),(0.,3.25962145157,8.80194768293,13.4959832004),.UNSPECIFIED.) ;
#608=B_SPLINE_CURVE_WITH_KNOTS('',5,(#609,#610,#611,#612,#613,#614,#615,#616,#617,#618,#619,#620),.UNSPECIFIED.,.F.,.U.,(6,3,3,6),(0.,3.2596214515,8.8019476828,13.4959832003),.UNSPECIFIED.) ;
#634=B_SPLINE_CURVE_WITH_KNOTS('',5,(#635,#636,#637,#638,#639,#640,#641,#642,#643,#644,#645,#646),.UNSPECIFIED.,.F.,.U.,(6,3,3,6),(0.,3.2596214516,8.80194768296,13.4959832004),.UNSPECIFIED.) ;
#667=MANIFOLD_SOLID_BREP('PartBody',#51) ;
#11=CALENDAR_DATE(2024,6,6) ;
#30=CC_DESIGN_APPROVAL(#21,(#16,#6,#14)) ;
#18=CC_DESIGN_DATE_AND_TIME_ASSIGNMENT(#13,#17,(#16)) ;
#29=CC_DESIGN_DATE_AND_TIME_ASSIGNMENT(#13,#28,(#14)) ;
#17=DATE_TIME_ROLE('classification_date') ;
#28=DATE_TIME_ROLE('creation_date') ;
#27=CC_DESIGN_PERSON_AND_ORGANIZATION_ASSIGNMENT(#25,#26,(#16)) ;
#33=CC_DESIGN_PERSON_AND_ORGANIZATION_ASSIGNMENT(#25,#34,(#6)) ;
#35=CC_DESIGN_PERSON_AND_ORGANIZATION_ASSIGNMENT(#25,#36,(#6,#14)) ;
#37=CC_DESIGN_PERSON_AND_ORGANIZATION_ASSIGNMENT(#25,#38,(#5)) ;
#26=PERSON_AND_ORGANIZATION_ROLE('classification_officer') ;
#34=PERSON_AND_ORGANIZATION_ROLE('design_supplier') ;
#36=PERSON_AND_ORGANIZATION_ROLE('creator') ;
#38=PERSON_AND_ORGANIZATION_ROLE('design_owner') ;
#39=CC_DESIGN_SECURITY_CLASSIFICATION(#16,(#6)) ;
#369=CIRCLE('generated circle',#368,10.) ;
#385=CIRCLE('generated circle',#384,10.) ;
#404=CIRCLE('generated circle',#403,10.) ;
#409=CIRCLE('generated circle',#408,10.) ;
#669=SHAPE_REPRESENTATION_RELATIONSHIP(' ',' ',#49,#668) ;
#673=SHAPE_REPRESENTATION_RELATIONSHIP(' ',' ',#49,#671) ;
#365=CYLINDRICAL_SURFACE('generated cylinder',#364,10.) ;
#567=CYLINDRICAL_SURFACE('generated cylinder',#566,5.) ;
#607=CYLINDRICAL_SURFACE('generated cylinder',#606,5.) ;
#633=CYLINDRICAL_SURFACE('generated cylinder',#632,5.) ;
#659=CYLINDRICAL_SURFACE('generated cylinder',#658,5.) ;
#3=DESIGN_CONTEXT(' ',#1,'design') ;
#65=EDGE_CURVE('',#62,#64,#60,.T.) ;
#72=EDGE_CURVE('',#62,#71,#69,.T.) ;
#79=EDGE_CURVE('',#71,#78,#76,.T.) ;
#84=EDGE_CURVE('',#64,#78,#83,.T.) ;
#105=EDGE_CURVE('',#102,#104,#100,.T.) ;
#110=EDGE_CURVE('',#102,#62,#109,.F.) ;
#115=EDGE_CURVE('',#104,#64,#114,.F.) ;
#134=EDGE_CURVE('',#71,#133,#131,.F.) ;
#141=EDGE_CURVE('',#133,#140,#138,.T.) ;
#146=EDGE_CURVE('',#78,#140,#145,.F.) ;
#163=EDGE_CURVE('',#140,#104,#162,.T.) ;
#180=EDGE_CURVE('',#133,#102,#179,.T.) ;
#201=EDGE_CURVE('',#198,#200,#196,.T.) ;
#208=EDGE_CURVE('',#198,#207,#205,.T.) ;
#215=EDGE_CURVE('',#207,#214,#212,.T.) ;
#220=EDGE_CURVE('',#200,#214,#219,.T.) ;
#236=EDGE_CURVE('',#233,#235,#231,.T.) ;
#241=EDGE_CURVE('',#233,#198,#240,.T.) ;
#246=EDGE_CURVE('',#235,#200,#245,.T.) ;
#260=EDGE_CURVE('',#207,#259,#257,.T.) ;
#267=EDGE_CURVE('',#259,#266,#264,.T.) ;
#272=EDGE_CURVE('',#214,#266,#271,.T.) ;
#284=EDGE_CURVE('',#266,#235,#283,.T.) ;
#301=EDGE_CURVE('',#259,#233,#300,.T.) ;
#322=EDGE_CURVE('',#319,#321,#317,.F.) ;
#329=EDGE_CURVE('',#328,#319,#326,.T.) ;
#336=EDGE_CURVE('',#335,#328,#333,.F.) ;
#341=EDGE_CURVE('',#321,#335,#340,.T.) ;
#374=EDGE_CURVE('',#371,#373,#369,.F.) ;
#381=EDGE_CURVE('',#380,#373,#378,.F.) ;
#388=EDGE_CURVE('',#380,#387,#385,.T.) ;
#393=EDGE_CURVE('',#387,#371,#392,.F.) ;
#405=EDGE_CURVE('',#373,#371,#404,.F.) ;
#410=EDGE_CURVE('',#387,#380,#409,.T.) ;
#436=EDGE_CURVE('',#433,#435,#431,.F.) ;
#441=EDGE_CURVE('',#319,#433,#440,.T.) ;
#446=EDGE_CURVE('',#321,#435,#445,.T.) ;
#467=EDGE_CURVE('',#464,#466,#462,.T.) ;
#474=EDGE_CURVE('',#466,#473,#471,.F.) ;
#481=EDGE_CURVE('',#473,#480,#478,.T.) ;
#486=EDGE_CURVE('',#480,#464,#485,.F.) ;
#505=EDGE_CURVE('',#328,#504,#502,.T.) ;
#510=EDGE_CURVE('',#504,#433,#509,.T.) ;
#529=EDGE_CURVE('',#528,#504,#526,.F.) ;
#534=EDGE_CURVE('',#335,#528,#533,.T.) ;
#551=EDGE_CURVE('',#435,#528,#550,.T.) ;
#581=EDGE_CURVE('',#504,#464,#568,.T.) ;
#595=EDGE_CURVE('',#528,#480,#582,.T.) ;
#621=EDGE_CURVE('',#433,#466,#608,.T.) ;
#647=EDGE_CURVE('',#435,#473,#634,.T.) ;
#85=EDGE_LOOP('',(#86,#87,#88,#89)) ;
#116=EDGE_LOOP('',(#117,#118,#119,#120)) ;
#147=EDGE_LOOP('',(#148,#149,#150,#151)) ;
#164=EDGE_LOOP('',(#165,#166,#167,#168)) ;
#181=EDGE_LOOP('',(#182,#183,#184,#185)) ;
#221=EDGE_LOOP('',(#222,#223,#224,#225)) ;
#247=EDGE_LOOP('',(#248,#249,#250,#251)) ;
#273=EDGE_LOOP('',(#274,#275,#276,#277)) ;
#285=EDGE_LOOP('',(#286,#287,#288,#289)) ;
#302=EDGE_LOOP('',(#303,#304,#305,#306)) ;
#342=EDGE_LOOP('',(#343,#344,#345,#346)) ;
#348=EDGE_LOOP('',(#349,#350,#351,#352)) ;
#354=EDGE_LOOP('',(#355,#356,#357,#358)) ;
#394=EDGE_LOOP('',(#395,#396,#397,#398)) ;
#411=EDGE_LOOP('',(#412,#413,#414,#415)) ;
#418=EDGE_LOOP('',(#419,#420)) ;
#447=EDGE_LOOP('',(#448,#449,#450,#451)) ;
#487=EDGE_LOOP('',(#488,#489,#490,#491)) ;
#511=EDGE_LOOP('',(#512,#513,#514,#515)) ;
#535=EDGE_LOOP('',(#536,#537,#538,#539)) ;
#552=EDGE_LOOP('',(#553,#554,#555,#556)) ;
#558=EDGE_LOOP('',(#559,#560)) ;
#596=EDGE_LOOP('',(#597,#598,#599,#600)) ;
#622=EDGE_LOOP('',(#623,#624,#625,#626)) ;
#648=EDGE_LOOP('',(#649,#650,#651,#652)) ;
#660=EDGE_LOOP('',(#661,#662,#663,#664)) ;
#90=FACE_OUTER_BOUND('',#85,.T.) ;
#121=FACE_OUTER_BOUND('',#116,.T.) ;
#152=FACE_OUTER_BOUND('',#147,.T.) ;
#169=FACE_OUTER_BOUND('',#164,.T.) ;
#186=FACE_OUTER_BOUND('',#181,.T.) ;
#226=FACE_OUTER_BOUND('',#221,.T.) ;
#252=FACE_OUTER_BOUND('',#247,.T.) ;
#278=FACE_OUTER_BOUND('',#273,.T.) ;
#290=FACE_OUTER_BOUND('',#285,.T.) ;
#307=FACE_OUTER_BOUND('',#302,.T.) ;
#347=FACE_OUTER_BOUND('',#342,.T.) ;
#399=FACE_OUTER_BOUND('',#394,.T.) ;
#416=FACE_OUTER_BOUND('',#411,.T.) ;
#421=FACE_OUTER_BOUND('',#418,.T.) ;
#452=FACE_OUTER_BOUND('',#447,.T.) ;
#492=FACE_OUTER_BOUND('',#487,.T.) ;
#516=FACE_OUTER_BOUND('',#511,.T.) ;
#540=FACE_OUTER_BOUND('',#535,.T.) ;
#557=FACE_OUTER_BOUND('',#552,.T.) ;
#601=FACE_OUTER_BOUND('',#596,.T.) ;
#627=FACE_OUTER_BOUND('',#622,.T.) ;
#653=FACE_OUTER_BOUND('',#648,.T.) ;
#665=FACE_OUTER_BOUND('',#660,.T.) ;
#672=GEOMETRIC_SET('NONE',(#670)) ;
#671=GEOMETRICALLY_BOUNDED_SURFACE_SHAPE_REPRESENTATION('NONE',(#672),#46) ;
#45=UNCERTAINTY_MEASURE_WITH_UNIT(LENGTH_MEASURE(0.005),#41,'distance_accuracy_value','CONFUSED CURVE UNCERTAINTY') ;
#60=LINE('Line',#57,#59) ;
#69=LINE('Line',#66,#68) ;
#76=LINE('Line',#73,#75) ;
#83=LINE('Line',#80,#82) ;
#100=LINE('Line',#97,#99) ;
#109=LINE('Line',#106,#108) ;
#114=LINE('Line',#111,#113) ;
#131=LINE('Line',#128,#130) ;
#138=LINE('Line',#135,#137) ;
#145=LINE('Line',#142,#144) ;
#162=LINE('Line',#159,#161) ;
#179=LINE('Line',#176,#178) ;
#196=LINE('Line',#193,#195) ;
#205=LINE('Line',#202,#204) ;
#212=LINE('Line',#209,#211) ;
#219=LINE('Line',#216,#218) ;
#231=LINE('Line',#228,#230) ;
#240=LINE('Line',#237,#239) ;
#245=LINE('Line',#242,#244) ;
#257=LINE('Line',#254,#256) ;
#264=LINE('Line',#261,#263) ;
#271=LINE('Line',#268,#270) ;
#283=LINE('Line',#280,#282) ;
#300=LINE('Line',#297,#299) ;
#317=LINE('Line',#314,#316) ;
#326=LINE('Line',#323,#325) ;
#333=LINE('Line',#330,#332) ;
#340=LINE('Line',#337,#339) ;
#378=LINE('Line',#375,#377) ;
#392=LINE('Line',#389,#391) ;
#431=LINE('Line',#428,#430) ;
#440=LINE('Line',#437,#439) ;
#445=LINE('Line',#442,#444) ;
#462=LINE('Line',#459,#461) ;
#471=LINE('Line',#468,#470) ;
#478=LINE('Line',#475,#477) ;
#485=LINE('Line',#482,#484) ;
#502=LINE('Line',#499,#501) ;
#509=LINE('Line',#506,#508) ;
#526=LINE('Line',#523,#525) ;
#533=LINE('Line',#530,#532) ;
#550=LINE('Line',#547,#549) ;
#2=MECHANICAL_CONTEXT(' ',#1,'mechanical') ;
#24=PERSONAL_ADDRESS(' ',' ',' ',' ',' ',' ',' ',' ',' ',' ',' ',' ',(#22),' ') ;
#56=PLANE('',#55) ;
#96=PLANE('',#95) ;
#127=PLANE('',#126) ;
#158=PLANE('',#157) ;
#175=PLANE('',#174) ;
#192=PLANE('',#191) ;
#296=PLANE('',#295) ;
#313=PLANE('',#312) ;
#427=PLANE('',#426) ;
#458=PLANE('',#457) ;
#498=PLANE('',#497) ;
#522=PLANE('',#521) ;
#546=PLANE('',#545) ;
#43=PLANE_ANGLE_MEASURE_WITH_UNIT(PLANE_ANGLE_MEASURE(0.0174532925199),#42) ;
#7=PRODUCT_CATEGORY('part',$) ;
#9=PRODUCT_CATEGORY_RELATIONSHIP(' ',' ',#7,#8) ;
#6=PRODUCT_DEFINITION_FORMATION_WITH_SPECIFIED_SOURCE('',' ',#5,.NOT_KNOWN.) ;
#8=PRODUCT_RELATED_PRODUCT_CATEGORY('detail',$,(#5)) ;
#50=SHAPE_DEFINITION_REPRESENTATION(#40,#49) ;
#62=VERTEX_POINT('',#61) ;
#64=VERTEX_POINT('',#63) ;
#71=VERTEX_POINT('',#70) ;
#78=VERTEX_POINT('',#77) ;
#102=VERTEX_POINT('',#101) ;
#104=VERTEX_POINT('',#103) ;
#133=VERTEX_POINT('',#132) ;
#140=VERTEX_POINT('',#139) ;
#198=VERTEX_POINT('',#197) ;
#200=VERTEX_POINT('',#199) ;
#207=VERTEX_POINT('',#206) ;
#214=VERTEX_POINT('',#213) ;
#233=VERTEX_POINT('',#232) ;
#235=VERTEX_POINT('',#234) ;
#259=VERTEX_POINT('',#258) ;
#266=VERTEX_POINT('',#265) ;
#319=VERTEX_POINT('',#318) ;
#321=VERTEX_POINT('',#320) ;
#328=VERTEX_POINT('',#327) ;
#335=VERTEX_POINT('',#334) ;
#371=VERTEX_POINT('',#370) ;
#373=VERTEX_POINT('',#372) ;
#380=VERTEX_POINT('',#379) ;
#387=VERTEX_POINT('',#386) ;
#433=VERTEX_POINT('',#432) ;
#435=VERTEX_POINT('',#434) ;
#464=VERTEX_POINT('',#463) ;
#466=VERTEX_POINT('',#465) ;
#473=VERTEX_POINT('',#472) ;
#480=VERTEX_POINT('',#479) ;
#504=VERTEX_POINT('',#503) ;
#528=VERTEX_POINT('',#527) ;
#41=(LENGTH_UNIT()NAMED_UNIT(*)SI_UNIT(.MILLI.,.METRE.)) ;
#42=(NAMED_UNIT(*)PLANE_ANGLE_UNIT()SI_UNIT($,.RADIAN.)) ;
#44=(NAMED_UNIT(*)SI_UNIT($,.STERADIAN.)SOLID_ANGLE_UNIT()) ;
#46=(GEOMETRIC_REPRESENTATION_CONTEXT(3)GLOBAL_UNCERTAINTY_ASSIGNED_CONTEXT((#45))GLOBAL_UNIT_ASSIGNED_CONTEXT((#41,#42,#44))REPRESENTATION_CONTEXT(' ',' ')) ;
ENDSEC;
END-ISO-10303-21;
